<svg version="1.1" id="Ñëîé_1" xmlns="http://www.w3.org/2000/svg" xmlns:xlink="http://www.w3.org/1999/xlink" x="0" y="0" viewBox="0 0 451.6 1048.9" xml:space="preserve"><style>.st0{fill:#6d7db3}.st1{fill:#b6bdce}.st2{fill:#f89478}.st3{opacity:.6;fill:#f48469}.st5{fill:#959caf}.st6{opacity:7.000000e-02}.st8{fill:#6b737c}.st9{fill:#313747}.st11{opacity:7.000000e-02;fill:#fff}.st13{opacity:9.000000e-02}.st15{fill:#f18169}.st19{opacity:8.000000e-02;fill:#002a3d}.st20{fill:#7588bc}.st21{fill:#b0b5c1}.st22{opacity:.12;fill:#fff}.st23{fill:#381911}.st24{opacity:.45}.st25{fill:#f89377}.st26{fill:#f89277}.st27{fill:#f89176}.st28{fill:#f99076}.st29{fill:#f98f75}.st30{fill:#f98e75}.st31{fill:#f98d74}.st32{fill:#f98c74}.st33{fill:#f98b73}.st34{fill:#fa8a73}.st35{fill:#fa8972}.st36{fill:#fa8871}.st37{fill:#fa8771}.st38{fill:#fa8670}.st39{fill:#fa8570}.st40{fill:#fa846f}.st41{fill:#fb836f}.st42{fill:#fb826e}.st43{fill:#fb816e}.st44{fill:#fb806d}.st45{fill:#fb7f6d}.st46{fill:#fb7e6c}.st47{fill:#fc7d6b}.st48{fill:#fc7c6a}.st49{fill:#fc7b6a}.st50{fill:#fc7a69}.st51{fill:#fc7969}.st52{fill:#fc7868}.st53{fill:#fd7768}.st54{fill:#fd7667}.st55{fill:#fd7567}.st56{fill:#fd7466}.st57{fill:#fd7366}.st58{fill:#fd7265}.st59{fill:#fd7164}.st60{fill:#fe7064}.st61{fill:#fe6f63}.st62{fill:#fe6e63}.st63{fill:#fe6d62}.st64{fill:#fe6c62}.st65{fill:#fe6b61}.st66{fill:#ff6a61}.st67{fill:#ff6960}.st68{fill:#ff6860}.st69{fill:#ff675f}.st70{clip-path:url(#XMLID_7_);fill:#272525}.st158,.st160{fill:#fff}.st160{opacity:.2}.st161{fill:#4f372d}.st162{fill:#422e26}.st165{opacity:.58;fill:#f48469}.st167{opacity:.9;fill:#fff}</style><path id="XMLID_806_" class="st0" d="M281.5 223.1s25.2 2.2 45.6 13.5c30.3 16.8 102.3 95.9 103.3 95 1-.9-4 75.4-4 75.4s-70.3-20.8-112-75.4c-41.6-54.7-32.9-108.5-32.9-108.5z"/><path id="XMLID_805_" class="st1" d="M441 334.2s-7.9-9.2-8.6-9.5c-24.1-12.8-73.9 32.6-62.1 56.9 3.3 6.8 14.2 13.7 14.2 13.7 2.4-30.1 20.2-51 56.5-61.1z"/><path id="XMLID_6_" class="st2" d="M354.4 483.3c-1.5 6.4 11.9 16.4 3.1 36.7-5.7 13-25.9 24.7-31.2 19-3.1-3.4-4.9 1.1-10.8-.3-3.1-.7-5.5-3.9-7.2-5.7-.4-.4-3.8 1.3-4.7 1.2-9.9-1.2-13.4-12.9-14.7-21.3-1.6-10.2.9-21.3 9.7-27.6.5-.3.9-.6 1.4-.9 4.1-2.5 8.6-3.8 13-5.7 4.1-1.8 8.6-4.7 10.5-8.7 6.3.9 20.7 10.6 26.7 12.7.5.2 4.3-.1 4.2.6z"/><path id="XMLID_5_" class="st2" d="M319.8 474.5c8.4 5 20.3 7.3 29.1 11.5 1.2.6 1.4-.1 5.4-1.9 6.3-15.1 52.9-55.9 73.4-80.7 11.8-14.3 34.2-45.2 18.6-64.2-6.9-8.4-20.7-8.9-31-6.4-10.3 2.6-17.9 10.5-24 18.6-9.2 12.4-14.6 26.7-22.3 40.1-9.2 16-19.5 34.1-28.3 50.4-.8 1.4-15.7 26-20.9 32.6z"/><path id="XMLID_1_" class="st3" d="M289 500.9c1.8-7.9 21.7-22.7 29.8-16.9 8.1 5.8 13.8 3.4 23.3 5.8 9.4 2.4 17.3 23.7 17.4 24 3.8-15.5-5.6-24-5.3-29.7 6.3-15.1 52.9-55.9 73.4-80.7 11.8-14.3 34.2-45.2 18.6-64.2-6.9-8.4-20.7-8.9-31-6.4-10.3 2.6-17.9 10.5-24 18.6-9.2 12.4-14.6 26.7-22.3 40.1-9.2 16-19.5 34.1-28.3 50.4-.7 1.4-15.7 26-20.9 32.6-2.1 1.8-4.5 3.2-6.9 4.2-4.3 1.9-8.9 3.2-13 5.7-.5.3-1 .6-1.4.9-5.2 3.9-8.3 9.5-9.4 15.6zm58.5-42.4c14.9-20.9 30.6-58.3 50-85.7 19.3-27.4 43.1-3.6 31.2 20.4-11.9 24.1-51.5 56-64.4 70.9-9.5 10.8-25.4 6.4-16.8-5.6z"/><path id="XMLID_804_" class="st2" d="M63.8 126.2s3.8-38.6-5-51.8c-8.1-12-15.4-3-14.7-1.1 3.1 9.3 6.4 40.6 5.3 51.6-1.1 10.9 14.4 1.3 14.4 1.3z"/><path id="XMLID_803_" class="st2" d="M33.8 186.5c-1.8-6.3-18.3-8.6-20.4-30.6-1.3-14.1 10.7-34.1 18.2-31.7 4.4 1.4 3.8-3.3 9.6-5 3-.9 6.7.7 9.1 1.5.5.2 2.7-3 3.5-3.3 9.2-3.7 18 4.9 23.1 11.5 6.3 8.2 9.5 19.1 4.8 28.8-.2.5-.5 1-.8 1.5-2.4 4.1-5.7 7.5-8.6 11.3-2.7 3.5-5.3 8.2-5 12.7-5.9 2.2-23.2.7-29.5 1.8-.6.1-3.8 2.2-4 1.5z"/><path id="XMLID_802_" class="st0" d="M192 226.9s-28.3-10.9-63.5 6.8S7.8 321 7.8 321v26.1s21.2 45.3 117-25.7c81.9-60.7 67.2-94.5 67.2-94.5z"/><path id="XMLID_795_" class="st1" d="M18.9 281.6s11-23.4 50-12.9c5.1 1.4 11.1 57-8.9 82.2-20 25.3-75.1 11.9-56.2-40.3 13.1-35.7 15.1-29 15.1-29z"/><path id="XMLID_794_" class="st2" d="M68.3 177.5c-9.8-.3-21.4 3.4-31 4-1.4.1-1.2.7-3.8 4.3 1.8 16.3-19.3 74.5-25.3 106.2-3.5 18.2-8.1 56.1 14.7 65.2 10.1 4 22.4-2.2 30.2-9.4 7.8-7.2 10.6-17.8 12-27.9 2.1-15.3-.2-30.4.1-45.9.3-18.5.6-39.3.5-57.8 0-1.6 1.2-30.4 2.6-38.7z"/><path id="XMLID_787_" d="M26.6 141.6c.1.2 1.5 6.1 7.9 5 6.4-1.1 4.4-6.1 2.6-10.1-1.8-4-2-5.6-2-5.6l1-.5s2.9 8.1 5.6 10c2.6 1.9 8 1.9 9.3-1.1 1.4-3-2.2-12.3-2.2-12.3l1.4-1s9.2 5.9 13.2 6.9v.9s-9.6-2.7-10.5-.1-2.1 10.7 9 13.7l4.7-1.5.8 1.4s-3.6 1.1-3.3 1.4c.3.3-2.4 8.9-2.4 8.9l-1.5-.4s2.3-6.1 1.4-6.7c-.9-.6-12.1-4.8-12.1-4.8S35 158.3 24.9 144l1.7-2.4z" fill="#eb7d66"/><path id="XMLID_785_" class="st5" d="M358.2 924.9s4.3 44.2 5 48.1c.7 4 10.2 27.2 10.8 33.3.6 6.1-13.1 28.2-22.1 30.5-9 2.3-37.6-1.7-38.6-2.4s-9.3-10.9-8.4-11.8c.8-.9 12.1-46.4 12.3-47.3.2-.8-.3-64.8-.3-64.8l41.3 14.4z"/><path id="XMLID_779_" class="st6" d="M313.4 1034.4c1 .7 29.6 4.7 38.6 2.4 9-2.3 22.7-24.4 22.1-30.5-.6-6.1-10.1-29.3-10.8-33.3-.7-4-5-48.1-5-48.1L317 910.6s.5 63.9.3 64.8c-.2.8-11.5 46.4-12.3 47.3-.9.8 7.4 11 8.4 11.7zm9.1-60.1s-1.5-18.7-.2-18.9c1.3-.1 18.7-2.6 33.9.3.2 0 2.1 17.3.9 17.5-1.2.2-13.8-4.6-20.6-4-8.2.7-14 5.1-14 5.1z"/><path id="XMLID_778_" d="M301.3 1018.2c.8-3.2 3.5-9.9 6.7-17.4 2.3-5.3 4.5-10.8 5.5-14.2l45.5-4.3c0 .3.2.6.4.9 0 0 .1.1.1.2.4.6 1.2 1 1.9 1.2.8.2 1.8 0 2.5-.3s1.3-1.1 1.5-1.7c.1-.3.1-.6.1-.9l2.7-.3c4.4 6.8 10.5 21 11.2 28.7 1 10.6-2.1 22.3-14.9 31.1-12.9 8.9-38.8 10.4-56 2.5-9.2-4.3-9.6-15.9-7.2-25.5z" fill="#5c646b"/><path id="XMLID_773_" class="st8" d="M302.1 1015.6c1.2-3.4 3-6.6 6-14.8 2-5.4 4.5-10.8 5.5-14.2l46.7-4.4c0 .1 0 .1.1.2v.5-.2c-.1.6 0 1.2.4 1.8.4.7 1.1 1.1 1.9 1.3.8.2 1.8 0 2.5-.3.6-.3 1.4-1.1 1.5-1.7.2-.8.2-1.5.1-2.2l1.5-.1c4.4 6.8 9.1 20 9.9 27.8.8 7.4-3 18.4-15.3 25.8-14.5 8.9-42.2 9.4-52.2 2.5-7.7-5.4-11.6-13.3-8.6-22z"/><path id="XMLID_770_" class="st9" d="M364.3 971.7l-1.4-.8 1.4 11.7s-9.8-10.8-27.8-10.3c-17.9.5-20.1 13-20.1 13l.2-7.7c-.7-.2-3.7 12-7.2 23.1-2.3 7.3-5.6 13.8-5.9 16.9-.9 10 4 15 8.1 18.3 6.8 5.5 37.5 6.7 49.6-1.7 12.1-8.3 14.7-16.9 14.7-26.3-.1-9.7-11.6-36.2-11.6-36.2z"/><path id="XMLID_769_" d="M335.8 1003.7c33.5-3.2 37.6 10.7 38 16.4-2 4.8-5.8 9.5-12.5 14.1-12.1 8.3-42.8 7.2-49.6 1.7-4.1-3.3-9.1-8.3-8.1-18.3.1-.9.4-2.1.9-3.5 3.5-4.2 12-8.6 31.3-10.4z" fill="#3a4151"/><path id="XMLID_768_" class="st11" d="M363 1010.8c3.5 2.3.7 10-6.1 14.7-6.8 4.7-26.1 4.4-31 .4-1.8-1.5-2.9-16.8.2-17.7 3-.9 29.6-2.4 36.9 2.6z"/><g id="XMLID_762_"><path id="XMLID_763_" d="M231.5 1020.7c-7.2.2-28.7 1.1-55.1 4.5l.2 9.9c4.6-.8 9.3-1.7 12.2-2.3 1.6-.3 3 .9 3 2.5 0 1.4 1.2 2.5 2.6 2.5h37.5c1.4 0 2.5-1.1 2.5-2.5l-.2-12.1c0-1.4-1.2-2.5-2.7-2.5z" fill="#495259"/></g><path id="XMLID_761_" class="st5" d="M174.7 928.1c1.4 0 6.6 65.7 6.6 65.7h41.8l-4.9-63.3-43.5-2.4z"/><path id="XMLID_760_" class="st6" d="M203.3 957.5c6.6 1.9 12.5 5.3 17.7 9.8l-2.8-36.5-43.5-2.5c.6 0 2.1 14.8 3.6 30.4 7-4.4 18-3.2 25-1.2z"/><path id="XMLID_759_" class="st9" d="M223.9 985.1c-.9.7-1.8 1.4-2.8 2.1-5.9 4-11.6 5.5-18.5 3.4-7.5-2.2-13.2-7-17.4-13.6-.3-.5-.6-.9-.8-1.4-1.5-2.8-4.6-4.5-7.7-4.5h-1.8c-2.7 0-5.2 1.6-6.1 4.2-2.2 5.9-18.6 21-42.3 26.5-13.6 3.2-25.1-.2-31.1 8.2-5.4 7.6-1.9 16.8-1.9 16.8l65.2 4.8 80.8-4.8c1.7-12.5-7.9-38.8-7.9-38.8-.7-3.5-5-5.2-7.7-2.9z"/><g id="XMLID_757_"><path id="XMLID_758_" class="st9" d="M233.2 941.8c-34.4-134.8-24.5-328.2-22.1-348.6-.3 0-7.3 1.4-7.6 1.4-26.7-2.9-53.4-33-80.1-36.3-2.4 51.1 12.1 259.8 42.6 384.5.6 2.4 2.8 4.2 5.3 4.2h58c2.6 0 4.5-2.5 3.9-5.2z"/></g><g id="XMLID_755_"><path id="XMLID_756_" class="st9" d="M370.9 943c0-28-8.2-125.6-28.5-181.8-22.5-62.2-22-199.4-22-201.2L234 573.7c-17.4 1.9 7.8 134.4 36.5 210.4 16.9 44.7 30.1 129.7 34.9 158.9 2.1 12.7 65.5 7.4 65.5 0z"/></g><g id="XMLID_753_" class="st13"><path id="XMLID_754_" d="M342.4 761.2c-3.5-9.6-6.4-20.9-8.8-33.2-1.1 6.5-3.7 12.7-7 18.4-11.9 20-43.5 29.2-61.9 12.1-1.9-1.8-3.5-3.7-4.9-5.7 3.5 11.1 7.1 21.7 10.7 31.4 16.9 44.7 30.1 129.7 34.9 158.9 2.1 12.8 65.6 7.4 65.6 0-.1-28.1-8.3-125.7-28.6-181.9z"/></g><g id="XMLID_750_" class="st13"><path id="XMLID_752_" d="M233.2 941.8c-17.2-67.4-23.3-149.3-24.9-217-2.2 8.3-6.2 16.3-11.1 23.5-8.2 12.1-21.8 18.8-36.3 17.9-9.4-.6-18.4-4.3-25.2-10.6 7.1 65.2 17.2 133.9 30.3 187.3.6 2.4 2.8 4.2 5.3 4.2h58c2.6-.1 4.5-2.6 3.9-5.3z"/></g><g id="XMLID_748_"><path id="XMLID_749_" class="st8" d="M201.3 1035.3c0 1.4 1.2 2.6 2.6 2.6h37.5c1.4 0 2.5-1.1 2.5-2.5l-.2-12.1c0-1.4-1.2-2.6-2.6-2.5-8.3.3-35.3 1.4-67 6.2-25.2 3.8-71-3-81.4-4.9-1.3-.2-2.6.6-2.9 1.9l-.8 3.6c-.3 1.4.6 2.7 1.9 3 7.9 1.9 38.7 7.3 82 6.5 3.6-.1 18.9-2.9 25.4-4.2 1.5-.4 3 .8 3 2.4z"/></g><path id="XMLID_747_" class="st11" d="M126.4 1001.9c-5.7 1.3-11 1.5-15.7 1.9.1 0 36.5 10 61.1-.5 22.2-9.4-3.7-17.7-9.8-19.6-7.3 6.6-19.8 14.5-35.6 18.2z"/><path id="XMLID_746_" class="st9" d="M124.3 531.8c-.3 35.7-.7 65.3-.7 65.3s56.3 6.1 116.8 5.5c39.3-.4 73 2.8 74.7-14.7 1.6-16.3 2.4-35.8 2.8-56.1H124.3z"/><path id="XMLID_745_" d="M213.6 591.2c-58.4 2.2-11.7 11.3-6.2 11.4 9.9.2 10 .3 20.5.3 0 0 .2 2 .2 3 .2 0 43.7-16.8-14.5-14.7z" opacity=".11"/><path id="XMLID_744_" class="st15" d="M226.3 159.7c-15.2-.3-27.1 4.9-27.3 15.8l-4.6 51.8c-.2 10.9 15.2 12.5 30.4 12.8 15.2.3 27.6-1.5 27.8-12.4l-.8-48.7c.2-11-10.3-19.1-25.5-19.3z"/><path id="XMLID_742_" fill="#3d4041" d="M266 526.8L242.8 566l17 1.9 22.4-41.1z"/><path id="XMLID_741_" class="st15" d="M278.9 263.5l-.7-40.8c-33.2-9.8-78.4-9.7-110.1 3.7l.7 37.1h110.1z"/><path id="XMLID_740_" d="M290.9 225.8c-2.9-1.1-6-2.1-9.4-2.8-2.9-.8-5.9-1.6-8.9-2.4-2.9 19-26.7 23.3-52.9 23.7-23.6.4-34.5-4.7-38.9-22.9-7.8 1.4-27.7 7.7-38.6 14.8l5.7 319.3c17.6 3.9 43.4 7.9 74.8 7.5 33.7-.4 58.7-5.1 74.1-9.2l-5.9-328z" fill="#dfe5ea"/><path id="XMLID_739_" class="st0" d="M207.8 253c-1.1-4.9-16.3-19.3-19.7-33-14.2 0-42.3 11.5-50.8 20-18.2 18.1-17.6 62.5-18.2 127-.7 69.2-.8 62.5-7.4 196.1 0 0 39 9.2 87 11.8-8.2-95.8 7.9-306.3 9.1-321.9z"/><path id="XMLID_738_" class="st0" d="M281.5 223.1c-2.9-.8-16.1-4.3-19.2-5.1-2.4 16.3-9.1 13-28.2 34.6-1.6 19-13.9 174.5-7.8 325.8 58.1-1.3 105.7-21.1 105.7-21.1-7.7-74.5-8-211.3-9-276.5-.1-6.2.2-49.1-41.5-57.7z"/><path id="XMLID_737_" class="st19" d="M180.6 220.8s-6.6 32.3.8 46.4c0 0 1.5-20.2 10.4-16.7 6 2.3 11.9 10.7 15.3 16 .3-7 .6-11.8.7-13.5-1.1-4.8-15.3-18.4-19.3-31.7-4.6-.7-7.9-.5-7.9-.5z"/><path id="XMLID_736_" class="st20" d="M180.5 439.4c2.5-87 14.1-189.1 15.7-203l-1.2-1.8-5.6-.8c-.1 1.1-13.2 111.7-15.9 205.2-1.8 62.1 0 109.2 1.4 134 2.3.2 4.7.5 7.1.7-1.5-24.4-3.3-71.7-1.5-134.3z"/><path id="XMLID_735_" class="st20" d="M246.7 439.9c-1.5-97.6 8.2-201.9 8.3-202.9l-4.3-.5c-.9.8-1.9 1.6-3 2.6-1.5 17.5-9.4 111.9-8 200.8 1 64.4 4.5 112.1 6.7 137.4 2.4-.2 4.7-.5 7-.7-2.3-25.2-5.7-72.6-6.7-136.7z"/><path id="XMLID_734_" class="st19" d="M257.1 250.5c8.8-3.5 11 16.7 11 16.7 6.9-14.1-.9-46.4-.9-46.4s-2.3-.1-5.6.2c-2.9 13-9.9 11.5-27.7 31.6-.2 2.2-1 9.1-1.3 17.4 6-6.3 19.6-17.5 24.5-19.5z"/><g id="XMLID_732_"><path id="XMLID_733_" class="st20" d="M127.6 292.4l3.5-7.4 56.4-9.9 1.3 7z"/></g><path id="XMLID_731_" class="st20" d="M207.8 253s-19.4-23.6-23.9-7.7c-3 10.8-4.4 17.3-4.4 17.3s-9.3-27.3.2-40.5c9.4-13.2 16.7-15.9 16.7-15.9s-.6 15.7 5.5 28.9c4 8.6 5.9 17.9 5.9 17.9z"/><path id="XMLID_727_" class="st21" d="M196.9 375c0 2.3-2 4.2-4.6 4.2-2.6 0-4.7-1.9-4.8-4.2 0-2.3 2-4.2 4.6-4.2 2.6.1 4.7 1.9 4.8 4.2z"/><path id="XMLID_726_" class="st21" d="M192.7 438.4c0 2.3-2 4.2-4.6 4.2-2.6 0-4.7-1.9-4.8-4.2s2-4.2 4.6-4.2c2.7 0 4.8 1.9 4.8 4.2z"/><path id="XMLID_725_" class="st21" d="M191.9 487.6c0 2.3-2 4.2-4.6 4.2-2.6 0-4.7-1.9-4.8-4.2 0-2.3 2-4.2 4.6-4.2 2.6 0 4.7 1.9 4.8 4.2z"/><path id="XMLID_724_" class="st21" d="M192.8 538.6c0 2.3-2 4.2-4.6 4.2-2.6 0-4.7-1.9-4.8-4.2 0-2.3 2-4.2 4.6-4.2 2.6 0 4.7 1.9 4.8 4.2z"/><path id="XMLID_723_" class="st21" d="M203.9 273c0 2.3-2 4.2-4.6 4.2-2.6 0-4.7-1.9-4.8-4.2 0-2.3 2-4.2 4.6-4.2 2.6 0 4.7 1.9 4.8 4.2z"/><path id="XMLID_722_" class="st21" d="M200 320.2c0 2.3-2 4.2-4.6 4.2-2.6 0-4.7-1.9-4.8-4.2 0-2.3 2-4.2 4.6-4.2 2.6.1 4.7 1.9 4.8 4.2z"/><g id="XMLID_720_"><path id="XMLID_721_" class="st20" d="M304.9 292.4l-57.1-11.8 1.3-6.9 57.1 11.8z"/></g><path id="XMLID_718_" class="st20" d="M234 253.3s25.8-23.9 30.8-8c3.4 10.8 5 17.3 5 17.3s8.3-27.3-1.6-40.5-16-13.7-16-13.7.6 5.7-5 18.9c-3.7 8.6-12 14.9-13.2 26z"/><path id="XMLID_716_" class="st22" d="M201.9 235c-6.1-13.2-5.5-28.9-5.5-28.9s-1.8.7-4.8 3c-6.9 6.7-5.5 20.2-2.2 30.7 7.3-.3 18.4 13.2 18.4 13.2s-1.9-9.3-5.9-18z"/><path id="XMLID_715_" class="st22" d="M258.3 239.9c1.5-11 1.4-22.2-5.9-31.5h-.1s.6 5.7-5 18.9c-3.7 8.7-12 15-13.2 26.1-.1-.1 14.8-13.9 24.2-13.5z"/><path id="XMLID_711_" class="st20" d="M145.1 227.2c-7.3 11.1-19.1 42.7-24.6 74.5-1 18.6-1.1 40.5-1.3 65.4 0 4.6-.1 8.8-.1 12.8 6.5-108.5 30.8-147.1 37.6-155.3-4.7 0-7.7.7-11.6 2.6z"/><path id="XMLID_710_" class="st20" d="M325.2 426.2l-.7-30.4c-8.7-106.4-23-152.3-32.9-169.7-3.1-1.3-6.4-2.3-10.2-3.1-.3-.1-.6-.2-1.1-.3 6.3 5.4 33.6 65 44.9 203.5z"/><path id="XMLID_709_" class="st20" d="M131 331.5l-2.3 41.5c-.2 4.1 1.9 8 5.4 10.1l10.2 6.2c2.8 1.7 6.4 1.7 9.1-.1l13-8.3c2.8-1.8 4.6-4.8 4.7-8.1l2.4-41.3H131z"/><path id="XMLID_708_" class="st20" d="M256.5 336.2l.7 41c.1 3.9 2 7.6 5.3 9.9l8.7 6c4.6 3.2 10.8 3 15.1-.5l12.4-10.3c3.6-3 5.6-7.5 5.3-12.2l-1.7-33.8h-45.8z"/><path id="XMLID_707_" class="st15" d="M152.3 118.6c-7 2.3-10.1 12.5-7 22.8 3.1 10.3 11.3 16.7 18.3 14.4 7-2.3 10.1-12.5 7-22.8-3.1-10.2-11.3-16.7-18.3-14.4z"/><path id="XMLID_705_" class="st23" d="M197.2 26.1v-.3.3z"/><path id="XMLID_701_" class="st2" d="M282.8 132.9c.1-25-3.6-56.6-8.7-75.2-3.9-24.2-72.2-35.6-92.3-2.4-6.4 15.4-16.8 44.2-20.3 72.7v-.5s-18.6 76 49 80.7c67.6 4.7 75.1-30.9 72.3-75.3z"/><g id="XMLID_640_" class="st24"><path id="XMLID_700_" class="st2" d="M185.5 115.8c-13.4-.2-24.5 11.5-24.7 26.1-.2 14.6 10.5 26.6 23.9 26.8 13.4.2 24.5-11.5 24.7-26.1.2-14.6-10.5-26.6-23.9-26.8z"/><path id="XMLID_699_" class="st25" d="M185.5 116.1c-13.3-.2-24.2 11.4-24.4 25.9-.2 14.5 10.4 26.3 23.7 26.5 13.3.2 24.2-11.4 24.4-25.9.1-14.5-10.5-26.3-23.7-26.5z"/><ellipse id="XMLID_698_" transform="rotate(-89.212 185.108 142.28)" class="st26" cx="185.1" cy="142.3" rx="25.9" ry="23.8"/><ellipse id="XMLID_697_" transform="rotate(-89.212 185.108 142.28)" class="st27" cx="185.1" cy="142.3" rx="25.6" ry="23.5"/><path id="XMLID_696_" class="st28" d="M185.5 117c-12.8-.2-23.4 11-23.6 25-.2 14 10.1 25.5 22.9 25.6 12.8.2 23.4-11 23.6-25 .1-14-10.1-25.5-22.9-25.6z"/><ellipse id="XMLID_692_" transform="rotate(-89.212 185.108 142.28)" class="st29" cx="185.1" cy="142.3" rx="25" ry="23"/><path id="XMLID_691_" class="st30" d="M185.4 117.5c-12.5-.2-22.9 10.8-23.1 24.4-.2 13.7 9.8 24.9 22.4 25.1 12.5.2 22.9-10.8 23.1-24.4.2-13.7-9.8-24.9-22.4-25.1z"/><path id="XMLID_690_" class="st31" d="M185.4 117.8c-12.4-.2-22.6 10.6-22.8 24.1-.2 13.5 9.7 24.6 22.1 24.8 12.4.2 22.6-10.6 22.8-24.1.2-13.5-9.7-24.6-22.1-24.8z"/><ellipse id="XMLID_687_" transform="rotate(-89.212 185.108 142.28)" class="st32" cx="185.1" cy="142.3" rx="24.2" ry="22.2"/><path id="XMLID_686_" class="st33" d="M185.4 118.4c-12.1-.2-22.1 10.4-22.3 23.6-.2 13.2 9.5 24 21.6 24.2 12.1.2 22.1-10.4 22.3-23.6.2-13.2-9.5-24-21.6-24.2z"/><ellipse id="XMLID_684_" transform="rotate(-89.212 185.108 142.28)" class="st34" cx="185.1" cy="142.3" rx="23.6" ry="21.7"/><path id="XMLID_683_" class="st35" d="M185.4 119c-11.8-.2-21.5 10.1-21.7 23-.2 12.9 9.3 23.4 21.1 23.6 11.8.2 21.5-10.1 21.7-23 .2-12.9-9.3-23.5-21.1-23.6z"/><ellipse id="XMLID_682_" transform="rotate(-89.211 185.108 142.28)" class="st36" cx="185.1" cy="142.3" rx="23" ry="21.1"/><ellipse id="XMLID_680_" transform="rotate(-89.213 185.108 142.28)" class="st37" cx="185.1" cy="142.3" rx="22.7" ry="20.9"/><path id="XMLID_679_" class="st38" d="M185.4 119.8c-11.4-.2-20.7 9.8-20.9 22.2-.2 12.4 8.9 22.6 20.3 22.7 11.4.2 20.7-9.8 20.9-22.2.2-12.3-8.9-22.5-20.3-22.7z"/><ellipse id="XMLID_678_" transform="rotate(-89.212 185.108 142.28)" class="st39" cx="185.1" cy="142.3" rx="22.2" ry="20.3"/><ellipse id="XMLID_677_" transform="rotate(-89.213 185.108 142.28)" class="st40" cx="185.1" cy="142.3" rx="21.9" ry="20.1"/><path id="XMLID_676_" class="st41" d="M185.4 120.7c-10.9-.2-19.9 9.4-20.1 21.3-.2 11.9 8.6 21.7 19.5 21.9 10.9.2 19.9-9.4 20.1-21.3.2-12-8.6-21.7-19.5-21.9z"/><ellipse id="XMLID_675_" transform="rotate(-89.211 185.108 142.28)" class="st42" cx="185.1" cy="142.3" rx="21.3" ry="19.5"/><ellipse id="XMLID_674_" transform="rotate(-89.212 185.108 142.28)" class="st43" cx="185.1" cy="142.3" rx="21" ry="19.3"/><ellipse id="XMLID_673_" transform="rotate(-89.211 185.108 142.28)" class="st44" cx="185.1" cy="142.3" rx="20.7" ry="19"/><ellipse id="XMLID_672_" transform="rotate(-89.212 185.108 142.28)" class="st45" cx="185.1" cy="142.3" rx="20.4" ry="18.8"/><path id="XMLID_671_" class="st46" d="M185.4 122.1c-10.2-.1-18.6 8.8-18.8 19.9-.2 11.1 8 20.3 18.2 20.4 10.2.1 18.6-8.8 18.8-19.9.2-11.1-8-20.2-18.2-20.4z"/><path id="XMLID_670_" class="st47" d="M185.4 122.4c-10.1-.1-18.3 8.6-18.5 19.6-.2 11 7.9 20 18 20.1 10.1.1 18.3-8.6 18.5-19.6.1-10.9-8-19.9-18-20.1z"/><path id="XMLID_669_" class="st47" d="M185.4 122.7c-9.9-.1-18.1 8.5-18.2 19.3-.1 10.8 7.8 19.7 17.7 19.8 9.9.1 18.1-8.5 18.2-19.3.1-10.8-7.8-19.6-17.7-19.8z"/><ellipse id="XMLID_668_" transform="rotate(-89.211 185.108 142.28)" class="st48" cx="185.1" cy="142.3" rx="19.3" ry="17.7"/><path id="XMLID_667_" class="st49" d="M185.4 123.3c-9.6-.1-17.6 8.3-17.7 18.7-.1 10.5 7.5 19.1 17.2 19.2 9.6.1 17.6-8.3 17.7-18.7.1-10.5-7.6-19.1-17.2-19.2z"/><path id="XMLID_666_" class="st50" d="M185.4 123.6c-9.5-.1-17.3 8.1-17.4 18.5-.1 10.3 7.4 18.8 16.9 18.9 9.5.1 17.3-8.1 17.4-18.5.1-10.3-7.5-18.8-16.9-18.9z"/><path id="XMLID_665_" class="st51" d="M185.4 123.9c-9.3-.1-17 8-17.2 18.2-.1 10.2 7.3 18.5 16.7 18.6 9.3.1 17-8 17.2-18.2.1-10.2-7.4-18.5-16.7-18.6z"/><path id="XMLID_664_" class="st52" d="M185.4 124.2c-9.2-.1-16.8 7.9-16.9 17.9-.1 10 7.2 18.2 16.4 18.4 9.2.1 16.8-7.9 16.9-17.9.1-10.1-7.3-18.3-16.4-18.4z"/><ellipse id="XMLID_663_" transform="rotate(-89.212 185.108 142.28)" class="st53" cx="185.1" cy="142.3" rx="17.8" ry="16.4"/><path id="XMLID_662_" class="st54" d="M185.3 124.7c-8.9-.1-16.2 7.6-16.4 17.3-.1 9.7 7 17.7 15.9 17.8 8.9.1 16.2-7.6 16.4-17.3.2-9.7-7-17.6-15.9-17.8z"/><path id="XMLID_661_" class="st55" d="M185.3 125c-8.8-.1-16 7.5-16.1 17-.1 9.5 6.9 17.4 15.6 17.5 8.8.1 16-7.5 16.1-17 .2-9.5-6.8-17.4-15.6-17.5z"/><path id="XMLID_660_" class="st56" d="M185.3 125.3c-8.6-.1-15.7 7.4-15.8 16.8-.1 9.4 6.7 17.1 15.4 17.2 8.6.1 15.7-7.4 15.8-16.8.1-9.4-6.8-17.1-15.4-17.2z"/><path id="XMLID_659_" class="st57" d="M185.3 125.6c-8.5-.1-15.4 7.3-15.6 16.5-.1 9.2 6.6 16.8 15.1 16.9 8.5.1 15.4-7.3 15.6-16.5.2-9.2-6.6-16.8-15.1-16.9z"/><ellipse id="XMLID_658_" transform="rotate(-89.211 185.108 142.28)" class="st58" cx="185.1" cy="142.3" rx="16.4" ry="15.1"/><ellipse id="XMLID_657_" transform="rotate(-89.211 185.108 142.28)" class="st59" cx="185.1" cy="142.3" rx="16.1" ry="14.8"/><path id="XMLID_656_" class="st60" d="M185.3 126.5c-8-.1-14.6 6.9-14.7 15.6-.1 8.7 6.3 15.9 14.3 16 8 .1 14.6-6.9 14.7-15.6.2-8.8-6.3-15.9-14.3-16z"/><ellipse id="XMLID_653_" transform="rotate(-89.212 185.108 142.28)" class="st61" cx="185.1" cy="142.3" rx="15.5" ry="14.3"/><path id="XMLID_652_" class="st62" d="M185.3 127c-7.7-.1-14.1 6.6-14.2 15.1-.1 8.4 6.1 15.3 13.8 15.4 7.7.1 14.1-6.6 14.2-15.1.1-8.4-6.1-15.3-13.8-15.4z"/><path id="XMLID_651_" class="st63" d="M185.3 127.3c-7.6-.1-13.8 6.5-13.9 14.8-.1 8.3 5.9 15 13.5 15.2 7.6.1 13.8-6.5 13.9-14.8.2-8.3-5.9-15.1-13.5-15.2z"/><ellipse id="XMLID_650_" transform="rotate(-89.212 185.108 142.28)" class="st64" cx="185.1" cy="142.3" rx="14.7" ry="13.5"/><ellipse id="XMLID_649_" transform="rotate(-89.212 185.108 142.28)" class="st65" cx="185.1" cy="142.3" rx="14.4" ry="13.2"/><path id="XMLID_648_" class="st66" d="M185.3 128.2c-7.1-.1-13 6.1-13.1 13.9-.1 7.8 5.6 14.2 12.7 14.3 7.1.1 13-6.1 13.1-13.9.2-7.8-5.6-14.2-12.7-14.3z"/><ellipse id="XMLID_647_" transform="rotate(-89.213 185.108 142.28)" class="st67" cx="185.1" cy="142.3" rx="13.8" ry="12.7"/><ellipse id="XMLID_646_" transform="rotate(-89.213 185.108 142.28)" class="st68" cx="185.1" cy="142.3" rx="13.5" ry="12.4"/><ellipse id="XMLID_645_" transform="rotate(-89.21 185.108 142.28)" class="st69" cx="185.1" cy="142.3" rx="13.2" ry="12.2"/></g><g id="XMLID_585_" class="st24"><ellipse id="XMLID_639_" transform="rotate(-37.108 250.872 143.19)" class="st2" cx="250.9" cy="143.2" rx="26.5" ry="26.5"/><ellipse id="XMLID_638_" transform="rotate(-54.578 250.862 143.184)" class="st25" cx="250.9" cy="143.2" rx="26.2" ry="26.2"/><ellipse id="XMLID_637_" transform="rotate(-45.001 250.863 143.188)" class="st26" cx="250.9" cy="143.2" rx="25.9" ry="25.9"/><ellipse id="XMLID_636_" transform="rotate(-39.592 250.856 143.188)" class="st27" cx="250.9" cy="143.2" rx="25.6" ry="25.6"/><ellipse id="XMLID_635_" transform="rotate(-20.973 250.898 143.199)" class="st28" cx="250.9" cy="143.2" rx="25.3" ry="25.3"/><ellipse id="XMLID_634_" transform="rotate(-32.403 250.878 143.18)" class="st29" cx="250.9" cy="143.2" rx="25" ry="25"/><ellipse id="XMLID_633_" transform="rotate(-51.691 250.854 143.178)" class="st30" cx="250.9" cy="143.2" rx="24.7" ry="24.7"/><ellipse id="XMLID_632_" transform="rotate(-45.001 250.863 143.188)" class="st31" cx="250.9" cy="143.2" rx="24.5" ry="24.5"/><ellipse id="XMLID_631_" transform="rotate(-80.839 250.88 143.19)" class="st32" cx="250.9" cy="143.2" rx="24.2" ry="24.2"/><ellipse id="XMLID_630_" transform="rotate(-27.24 250.84 143.181)" class="st33" cx="250.9" cy="143.2" rx="23.9" ry="23.9"/><ellipse id="XMLID_629_" transform="rotate(-73.087 250.877 143.191)" class="st34" cx="250.9" cy="143.2" rx="23.6" ry="23.6"/><ellipse id="XMLID_628_" transform="rotate(-65.726 250.864 143.182)" class="st35" cx="250.9" cy="143.2" rx="23.3" ry="23.3"/><ellipse id="XMLID_627_" transform="rotate(-44.02 250.842 143.183)" class="st36" cx="250.9" cy="143.2" rx="23" ry="23"/><ellipse id="XMLID_626_" transform="rotate(-17.11 250.886 143.195)" class="st37" cx="250.9" cy="143.2" rx="22.7" ry="22.7"/><ellipse id="XMLID_625_" transform="rotate(-30.91 250.844 143.177)" class="st38" cx="250.9" cy="143.2" rx="22.4" ry="22.4"/><ellipse id="XMLID_624_" transform="rotate(-55.264 250.864 143.18)" class="st39" cx="250.9" cy="143.2" rx="22.2" ry="22.2"/><ellipse id="XMLID_623_" transform="rotate(-10.958 250.904 143.201)" class="st40" cx="250.9" cy="143.2" rx="21.9" ry="21.9"/><ellipse id="XMLID_622_" transform="rotate(-43.672 250.862 143.193)" class="st41" cx="250.9" cy="143.2" rx="21.6" ry="21.6"/><ellipse id="XMLID_621_" transform="rotate(-67.993 250.877 143.19)" class="st42" cx="250.9" cy="143.2" rx="21.3" ry="21.3"/><ellipse id="XMLID_620_" transform="rotate(-4.036 250.859 143.181) scale(.99998)" class="st43" cx="250.9" cy="143.2" rx="21" ry="21"/><ellipse id="XMLID_619_" transform="rotate(-5.139 250.852 143.19) scale(1.00002)" class="st44" cx="250.9" cy="143.2" rx="20.7" ry="20.7"/><ellipse id="XMLID_618_" transform="rotate(-85.909 250.863 143.185) scale(1.00005)" class="st45" cx="250.9" cy="143.2" rx="20.4" ry="20.4"/><ellipse id="XMLID_617_" transform="rotate(-45.001 250.863 143.188)" class="st46" cx="250.9" cy="143.2" rx="20.1" ry="20.1"/><ellipse id="XMLID_616_" transform="rotate(-10.021 250.937 143.22)" class="st47" cx="250.9" cy="143.2" rx="19.9" ry="19.9"/><ellipse id="XMLID_615_" transform="rotate(-23.001 250.904 143.18)" class="st47" cx="250.9" cy="143.2" rx="19.6" ry="19.6"/><circle id="XMLID_614_" class="st48" cx="250.9" cy="143.2" r="19.3"/><ellipse id="XMLID_613_" transform="rotate(-78.077 250.855 143.191)" class="st49" cx="250.9" cy="143.2" rx="19" ry="19"/><ellipse id="XMLID_609_" transform="rotate(-73.602 250.86 143.189)" class="st50" cx="250.9" cy="143.2" rx="18.7" ry="18.7"/><ellipse id="XMLID_608_" transform="rotate(-17.598 250.901 143.21)" class="st51" cx="250.9" cy="143.2" rx="18.4" ry="18.4"/><ellipse id="XMLID_607_" transform="rotate(-26.773 250.885 143.177)" class="st52" cx="250.9" cy="143.2" rx="18.1" ry="18.1"/><ellipse id="XMLID_606_" transform="rotate(-45.001 250.863 143.188)" class="st53" cx="250.9" cy="143.2" rx="17.8" ry="17.8"/><ellipse id="XMLID_605_" transform="rotate(-16.665 250.833 143.193)" class="st54" cx="250.9" cy="143.2" rx="17.6" ry="17.6"/><ellipse id="XMLID_604_" transform="rotate(-31.144 250.874 143.184)" class="st55" cx="250.9" cy="143.2" rx="17.3" ry="17.3"/><ellipse id="XMLID_603_" transform="rotate(-77.848 250.866 143.182)" class="st56" cx="250.9" cy="143.2" rx="17" ry="17"/><path id="XMLID_602_" class="st57" d="M251.1 126.5c-9.2-.1-16.8 7.2-16.9 16.5-.1 9.2 7.2 16.8 16.5 16.9 9.2.1 16.8-7.2 16.9-16.5.1-9.2-7.3-16.8-16.5-16.9z"/><path id="XMLID_601_" class="st58" d="M251.1 126.8c-9.1-.1-16.5 7.1-16.6 16.2-.1 9.1 7.1 16.5 16.2 16.6 9.1.1 16.5-7.1 16.6-16.2s-7.2-16.5-16.2-16.6z"/><ellipse id="XMLID_600_" transform="rotate(-55.676 250.85 143.177)" class="st59" cx="250.9" cy="143.2" rx="16.1" ry="16.1"/><path id="XMLID_599_" class="st60" d="M251.1 127.4c-8.7-.1-15.9 6.9-16 15.6s6.9 15.9 15.6 16c8.7.1 15.9-6.9 16-15.6.1-8.7-6.9-15.9-15.6-16z"/><path id="XMLID_598_" class="st61" d="M251.1 127.6c-8.6-.1-15.6 6.7-15.8 15.3-.1 8.6 6.7 15.6 15.3 15.8 8.6.1 15.6-6.7 15.8-15.3.1-8.6-6.7-15.6-15.3-15.8z"/><path id="XMLID_597_" class="st62" d="M251.1 127.9c-8.4-.1-15.3 6.6-15.5 15-.1 8.4 6.6 15.3 15 15.5 8.4.1 15.3-6.6 15.5-15 .1-8.4-6.6-15.3-15-15.5z"/><ellipse id="XMLID_596_" transform="rotate(-88.133 250.863 143.184) scale(1.00003)" class="st63" cx="250.9" cy="143.2" rx="15" ry="15"/><ellipse id="XMLID_595_" transform="rotate(-45.001 250.863 143.188)" class="st64" cx="250.9" cy="143.2" rx="14.7" ry="14.7"/><ellipse id="XMLID_594_" transform="rotate(-45.001 250.863 143.188)" class="st65" cx="250.9" cy="143.2" rx="14.4" ry="14.4"/><path id="XMLID_593_" class="st66" d="M251.1 129.1c-7.8-.1-14.2 6.1-14.3 13.9-.1 7.8 6.1 14.2 13.9 14.3 7.8.1 14.2-6.1 14.3-13.9.1-7.8-6.2-14.2-13.9-14.3z"/><ellipse id="XMLID_592_" transform="rotate(-29.708 250.862 143.18)" class="st67" cx="250.9" cy="143.2" rx="13.8" ry="13.8"/><ellipse id="XMLID_591_" transform="rotate(-25.184 250.88 143.192)" class="st68" cx="250.9" cy="143.2" rx="13.5" ry="13.5"/><path id="XMLID_590_" class="st69" d="M251 129.9c-7.3-.1-13.3 5.7-13.4 13.1-.1 7.3 5.7 13.3 13.1 13.4 7.3.1 13.3-5.7 13.4-13.1.1-7.2-5.7-13.3-13.1-13.4z"/></g><ellipse id="XMLID_584_" transform="rotate(-72.8 291.157 139.064)" class="st2" cx="291.2" cy="139.1" rx="19.4" ry="13.3"/><path id="XMLID_581_" class="st15" d="M298 144.7c-6.7 4.3-13.8 2.9-19-1.3.1 8.6-1.7 24.8-14 41.4-9.9 13.3-31.2 17.7-47.1 17.1-37.8-1.4-47.7-13-55.5-28.6 5.3 17.1 18.4 33 48.1 35 55.1 3.8 70.3-19.1 72.5-51.8.6.4 1.3.8 2 1.1 6.9 2.5 15.3-3.8 18.6-13.9.9-2.6 1.3-5.3 1.4-7.8-1.2 3.4-3.4 6.5-7 8.8z"/><path id="XMLID_580_" class="st15" d="M285.8 139.1l6.3.9c0-10 7.4-13.3 7.4-13.3-12-4.3-13.7 12.4-13.7 12.4z"/><g id="XMLID_388_"><g id="XMLID_389_"><defs><path id="XMLID_390_" d="M219.9 162.8c-26.5.4-29.6-5.4-29.6-5.4s-5.9 23.9 26.4 24.1c30.8.2 28-22.6 27.8-23.7 0 .6-.3 4.7-24.6 5z"/></defs><clipPath id="XMLID_7_"><use xlink:href="#XMLID_390_" overflow="visible"/></clipPath><path id="XMLID_564_" class="st70" d="M184.4 157.4h63v24.4h-63z"/><path id="XMLID_563_" class="st70" d="M248.4 182.8h-65v-19.1h-5.1c1.6-2 3.5-4 5.6-5.7 4.1-3.5 9-6.3 14.5-8.2v6.6h35.2v-6.2c5.4 2 10.2 4.9 14.3 8.4 2 1.8 3.9 3.7 5.5 5.8h-5v18.4z"/><path id="XMLID_561_" d="M248.4 182.8h-65V164h-4.7c1.6-2 3.5-3.9 5.5-5.6 4.1-3.4 8.9-6.2 14.3-8.1v6.2h34.8v-5.8c5.3 2 10.1 4.8 14.1 8.3 2 1.8 3.8 3.7 5.4 5.7h-4.5v18.1z" clip-path="url(#XMLID_7_)" fill="#282525"/><path id="XMLID_560_" d="M248.4 182.8h-65v-18.6h-4.2c1.6-2 3.4-3.9 5.5-5.6 4-3.4 8.8-6.1 14.1-8v5.7h34.4V151c5.3 2 10 4.8 14 8.2 2 1.7 3.8 3.6 5.4 5.7h-4.1v17.9z" clip-path="url(#XMLID_7_)" fill="#292525"/><path id="XMLID_559_" d="M248.4 182.8h-65v-18.3h-3.8c1.6-2 3.4-3.8 5.4-5.5 4-3.4 8.7-6.1 14-7.9v5.3h34v-5c5.2 1.9 9.9 4.7 13.8 8.1 2 1.7 3.7 3.6 5.3 5.6h-3.7v17.7z" clip-path="url(#XMLID_7_)" fill="#2a2525"/><path id="XMLID_558_" d="M248.4 182.8h-65v-18.1H180c1.6-2 3.4-3.8 5.3-5.4 3.9-3.3 8.6-6 13.8-7.8v4.9h33.6v-4.6c5.2 1.9 9.8 4.7 13.7 8.1 1.9 1.7 3.7 3.5 5.2 5.5h-3.3v17.4z" clip-path="url(#XMLID_7_)" fill="#2b2526"/><path id="XMLID_557_" d="M248.4 182.8h-65v-11.6h-7c2.2-4.4 5.4-8.3 9.3-11.5 3.9-3.3 8.5-5.9 13.6-7.7v4.5h33.2v-4.2c5.1 1.9 9.7 4.6 13.5 8 3.8 3.3 6.9 7.3 9 11.7h-6.7v10.8z" clip-path="url(#XMLID_7_)" fill="#2c2526"/><path id="XMLID_556_" d="M248.4 182.8h-65v-11.5h-6.5c2.2-4.3 5.3-8.2 9.1-11.4 7.7-6.5 18.3-10.4 29.9-10.3 11.6.1 22.2 4.2 29.7 10.8 3.8 3.3 6.8 7.2 8.9 11.6h-6.2v10.8z" clip-path="url(#XMLID_7_)" fill="#2d2526"/><path id="XMLID_555_" d="M248.4 182.8h-65v-11.3h-6c2.1-4.2 5.2-8.1 9-11.3 7.6-6.4 18-10.3 29.6-10.2 11.5.1 21.9 4.2 29.4 10.7 3.7 3.3 6.8 7.1 8.8 11.4h-5.8v10.7z" clip-path="url(#XMLID_7_)" fill="#2e2526"/><path id="XMLID_554_" d="M248.4 182.8h-65v-11.1h-5.5c2.1-4.2 5.2-8 8.9-11.1 7.5-6.3 17.8-10.2 29.2-10.1 11.4.1 21.6 4.1 29 10.6 3.7 3.2 6.7 7 8.7 11.3h-5.3v10.4z" clip-path="url(#XMLID_7_)" fill="#2f2526"/><path id="XMLID_553_" d="M248.4 182.8h-65v-10.9h-5.1c2.1-4.1 5.1-7.9 8.8-11 7.4-6.2 17.6-10 28.8-9.9 11.2.1 21.3 4.1 28.6 10.4 3.6 3.2 6.6 7 8.6 11.1h-4.8v10.3z" clip-path="url(#XMLID_7_)" fill="#302526"/><path id="XMLID_552_" d="M248.4 182.8h-65V172h-4.6c2.1-4.1 5-7.8 8.7-10.8 7.3-6.2 17.4-9.9 28.5-9.8 11.1.1 21.1 4 28.3 10.3 3.6 3.1 6.5 6.9 8.5 11h-4.3v10.1z" clip-path="url(#XMLID_7_)" fill="#312526"/><path id="XMLID_551_" d="M248.4 182.8h-65v-10.6h-4.1c2-4 5-7.7 8.6-10.7 7.2-6.1 17.2-9.8 28.1-9.7 10.9.1 20.8 4 27.9 10.2 7.1 6.2 11.5 14.7 11.4 24.1l-6.9-3.3z" clip-path="url(#XMLID_7_)" fill="#322526"/><path id="XMLID_550_" d="M248.4 182.8h-65.1l-6.8 2.6c.2-18.5 17.8-33.3 39.4-33.1 21.6.2 39 15.3 38.8 33.8l-6.3-3.3z" clip-path="url(#XMLID_7_)" fill="#332527"/><path id="XMLID_549_" d="M248.4 182.8h-65.1l-6.3 2.6c.2-18.2 17.6-32.9 38.9-32.7 21.3.2 38.4 15.1 38.3 33.4l-5.8-3.3z" clip-path="url(#XMLID_7_)" fill="#342527"/><path id="XMLID_511_" d="M248.4 182.8h-65l-5.8 2.6c.2-18 17.3-32.4 38.3-32.3 21 .2 37.9 14.9 37.8 32.9l-5.3-3.2z" clip-path="url(#XMLID_7_)" fill="#352527"/><path id="XMLID_510_" d="M248.4 182.8h-65l-5.3 2.6c.2-17.8 17.1-32 37.8-31.8 20.7.2 37.4 14.7 37.3 32.5l-4.8-3.3z" clip-path="url(#XMLID_7_)" fill="#362427"/><path id="XMLID_509_" d="M248.4 182.8h-65l-4.8 2.6c.2-17.5 16.9-31.6 37.3-31.4 20.5.2 36.9 14.5 36.7 32l-4.2-3.2z" clip-path="url(#XMLID_7_)" fill="#372427"/><path id="XMLID_508_" d="M248.4 182.8h-65l-4.3 2.6c.2-17.3 16.6-31.1 36.8-30.9 20.2.2 36.4 14.3 36.2 31.6l-3.7-3.3z" clip-path="url(#XMLID_7_)" fill="#382427"/><path id="XMLID_506_" d="M248.4 182.8h-65l-3.8 2.6c.2-17 16.4-30.7 36.3-30.5 19.9.2 35.9 14.1 35.7 31.1l-3.2-3.2z" clip-path="url(#XMLID_7_)" fill="#392427"/><path id="XMLID_504_" d="M248.4 182.8h-65l-3.2 2.6c.1-16.8 16.2-30.2 35.8-30.1 19.6.2 35.4 13.9 35.2 30.7l-2.8-3.2z" clip-path="url(#XMLID_7_)" fill="#3a2427"/><path id="XMLID_503_" d="M248.4 182.8h-65l-2.7 2.6c.1-16.5 15.9-29.8 35.2-29.6 19.3.2 34.9 13.7 34.7 30.3l-2.2-3.3z" clip-path="url(#XMLID_7_)" fill="#3b2428"/><path id="XMLID_502_" d="M248.4 182.8h-65l-2.2 2.6c.1-16.3 15.7-29.4 34.7-29.2 19 .2 34.3 13.5 34.2 29.8l-1.7-3.2z" clip-path="url(#XMLID_7_)" fill="#3c2428"/><path id="XMLID_501_" d="M248.4 182.8h-65l-1.7 2.7c.1-16.1 15.5-28.9 34.2-28.8 18.7.2 33.8 13.3 33.7 29.4l-1.2-3.3z" clip-path="url(#XMLID_7_)" fill="#3d2428"/><path id="XMLID_499_" d="M248.4 182.8h-65l-1.2 2.7c.1-15.8 15.2-28.5 33.7-28.3 18.5.2 33.3 13.1 33.2 28.9l-.7-3.3z" clip-path="url(#XMLID_7_)" fill="#3e2428"/><path id="XMLID_498_" d="M248.4 182.8h-65l-.7 2.7c.1-15.6 15-28.1 33.2-27.9 18.2.2 32.8 12.9 32.7 28.5l-.2-3.3z" clip-path="url(#XMLID_7_)" fill="#3f2428"/><path id="XMLID_497_" d="M248.1 182.8h-64.6l-.2 2.7c.1-15.3 14.8-27.6 32.6-27.5 17.9.2 32.3 12.7 32.2 28v-3.2z" clip-path="url(#XMLID_7_)" fill="#402428"/><path id="XMLID_496_" d="M247.6 182.8h-63.7v2.7c.1-15.1 14.5-27.2 32.1-27 17.6.2 31.8 12.5 31.6 27.6v-3.3z" clip-path="url(#XMLID_7_)" fill="#412428"/><path id="XMLID_495_" d="M247.1 182.8h-62.7v2.7c.1-14.8 14.3-26.7 31.6-26.6 17.3.2 31.3 12.3 31.1 27.1v-3.2z" clip-path="url(#XMLID_7_)" fill="#422428"/><path id="XMLID_494_" d="M246.5 182.8h-61.7v2.7c.1-14.6 14.1-26.3 31.1-26.2 17 .2 30.8 12.1 30.6 26.7v-3.2z" clip-path="url(#XMLID_7_)" fill="#432429"/><path id="XMLID_493_" d="M246 182.8h-60.7v2.7c.1-14.4 13.8-25.9 30.6-25.7s30.2 11.9 30.1 26.3v-3.3z" clip-path="url(#XMLID_7_)" fill="#442429"/><path id="XMLID_492_" d="M245.5 182.8h-59.7v2.7c.1-14.1 13.6-25.4 30.1-25.3 16.5.1 29.7 11.7 29.6 25.8v-3.2z" clip-path="url(#XMLID_7_)" fill="#452429"/><path id="XMLID_485_" d="M245 182.8h-58.6v2.7c.1-13.9 13.3-25 29.5-24.8 16.2.1 29.2 11.5 29.1 25.4v-3.3z" clip-path="url(#XMLID_7_)" fill="#462429"/><path id="XMLID_484_" d="M244.5 182.8h-57.6v2.7c.1-13.6 13.1-24.5 29-24.4 15.9.1 28.7 11.3 28.6 24.9v-3.2z" clip-path="url(#XMLID_7_)" fill="#472429"/><path id="XMLID_483_" d="M244 182.8h-56.6v2.7c.1-13.4 12.9-24.1 28.5-24 15.6.1 28.2 11.1 28.1 24.5v-3.2z" clip-path="url(#XMLID_7_)" fill="#482429"/><path id="XMLID_481_" d="M243.5 182.8h-55.6v2.7c.1-13.1 12.6-23.7 28-23.5 15.3.1 27.7 10.9 27.6 24v-3.2z" clip-path="url(#XMLID_7_)" fill="#492429"/><path id="XMLID_480_" d="M242.9 182.8h-54.6v2.7c.1-12.9 12.4-23.2 27.5-23.1s27.2 10.7 27.1 23.6v-3.2z" clip-path="url(#XMLID_7_)" fill="#4a2429"/><path id="XMLID_479_" d="M242.4 182.8H189v2.7c.1-12.6 12.2-22.8 26.9-22.7 14.8.1 26.7 10.5 26.5 23.1v-3.1z" clip-path="url(#XMLID_7_)" fill="#4b242a"/><path id="XMLID_478_" d="M241.9 182.8h-52.4v2.7c.1-12.4 11.9-22.4 26.4-22.2 14.5.1 26.1 10.3 26 22.7v-3.2z" clip-path="url(#XMLID_7_)" fill="#4c242a"/><path id="XMLID_477_" d="M241.4 182.8H190v2.7c.1-12.2 11.7-21.9 25.9-21.8 14.2.1 25.6 10.1 25.5 22.2v-3.1z" clip-path="url(#XMLID_7_)" fill="#4d242a"/><path id="XMLID_476_" d="M240.9 182.8h-50.4v2.7c.1-11.9 11.5-21.5 25.4-21.4 13.9.1 25.1 9.9 25 21.8v-3.1z" clip-path="url(#XMLID_7_)" fill="#4e242a"/><path id="XMLID_463_" d="M240.4 182.8H191v2.7c.1-11.7 11.2-21 24.9-20.9 13.6.1 24.6 9.7 24.5 21.4v-3.2z" clip-path="url(#XMLID_7_)" fill="#4f242a"/><path id="XMLID_452_" d="M239.9 182.8h-48.4v2.7c.1-11.4 11-20.6 24.4-20.5 13.4.1 24.1 9.5 24 20.9v-3.1z" clip-path="url(#XMLID_7_)" fill="#50242a"/><path id="XMLID_447_" d="M239.3 182.8H192v2.7c.1-11.2 10.8-20.2 23.8-20 13.1.1 23.6 9.3 23.5 20.5v-3.2z" clip-path="url(#XMLID_7_)" fill="#51242a"/><path id="XMLID_446_" d="M238.8 182.8h-46.3v2.7c.1-10.9 10.5-19.7 23.3-19.6 12.8.1 23.1 9.1 23 20v-3.1z" clip-path="url(#XMLID_7_)" fill="#52242a"/><path id="XMLID_440_" d="M238.3 182.8H193v2.8c.1-10.7 10.3-19.3 22.8-19.2 12.5.1 22.6 8.9 22.5 19.6v-3.2z" clip-path="url(#XMLID_7_)" fill="#54232b"/><path id="XMLID_434_" d="M237.8 182.8h-44.2v2.8c.1-10.5 10.1-18.9 22.3-18.7 12.2.1 22 8.7 21.9 19.1v-3.2z" clip-path="url(#XMLID_7_)" fill="#55232b"/><path id="XMLID_433_" d="M237.3 182.8h-43.2v2.8c.1-10.2 9.8-18.4 21.8-18.3 11.9.1 21.5 8.5 21.4 18.7v-3.2z" clip-path="url(#XMLID_7_)" fill="#56232b"/><path id="XMLID_432_" d="M236.8 182.8h-42.1v2.8c.1-10 9.6-18 21.2-17.9 11.6.1 21 8.3 20.9 18.2v-3.1z" clip-path="url(#XMLID_7_)" fill="#57232b"/><path id="XMLID_431_" d="M236.3 182.8h-41.1v2.8c.1-9.7 9.4-17.5 20.7-17.4 11.4.1 20.5 8.1 20.4 17.8v-3.2z" clip-path="url(#XMLID_7_)" fill="#58232b"/><path id="XMLID_429_" d="M235.7 182.8h-40.1v2.8c.1-9.5 9.1-17.1 20.2-17 11.1.1 20 7.9 19.9 17.4v-3.2z" clip-path="url(#XMLID_7_)" fill="#59232b"/><path id="XMLID_428_" d="M235.2 182.8h-39.1v2.8c.1-9.2 8.9-16.7 19.7-16.6 10.8.1 19.5 7.7 19.4 16.9v-3.1z" clip-path="url(#XMLID_7_)" fill="#5a232b"/><path id="XMLID_427_" d="M234.7 182.8h-38.1v2.8c.1-9 8.7-16.2 19.2-16.1 10.5.1 19 7.5 18.9 16.5v-3.2z" clip-path="url(#XMLID_7_)" fill="#5b232b"/><path id="XMLID_426_" d="M234.2 182.8h-37.1v2.8c.1-8.8 8.4-15.8 18.7-15.7 10.2.1 18.5 7.3 18.4 16v-3.1z" clip-path="url(#XMLID_7_)" fill="#5c232c"/><path id="XMLID_425_" d="M233.7 182.8h-36v2.8c.1-8.5 8.2-15.3 18.1-15.3 9.9.1 17.9 7.1 17.9 15.6v-3.1z" clip-path="url(#XMLID_7_)" fill="#5d232c"/><path id="XMLID_424_" d="M233.2 182.8h-35v2.8c.1-8.3 8-14.9 17.6-14.8 9.7.1 17.4 6.9 17.4 15.1v-3.1z" clip-path="url(#XMLID_7_)" fill="#5e232c"/><path id="XMLID_423_" d="M232.7 182.8h-33.9v2.8c.1-8 7.7-14.5 17.1-14.4 9.4.1 16.9 6.7 16.8 14.7v-3.1z" clip-path="url(#XMLID_7_)" fill="#5f232c"/><path id="XMLID_422_" d="M232.1 182.8h-32.9v2.8c.1-7.8 7.5-14 16.6-13.9 9.1.1 16.4 6.5 16.3 14.2v-3.1z" clip-path="url(#XMLID_7_)" fill="#60232c"/><path id="XMLID_421_" d="M231.6 182.8h-31.9v2.8c.1-7.5 7.3-13.6 16.1-13.5 8.8.1 15.9 6.3 15.8 13.8v-3.1z" clip-path="url(#XMLID_7_)" fill="#61232c"/><path id="XMLID_420_" d="M231.1 182.8h-30.8v2.8c.1-7.3 7-13.2 15.5-13.1 8.5.1 15.4 6.1 15.3 13.3v-3z" clip-path="url(#XMLID_7_)" fill="#62232c"/><path id="XMLID_419_" d="M230.6 182.8h-29.8v2.8c.1-7.1 6.8-12.7 15-12.6 8.2.1 14.9 5.9 14.8 12.9v-3.1z" clip-path="url(#XMLID_7_)" fill="#63232c"/><path id="XMLID_418_" d="M230.1 182.8h-28.8v2.8c.1-6.8 6.6-12.3 14.5-12.2 8 .1 14.4 5.6 14.3 12.5v-3.1z" clip-path="url(#XMLID_7_)" fill="#64232d"/><path id="XMLID_417_" d="M229.6 182.8h-27.8v2.8c.1-6.6 6.3-11.8 14-11.8 7.7.1 13.8 5.4 13.8 12v-3z" clip-path="url(#XMLID_7_)" fill="#65232d"/><path id="XMLID_416_" d="M229.1 182.8h-26.8v2.8c.1-6.3 6.1-11.4 13.5-11.3 7.4.1 13.3 5.2 13.3 11.6v-3.1z" clip-path="url(#XMLID_7_)" fill="#66232d"/><path id="XMLID_415_" d="M228.5 182.8h-25.8v2.8c.1-6.1 5.9-11 13-10.9 7.1.1 12.8 5 12.8 11.1v-3z" clip-path="url(#XMLID_7_)" fill="#67232d"/><path id="XMLID_414_" d="M228 182.8h-24.6v2.8c.1-5.8 5.6-10.5 12.4-10.5 6.8.1 12.3 4.8 12.2 10.7v-3z" clip-path="url(#XMLID_7_)" fill="#68232d"/><path id="XMLID_413_" d="M227.5 182.8h-23.6v2.8c0-5.6 5.4-10.1 11.9-10 6.5.1 11.8 4.6 11.7 10.2v-3z" clip-path="url(#XMLID_7_)" fill="#69232d"/><path id="XMLID_412_" d="M227 182.8h-22.6v2.9c0-5.4 5.2-9.6 11.4-9.6 6.2.1 11.3 4.4 11.2 9.8v-3.1z" clip-path="url(#XMLID_7_)" fill="#6a232d"/><path id="XMLID_411_" d="M226.5 182.8h-21.6v2.9c0-5.1 4.9-9.2 10.9-9.2s10.8 4.2 10.7 9.3v-3z" clip-path="url(#XMLID_7_)" fill="#6b232d"/><path id="XMLID_410_" d="M226 182.8h-20.6v2.9c0-4.9 4.7-8.8 10.4-8.7 5.7.1 10.3 4 10.2 8.9v-3.1z" clip-path="url(#XMLID_7_)" fill="#6c232e"/><path id="XMLID_409_" d="M225.5 182.8H206v2.9c0-4.6 4.4-8.3 9.8-8.3s9.7 3.8 9.7 8.5v-3.1z" clip-path="url(#XMLID_7_)" fill="#6d232e"/><path id="XMLID_408_" d="M224.9 182.8h-18.5v2.9c0-4.4 4.2-7.9 9.3-7.8 5.1 0 9.2 3.6 9.2 8v-3.1z" clip-path="url(#XMLID_7_)" fill="#6e232e"/><path id="XMLID_407_" d="M224.4 182.8h-17.5v2.9c0-4.1 4-7.5 8.8-7.4 4.8 0 8.7 3.4 8.7 7.6v-3.1z" clip-path="url(#XMLID_7_)" fill="#6f232e"/><path id="XMLID_406_" d="M223.9 182.8h-16.5v2.9c0-3.9 3.7-7 8.3-7 4.5 0 8.2 3.2 8.2 7.1v-3z" clip-path="url(#XMLID_7_)" fill="#70232e"/><path id="XMLID_405_" d="M223.4 182.8H208v2.9c0-3.6 3.5-6.6 7.8-6.5 4.3 0 7.7 3 7.7 6.7v-3.1z" clip-path="url(#XMLID_7_)" fill="#71222e"/><path id="XMLID_404_" d="M222.9 182.8h-14.4v2.9c0-3.4 3.3-6.1 7.3-6.1s7.2 2.8 7.1 6.2v-3z" clip-path="url(#XMLID_7_)" fill="#72222e"/><path id="XMLID_403_" d="M222.4 182.8H209v2.9c0-3.2 3-5.7 6.7-5.7s6.7 2.6 6.6 5.8v-3z" clip-path="url(#XMLID_7_)" fill="#73222e"/><path id="XMLID_402_" d="M221.9 182.8h-12.3v2.9c0-2.9 2.8-5.3 6.2-5.2 3.4 0 6.2 2.4 6.1 5.3v-3z" clip-path="url(#XMLID_7_)" fill="#74222f"/><path id="XMLID_401_" d="M221.3 182.8H210v2.9c0-2.7 2.6-4.8 5.7-4.8s5.6 2.2 5.6 4.9v-3z" clip-path="url(#XMLID_7_)" fill="#75222f"/><path id="XMLID_400_" d="M220.8 182.8h-10.3v2.9c0-2.4 2.3-4.4 5.2-4.4 2.8 0 5.1 2 5.1 4.4v-2.9z" clip-path="url(#XMLID_7_)" fill="#76222f"/><path id="XMLID_399_" d="M220.3 182.8H211v2.9c0-2.2 2.1-3.9 4.7-3.9s4.6 1.8 4.6 4v-3z" clip-path="url(#XMLID_7_)" fill="#77222f"/><path id="XMLID_398_" d="M219.8 182.8h-8.2v2.9c0-1.9 1.9-3.5 4.1-3.5 2.3 0 4.1 1.6 4.1 3.6v-3z" clip-path="url(#XMLID_7_)" fill="#78222f"/><path id="XMLID_397_" d="M219.3 182.8h-7.2v2.9c0-1.7 1.6-3.1 3.6-3.1s3.6 1.4 3.6 3.1v-2.9z" clip-path="url(#XMLID_7_)" fill="#79222f"/><path id="XMLID_396_" d="M218.8 182.8h-3.1 3.1z" clip-path="url(#XMLID_7_)" fill="#7a222f"/><path id="XMLID_395_" d="M218.3 182.8h-2.6 2.6z" clip-path="url(#XMLID_7_)" fill="#7b222f"/><path id="XMLID_394_" d="M217.7 182.8h-2.1 2.1z" clip-path="url(#XMLID_7_)" fill="#7c2230"/><path id="XMLID_393_" d="M217.2 182.8h-1.6 1.6z" clip-path="url(#XMLID_7_)" fill="#7d2230"/><path id="XMLID_392_" d="M216.7 182.8h-1 1z" clip-path="url(#XMLID_7_)" fill="#7e2230"/><path id="XMLID_391_" d="M216.2 182.8h-.5.5z" clip-path="url(#XMLID_7_)" fill="#7f2230"/></g></g><path id="XMLID_386_" class="st158" d="M219.9 162.8c-12.4.2-19.6-1-23.9-2.3-2.4 6.5 7.7 10.2 20.3 10.3 13.4.1 24.1-3.3 22.1-9.7-3.5.9-9.3 1.6-18.5 1.7z"/><path id="XMLID_381_" d="M219.9 162.8c-12.4.2-19.6-1-23.9-2.3-.9 2.5.1 4.6 2.3 6.3 11.4-4.1 24.5-3.8 35.2 1.4 3.8-1.6 5.8-4 4.9-7.1-3.5.9-9.3 1.6-18.5 1.7z" opacity=".28" fill="#d6c0ba"/><path id="XMLID_380_" class="st160" d="M210.2 134.4s-9.6-6.8-13.2 4.5c5.1 1.2 10.5 2.1 15.8 2.4 3.2-7.6 4.2-15.8 4.5-24.8-.7-.2-1.4-.4-2.2-.6.2 5.5-.5 12.6-4.9 18.5z"/><path id="XMLID_379_" class="st161" d="M226.5 23.7c-70 4.6-59.9 82.3-59.9 82.3 4.2-23.1 18.6-51.7 29.6-52.3 0 0 9.6 7.8 23.9 8.1 12.8.3 30.6-9.1 30.6-9.1 12.8-.3 27.4 39.3 29.1 71.2.4 7.3 6.7-1.1 6.7-1.1s8.6-103.7-60-99.1z"/><path id="XMLID_378_" class="st161" d="M263.1 29.7C242.4-1.9 174.9 7.3 174.9 7.3c-6.5 35.9 18.5 43.9 18.5 43.9s58.4-10.4 67.3-4.2 26.1 56.4 26.1 56.4 14.9-52.3 3.9-71.6c-8.1-14.1-27.6-2.1-27.6-2.1z"/><path id="XMLID_371_" class="st161" d="M201 0c.2 4.7 4.3 9.6 4.3 9.6s70.8 48.1 57.7 20.1S201 0 201 0z"/><path id="XMLID_368_" class="st161" d="M274.6 20.1c-4 .6-4.9 2.5-4.9 2.5 2.9-5.2.9-12.4.9-12.4-7.8 4.5-7 10.7-7 10.7-3.8-8-15.5-10.5-15.5-10.5.4 6.6 7.4 13.3 7.8 13.5l6.1 9.3 12.6-2-1.2-5.6c1.9-2.9 1.2-5.5 1.2-5.5z"/><path id="XMLID_367_" class="st162" d="M176.8 34.6c-20.6 6.3-14.6 88.2-14.6 88.2 4.2-23.1 23.1-68.6 34.1-69.2 0 .1-10.3-6-19.5-19z"/><path id="XMLID_365_" class="st22" d="M256.9 29.1s.1 0 0 0z"/><path id="XMLID_363_" d="M282.8 25.5c-2.5.4-5.2 1-7.9 1.7-6.5 1.5-13.4 2.5-20.2 1.6-7.8-1-14.6-4.5-21.6-8-3.5-1.8-7-3.6-10.6-5.1-7.7-3.3-16.8-6.6-25.3-6.3-4.2.1-8.3 1.4-12.2 3-3.6 1.5-6.5 3.6-8.7 5.8-.9.9-1.7 1.9-2.4 2.8.1 2.8.5 5.4 1 7.7.3-.2.5-.4.8-.7 1.4-1 3.2-2.1 5.2-3 2.1-.8 4.4-1.6 7-1.8 10.1-.8 19.5 3.3 28.7 7.1 3.7 1.5 7.5 3.3 11.6 5 4 1.7 8.2 3.3 12.6 4.7 7.4 2.2 16.4 2.9 23.9.8 1-.3 2-.5 3-.8 3.9-1.2 7.3-2.8 10.2-4.3 2.9-1.5 5.4-2.9 7.6-3.9 1.5-.7 2.9-1.3 4.1-1.7-1.9-2.5-4.3-3.9-6.8-4.6z" opacity=".11" fill="#e5912f"/><path id="XMLID_362_" class="st22" d="M256.7 29.1s.1 0 0 0z"/><path id="XMLID_361_" class="st161" d="M279.9 122.8c-3.3 35.2-30 35.2-30 35.2s6 28.3-32.4 27.9c-39.7-.4-34.4-28.2-34.4-28.2-21.5-2.5-20.9-35-20.9-35-8.5 34.4-13.3 89.4 59 88.2 72.4-1.2 62.6-55.5 62.6-55.5-3.5-12.2 2.9-32.7 2.9-32.7l-6.8.1z"/><path id="XMLID_359_" class="st161" d="M212.6 146.8s-9.3-1.3-23.3 2.9c-13.3 4-18.5 1.6-18.5 1.6s3.3 10.5 44.6 11.5c35.1.8 46.5-6.4 46.5-6.4s-16.4-10.2-49.3-9.6z"/><path id="XMLID_358_" class="st161" d="M212.6 146.8s-9.3-1.3-23.3 2.9c-13.3 4-18.5 1.6-18.5 1.6s3.3 10.5 44.6 11.5c35.1.8 46.5-6.4 46.5-6.4s-16.4-10.2-49.3-9.6z"/><path id="XMLID_357_" d="M220.8 190.9c-3.6.2-6.6 0-8.8-.4-5-.8-7.5 6-3 8.3 1.6.8 4 1.4 7.4 1.4 2.4 0 4.3-.2 5.8-.6 5.2-1.2 3.9-9.1-1.4-8.7z" opacity=".16"/><path id="XMLID_356_" class="st165" d="M174.9 99.6s-3.7 18.4-3.3 21.8c.3 3.4 29.3 5.2 29.3 5.2s10.9-27.2 8.2-43.5c0 0-27.6 4.5-34.2 16.5z"/><path id="XMLID_355_" class="st165" d="M237.5 78s-10.6 26.5-3.3 47.3l32.3 1.5s5.7-18.2 3.8-26.7c-1.8-8.4-32.8-22.1-32.8-22.1z"/><path id="XMLID_351_" class="st158" d="M253 112.9c-13.8-1.2-18.8 12.5-18.8 12.5s1.9 8.5 16.4 8.5c15.1 0 15.9-7.6 15.9-7.6s.4-12.2-13.5-13.4z"/><path id="XMLID_350_" class="st158" d="M171.6 121.4s-2.2 8.5 12.9 9.3c15.1.8 16.5-4 16.5-4s-1-6-4.4-9.7c-5.6-6.3-15.7-9.9-25 4.4z"/><linearGradient id="XMLID_8_" gradientUnits="userSpaceOnUse" x1="186.043" y1="132.918" x2="193.029" y2="114.289"><stop offset="0" stop-color="#5c3333"/><stop offset="1"/></linearGradient><path id="XMLID_349_" d="M191.7 116.6c-3.1-1.1-7 2.2-8.7 7.3-.8 2.3-.9 4.6-.5 6.6.6.1 1.3.1 2 .2 3.7.2 6.5.1 8.8-.3.5-.8.9-1.7 1.2-2.6 1.6-5.1.3-10.1-2.8-11.2z" fill="url(#XMLID_8_)"/><path id="XMLID_347_" class="st167" d="M181.1 125.3l.5 2.2s9-.7 8.1-4.8c-.9-4.2-8.6 2.6-8.6 2.6z"/><linearGradient id="XMLID_9_" gradientUnits="userSpaceOnUse" x1="245.821" y1="136.963" x2="252.494" y2="116.737"><stop offset="0" stop-color="#5c3333"/><stop offset="1"/></linearGradient><path id="XMLID_346_" d="M252.1 117.5c-3.1-1.1-6.9 2.2-8.5 7.3-1 3.1-.9 6.1 0 8.3 1.9.5 4.2.8 7 .8h1.2c1.2-1.3 2.3-3.1 3-5.2 1.6-5.1.4-10.1-2.7-11.2z" fill="url(#XMLID_9_)"/><path id="XMLID_345_" class="st167" d="M241.9 127.5l-.2 2.3s9.4-.4 8.5-4.5c-.9-4.1-8.3 2.2-8.3 2.2z"/><path id="XMLID_344_" class="st23" d="M187.5 108.7c-13.9-1.4-15.9 12.7-15.9 12.7s3.5-7.9 13.8-8.1c10.3-.3 15.5 13.4 15.5 13.4s2.2-16.5-13.4-18z"/><path id="XMLID_343_" class="st162" d="M174.9 99.6c10.5-6.3 27.1-2.1 33-8.3 2.3-2.4.8-11.9.8-11.9-30.7 4.8-33.8 20.2-33.8 20.2z"/><path id="XMLID_342_" class="st162" d="M237.5 78s-3.7 7.5-2.1 10.1c4.9 7.9 26.5 5.5 35 12.1-.1 0 2.2-13.2-32.9-22.2z"/><path id="XMLID_341_" class="st23" d="M251.2 109.5c-15.5-.4-17 15.9-17 15.9s4.3-10.6 18-9.6 14.3 10.5 14.3 10.5.2-16.4-15.3-16.8z"/><path id="XMLID_340_" class="st2" d="M209.6 133.9s-10-7.5-13.6 5.5c-3.6 13 21.9 20.8 28.9 7.2 7-13.6-11.1-38.9-11.1-38.9s3.5 15.6-4.2 26.2z"/><path id="XMLID_339_" class="st160" d="M209.6 133.9s-9.7-7-13.3 4.7c5.2 1.3 10.6 2.2 15.9 2.5 3.2-7.8 4.2-16.2 4.6-25.4-.7-.2-1.4-.4-2.2-.6.2 5.5-.5 12.7-5 18.8z"/><path id="XMLID_338_" class="st15" d="M195.8 143.1c1.5 10.7 22.8 15.8 29.2 3.6.4-.7.7-1.5.9-2.3-10.1 2.1-20.5 1.4-30.1-1.3z"/><path id="XMLID_231_" class="st3" d="M82.6 139.5c2.2 7.8-8.1 30.3-17.9 29.2-9.9-1.1-13.7 3.7-23.2 6.2-9.4 2.5-26.6-12.4-26.9-12.6 4.1 15.4 16.5 18.3 19 23.5 1.8 16.3-19.3 74.5-25.3 106.2C4.8 310.2.2 348.1 23 357.2c10.1 4 22.4-2.2 30.2-9.4 7.8-7.2 10.6-17.8 12-27.9 2.1-15.3-.2-30.4.1-45.9.3-18.5.6-39.3.5-57.8 0-1.6 1.2-30.4 2.5-38.6.9-2.5 2.4-5 4-7 2.9-3.7 6.2-7.1 8.6-11.3.3-.5.5-1 .8-1.5 2.8-6 2.8-12.4.9-18.3zm-30.8 65.4c-2.9 25.5 1.3 65.8-2.3 99.2-3.7 33.3-36 24-37.2-2.8-1.2-26.8 18-74 22.2-93.2 3-14 19-17.9 17.3-3.2z"/></svg>