<svg version="1.1" id="Layer_55" xmlns="http://www.w3.org/2000/svg" x="0" y="0" viewBox="0 0 999.4 794.6" xml:space="preserve"><style>.st0{fill:#18a2f7}.st1{fill:#d0ccc8}.st2{fill:#f6bd96}.st4{fill:#576fd2}.st10{fill:#4c4c75}.st11{fill:#39395c}.st12{fill:#7e8ee8}.st16{fill:none;stroke:#808184;stroke-width:1.4694;stroke-miterlimit:10}.st24{fill:#808184}.st25{fill:#ffa82f}.st27{fill:#fa9e9e}.st28{fill:#00b580}</style><path class="st0" d="M100.6 315v8.1c0 14.9 12.1 26.9 26.9 26.9 14.9 0 26.9-12.1 26.9-26.9V315h-53.8z"/><path class="st0" d="M86.2 344.1c9.3 5.1 24.3 8.4 41.3 8.4s32-3.3 41.3-8.4H86.2zm53.4-.4l-.2-2.9c.1 0 14.6-1 19-7.2 1.9-2.6 2.1-5.6.6-8.1-3.1-5.3-13.3-3.4-15.3-3l-.6-2.9c3.3-.7 14.4-2.5 18.4 4.3 2 3.4 1.7 7.7-.8 11.3-5.2 7.4-20.5 8.5-21.1 8.5z"/><path class="st1" d="M131.2 254.5c1.3.7 2.5 1.6 3.5 2.7s1.9 2.4 2.5 3.9c.6 1.5.8 3.2.6 4.9-.2 1.7-.9 3.5-2.2 4.7-1.2 1.2-2.7 1.9-4 2.5-1.4.6-2.7 1-3.9 1.7-1.2.6-2.2 1.5-2.9 2.5-.6 1.1-.7 2.3-.5 3.5.2 1.2.8 2.2 1.5 3.1.7.9 1.6 1.9 2.5 2.8 1 .9 2 1.9 3 2.9s2 2.2 2.8 3.7c.8 1.5 1.3 3.2 1.4 4.9 0 1.7-.3 3.3-.9 4.8-1.2 2.9-3 5.2-5 7.2l-.4-.2c.8-2.8 1.7-5.4 2-7.9.2-1.2.2-2.4 0-3.5s-.6-2-1.2-3c-1.2-1.9-3-3.9-4.9-6.2-.9-1.1-1.8-2.4-2.5-3.9s-1-3.2-.8-4.8c.2-1.6.7-3.2 1.7-4.4 1-1.2 2.2-2.1 3.4-2.9 2.3-1.6 4.7-3.4 5.8-5.3.6-.9.9-1.8 1.1-2.9.2-1.1.2-2.2 0-3.4-.2-1.2-.6-2.3-1.2-3.6-.5-1.2-1.2-2.4-1.9-3.7l.5-.1z"/><path class="st2" d="M553.2 269c-25.9 32.4-53.3 60.4-92.2 74.8 49.5 9 103.2-11.3 134.4-50.8l-42.2-24z"/><path d="M598 176.8c2.5 3-14.7 41.7-17.2 47.3-3.3 7.4-7.2 14.3-11.8 20.9-3.7 5.4-14.2 13.1-15.7 18.8-.6 2.4.6 5 2.3 6.9 1.7 1.8 4 3.1 6 4.6 5 3.7 8.7 9.1 10.6 15 1 3.2 1.7 6.9 4.6 8.5 2.7 1.5 6.2.3 8.4-1.9 20.7-21.3 39.7-47.4 50.7-75.5.1-.1-37.8-44.6-37.9-44.6z" fill="#667cd7"/><path class="st4" d="M544.4 277.1c16.8 3.9 31.3 16.5 37.5 32.6 7.1.3 14-4.3 17.3-10.7 3.3-6.4 3.2-14.1.9-20.9-2.4-6.7-6.9-12.6-12.1-17.4-7.2-6.7-17.7-12.7-27.9-11.4-9.8 1.2-12.5 19.5-15.7 27.8z"/><path fill="none" stroke="#6d6e71" stroke-width="11.942" stroke-linejoin="round" stroke-miterlimit="10" d="M647 462.3v257.1"/><path d="M498.7 404.1l-81.1 23.4 222 65s199.1-6.3 208-277.6l-180.3-40.1s-6.6 142.1-42.8 178.8c-36.1 36.5-125.8 50.5-125.8 50.5z" fill="#fff"/><path d="M483.4 401.6L402.3 425l222 65s199.1-6.3 208-277.6L652 172.3s-6.6 142.1-42.8 178.8c-36.1 36.6-125.8 50.5-125.8 50.5z" fill="#4c4c4c"/><path d="M668.7 573.9c1.4 4.6 5.2 8.7 9.9 8.6 3.4-.1 5.8-10.1 6.8-12.4 1.9-4.6 2.9-9.3 4.5-14 2.1-6.2 2.7-13.4 3.9-19.9 1.5-8.5 3.2-17 4.2-25.5.8-6.2 1.1-13.2-2.7-18.2-4.2-5.5-11.9-6.8-18.8-7.6-6.9-.8-14.6-2.1-18.7-7.7l-9.9 22.2c-.4 1-.9 2-.9 3.1.2 5.3 23.2 15.3 21.8 54.9-.2 5.1-1.4 10.3-.4 15.3l.3 1.2zM381.1 747.3c-4 2.6-6.9 7.4-5.4 11.9 1 3.2 89.9 2.8 92.6 1.2 4.9-2.9 3-7.3 2.4-11.7-.8-6.2-2.1-12.4-2.6-18.6-.1-2.1-1.2-21.1 2.8-20.6-8-1.1-16.1-2.1-24.1-3.2-1.1-.1-2.2-.3-3.3.1-5 1.7-8.1 26.5-46.6 36.4-5 1.3-10.2 1.6-14.8 4-.3 0-.6.3-1 .5z" fill="#1d5dc4"/><path d="M674.4 400.2C647 421 612 430.7 577.6 431c-34.5.3-68.6-8.2-100.6-20.9-29.5-11.7-48.2-13.2-77.1-26.4-5.7-2.6-9.5-18.6-1.5-29 4.9-6.4 2-12.7 9.6-13.4 58.8-5.5 117.3 2.9 173.8 19.7 32.2 9.5 63.4 22.7 92.6 39.2z" fill="#2c2c4c"/><path class="st10" d="M580.8 506.7c15.8-6.6 31.6-13 47.4-19.7 14-6 29.3-9.4 43.3-16 12.9-6.1 25-14.8 33.2-26.5 5.3-7.7 8.9-17.2 6.7-26.3-7.4-31.6-63.3-29.2-87-25.6C559 402.6 477.9 456 452.7 519c-12.6 31.5-24.6 142.5-24.6 201.5 14.5 1.7 29.1 3.4 43.6 5.1L514 565.4c2.6-9.9 5.4-20.1 11.6-28.2 8.3-10.9 21.5-16.6 34.1-21.8 7.1-2.9 14.1-5.8 21.1-8.7z"/><path class="st11" d="M664.1 470.4c-19.1 5.8-38.8 8.8-58.3 12.5-26.7 5-55.8 10.6-77 28.9-11.3 9.7-18.5 22.9-24.4 36.3-6.4 14.6-11.1 29.9-15 45.3-3.8 15-6.9 30.2-9.9 45.5-3.5 17.6-7.8 35.1-12 52.6-2.6 10.9-5.2 21.9-7.7 32.8 4 .5 7.9.9 11.9 1.4L514 565.5c2.6-9.9 5.4-20.1 11.6-28.2 8.3-10.9 21.5-16.6 34.1-21.8 7-2.9 14.1-5.8 21.1-8.8 15.8-6.6 31.6-13 47.4-19.7 14-6 29.3-9.4 43.3-16 6.1-2.9 12-6.3 17.4-10.4-8 4.1-16.3 7.3-24.8 9.8z"/><path class="st12" d="M751.2 161.4c-11.3-9.8-24.2-17.3-37.5-23.9-12.3-6.1-25.6-12.6-39.7-12.3-8.9.2-17.8 1.8-26.2 4.8-22.1 7.8-40.6 25.2-49.8 46.8-5.7 13.3-9.6 30.6-9.1 45 .6 16.5 4.2 32.3 3.6 49-.7 16.7-3.2 33.3-7.6 49.4-2.1 7.6-4.1 18.2-8.1 25.1-3.8 6.5-5.6 10.1-.9 17.3 3.6 5.6 9.5 9.3 15.1 12.9 13.6 8.6 27.4 17.2 42.4 23.2 7.6 3.1 15.3 4.8 23.3 6.5 8 1.7 15.9 5.3 23.6 8.1 9.7 3.5 20.5 7 30 3.1 9.2-3.7 14.5-13.1 18.8-22 19.3-39.7 30.7-82.4 43.4-124.6 11.3-37.5 10.4-80.9-21.3-108.4z"/><path d="M663 147.7l5.5 3.4c.3-1.1.5-2.2.8-3.4H663z" fill="#a6a8ab"/><path class="st2" d="M685.4 156.8c13.7-.2 24.6-11.4 24.4-25.1l-1.3-93.1-49.5.7 1.3 93.1c.2 13.6 11.4 24.6 25.1 24.4z"/><path d="M704.3 85.8l4.2-47.2-49.5.7 1.3 93.1c.1 4.3 1.3 8.2 3.2 11.6 26.8-8.7 35.4-32.7 40.8-58.2z" fill="#e7a579"/><path class="st2" d="M663 136.9c-55.1 20-68.2-107.7-12.2-129.5C736.9-26.1 734 111.2 663 136.9z"/><path d="M706.3 89.8c.2 4 1.3 8 3.1 11.5-.8-1.3 5.3-11.7 6-13.3 5.4-12.7 10.8-25.8 11.3-39.7.2-4.7-.3-9.5-1.6-14-13.4-46.8-79.5-38.9-110.7-16.9-2.8 2-5.6 4.2-7.2 7.2-2.8 5.1-1.7 11.7 1.8 16.3 7.3 9.8 25 14.2 36.7 14.2 13.5 0 27-5.1 36.5-14.8-2.4 14.6 6.1 30.2 19.7 36 1.4-2.6 3.8-2.4 6.1-.5-2.4 4.7-2 8.9-1.7 14z" fill="#091a4c"/><path class="st16" d="M628.8 88.1c-.7 5.4-6.4 9.2-12.6 8.3-6.2-.8-10.7-5.9-10-11.4.7-5.4 6.4-9.2 12.6-8.3 6.2.9 10.7 6 10 11.4z"/><ellipse transform="rotate(-82.397 648.372 90.716)" class="st16" cx="648.4" cy="90.7" rx="9.9" ry="11.4"/><path d="M659.9 90.7l40.8-14.3M629 86.5s4.3-1.6 8.3 1.1" stroke-width="1.574" fill="none" stroke="#808184" stroke-miterlimit="10"/><path class="st2" d="M700.7 76.4c.9-1.3 2.1-2.5 3.7-2.9 1.5-.4 3.4 0 4.3 1.4 1 1.5.5 3.5-.2 5.2-1.8 4.1-4.8 7.5-7.7 10.8l-.1-14.5z"/><path d="M631 88.5c.5 6.2.9 12.9-2.4 18.2-.6.9-1.3 2-1 3 .2.9 1.2 1.5 2 1.8 1.3.6 2.8 1 4.2 1.3" fill="none" stroke="#e7a579" stroke-width="1.706" stroke-linecap="round" stroke-miterlimit="10"/><path d="M629.9 118.8c3.5 1.3 7.2 1.8 10.9 1.6" fill="none" stroke="#d79468" stroke-width="1.706" stroke-linecap="round" stroke-miterlimit="10"/><path class="st10" d="M493.9 363.9c-34.7-14.5-82.4-36-118.6-12.2-11.6 7.6-20.8 20.5-21.3 34.7-.6 15.3 9 29.5 21.2 38.2 12.2 8.7 26.8 12.9 41.2 17 37.3 10.6 74.7 21.2 112 31.8 21.9 6.2 43.8 13.7 65.9 19.2 17 4.2 61.2 20.9 61.2 20.9s12.7-19.3 17.3-36.3c-50.6-51.6-113-85.7-178.9-113.3z"/><path class="st11" d="M544.3 388.6c15.2 9.3 30 19.3 44.1 30.1 6.6 5.1 12.8 10.5 19.4 15.6 6 4.7 12.2 9.1 18.4 13.3 15.3 10.5 31.5 20.8 45.3 33.5.5-1.4.9-2.8 1.3-4.1-41.9-42.6-91.9-73.4-145.3-98.3 5.6 3.3 11.3 6.5 16.8 9.9zm94.1 117.9c-18.2-6.8-36.9-12.2-55.2-18.7-32.2-11.4-62.7-26.6-93.8-40.5-18.4-8.3-37.8-14.3-56.5-22-18.3-7.6-37.2-16.5-51.4-30.7-6.3-6.3-11.5-13.7-14.6-22.1-1.3-3.6-2-7.3-2.5-11.1-6 7-10.1 15.7-10.4 25-.6 15.3 9 29.5 21.2 38.2 12.2 8.7 26.8 12.9 41.2 17 37.3 10.6 74.7 21.2 112 31.8 21.9 6.2 43.8 13.7 65.9 19.2 17 4.2 61.2 20.9 61.2 20.9s.1-.1.1-.2c-5.7-2.4-11.4-4.7-17.2-6.8z"/><path class="st2" d="M703.2 292c-2.2 1.1-4.2 3.1-6 6.5-8.8 16.6-26 28-42.1 37.8-9 5.5-18.4 10.3-28.1 14.4-5.5 2.3-20.9 11-26.7 9.3 31 8.7 55.9 1.2 85.4-7.3 23.7-6.9 44.5-18.1 58.8-39.4 3.7-5.4-18-15.5-21.1-16.9-7.6-3.7-14.5-7.2-20.2-4.4z"/><path class="st12" d="M766.7 206.6c-1.1-6-3.2-11.6-6.8-16.6-9.4-13-24.3-10.9-32.7 1.6-3.1 4.6-4.9 9.9-6.5 15.2-6.1 20.2-7.9 40.7-11.9 61.2-1.5 7.6-3.2 15.6-6.6 22.5 16.1.4 32.9 9.6 42.3 22.9 3.6-5.4 6.7-11 9.2-16.7 7.6-17.6 11-36.6 12.8-55.6 1-10.8 2.3-23.2.2-34.5z"/><path d="M722.1 227.7c1.7-9.8 2.9-19.7 5.8-29.3 1.5-4.8 3.4-9.7 6.2-13.9-2.6 1.7-4.9 4.1-6.9 7.1-3.1 4.6-4.9 9.9-6.5 15.2-6.1 20.2-7.9 40.7-11.9 61.2-1.5 7.6-3.2 15.6-6.6 22.5 4.2.1 8.4.8 12.5 2 4-21.5 3.6-43.4 7.4-64.8z" fill="#a5b4f6"/><path class="st4" d="M751.9 300.2l1.8-3.6c7.1-16.5 10.6-34.2 12.4-52-1.3 3.6-2.8 7.2-4.4 10.6-3.6 8-13.2 33.2-15.4 36.3 3.8 3.6 3.1 4.2 5.6 8.7zm-59.6.8c16.8 3.9 31.3 16.5 37.5 32.6 7.1.3 14-4.3 17.3-10.7 3.3-6.4 3.2-14.1.9-20.9-2.4-6.7-6.9-12.6-12.1-17.4-7.2-6.7-17.7-12.7-27.9-11.4-9.8 1.3-12.5 19.5-15.7 27.8z"/><path fill="#6d6e71" d="M647 713.7l-113 21.1h226z"/><path class="st2" d="M598.3 343c-11 .8-21.7 5.2-29.9 12.6 19.4 3.3 39.5 6.6 58.6 1.7 11.4-2.9 1.1-7.5-3.7-9.5-8-3.5-16.2-5.4-25-4.8z"/><g fill="none" stroke-miterlimit="10"><path d="M772 793.1l109-424.7m112.4 424.7L884.5 368.4M5.9 793.1l109-424.7m112.4 424.7L118.4 368.4" stroke="#d0ccc8" stroke-width="12.275" stroke-linejoin="round"/><path stroke="#000" stroke-width="29.854" d="M50.6 367.9h902.5"/></g><path class="st24" d="M220.6 221.3l-.9 2.6 1.7-.1z"/><path class="st25" d="M223.5 230.1l-2.1-6.3-1.7.1-2.1 6.4 5.9-.1z"/><path class="st24" d="M217.6 230.3l1.9 80 6-.2-2-79.9z"/><path d="M246 248.4l-10.2 60.2c-.4 2.4 1.2 4.8 3.7 5.2.3 0 .5.1.8.1 2.1 0 4-1.5 4.4-3.7l10.2-60-8.9-1.8z" fill="#20a7f7"/><path class="st27" d="M256.5 239.9c.4-2.4-1.2-4.8-3.7-5.2-2.4-.4-4.7 1.2-5.2 3.7l-.7 4.1 8.8 1.6.8-4.2z"/><path class="st1" d="M247 242.5l-1 5.9 8.8 1.6 1-5.9z"/><path class="st28" d="M199 250.4l6.9 56.3c.3 2.3 2.4 3.9 4.6 3.6.2 0 .5-.1.7-.1 1.9-.6 3.2-2.4 2.9-4.5l-6.9-56.2-8.2.9z"/><path class="st27" d="M206.1 240c-.3-2.3-2.4-3.9-4.6-3.6-2.3.3-3.9 2.3-3.6 4.6l.5 3.8 8.3-.9-.6-3.9z"/><path class="st1" d="M198.3 244.9l.7 5.5 8.3-.9-.7-5.5z"/><path fill="none" stroke="#ff7e19" stroke-width="5.971" stroke-miterlimit="10" d="M208.9 252.9l9.3 40.3"/><path class="st28" d="M228 236.6l-.7 2.6 1.7-.1z"/><path class="st25" d="M231.4 245.3l-2.4-6.2-1.7.1-1.8 6.5v.1l5.9-.5z"/><path fill="#1a1a3a" d="M225.5 245.8l6 79.7 5.9-.4-6-79.8z"/><path class="st0" d="M185.9 237.4l-.3 2.8 1.8-.4z"/><path class="st25" d="M191 245.8l-3.6-6-1.8.4-.8 7.1v.1l6.2-1.5z"/><path class="st0" d="M184.8 247.4l19.9 82.4 6.2-1.5-19.9-82.4z"/><path class="st25" d="M239 228.7l-1 2.5 1.7.1z"/><path fill="#d0d2d3" d="M241.5 237.7l-1.8-6.4-1.7-.1-2.5 6.3v.1l6 .1z"/><path class="st25" d="M235.5 237.6l-2.5 79.9 6 .2 2.5-80z"/><path d="M238.8 353.4h-34.3l-11.9-66.5h58.1z"/><path fill="#bbbdbf" d="M550.7 353.6H323.1l-31.5-150h227.6z"/></svg>