<?xml version="1.0" encoding="utf-8"?>
<!-- Generator: Adobe Illustrator 23.0.1, SVG Export Plug-In . SVG Version: 6.00 Build 0)  -->
<svg version="1.1" id="Ñëîé_1" xmlns="http://www.w3.org/2000/svg" xmlns:xlink="http://www.w3.org/1999/xlink" x="0px" y="0px"
	 viewBox="0 0 451.6 1048.9" style="enable-background:new 0 0 451.6 1048.9;" xml:space="preserve">
<style type="text/css">
	.st0{fill:#6D7DB3;}
	.st1{fill:#B6BDCE;}
	.st2{fill:#F89478;}
	.st3{opacity:0.6;fill:#F48469;}
	.st4{fill:#EB7D66;}
	.st5{fill:#959CAF;}
	.st6{opacity:7.000000e-02;}
	.st7{fill:#5C646B;}
	.st8{fill:#6B737C;}
	.st9{fill:#313747;}
	.st10{fill:#3A4151;}
	.st11{opacity:7.000000e-02;fill:#FFFFFF;}
	.st12{fill:#495259;}
	.st13{opacity:9.000000e-02;}
	.st14{opacity:0.11;}
	.st15{fill:#F18169;}
	.st16{fill:#6C332E;}
	.st17{fill:#3D4041;}
	.st18{fill:#DFE5EA;}
	.st19{opacity:8.000000e-02;fill:#002A3D;}
	.st20{fill:#7588BC;}
	.st21{fill:#B0B5C1;}
	.st22{opacity:0.12;fill:#FFFFFF;}
	.st23{fill:#381911;}
	.st24{opacity:0.45;}
	.st25{fill:#F89377;}
	.st26{fill:#F89277;}
	.st27{fill:#F89176;}
	.st28{fill:#F99076;}
	.st29{fill:#F98F75;}
	.st30{fill:#F98E75;}
	.st31{fill:#F98D74;}
	.st32{fill:#F98C74;}
	.st33{fill:#F98B73;}
	.st34{fill:#FA8A73;}
	.st35{fill:#FA8972;}
	.st36{fill:#FA8871;}
	.st37{fill:#FA8771;}
	.st38{fill:#FA8670;}
	.st39{fill:#FA8570;}
	.st40{fill:#FA846F;}
	.st41{fill:#FB836F;}
	.st42{fill:#FB826E;}
	.st43{fill:#FB816E;}
	.st44{fill:#FB806D;}
	.st45{fill:#FB7F6D;}
	.st46{fill:#FB7E6C;}
	.st47{fill:#FC7D6B;}
	.st48{fill:#FC7C6A;}
	.st49{fill:#FC7B6A;}
	.st50{fill:#FC7A69;}
	.st51{fill:#FC7969;}
	.st52{fill:#FC7868;}
	.st53{fill:#FD7768;}
	.st54{fill:#FD7667;}
	.st55{fill:#FD7567;}
	.st56{fill:#FD7466;}
	.st57{fill:#FD7366;}
	.st58{fill:#FD7265;}
	.st59{fill:#FD7164;}
	.st60{fill:#FE7064;}
	.st61{fill:#FE6F63;}
	.st62{fill:#FE6E63;}
	.st63{fill:#FE6D62;}
	.st64{fill:#FE6C62;}
	.st65{fill:#FE6B61;}
	.st66{fill:#FF6A61;}
	.st67{fill:#FF6960;}
	.st68{fill:#FF6860;}
	.st69{fill:#FF675F;}
	.st70{clip-path:url(#XMLID_7_);fill:#272525;}
	.st71{clip-path:url(#XMLID_7_);fill:#282525;}
	.st72{clip-path:url(#XMLID_7_);fill:#292525;}
	.st73{clip-path:url(#XMLID_7_);fill:#2A2525;}
	.st74{clip-path:url(#XMLID_7_);fill:#2B2526;}
	.st75{clip-path:url(#XMLID_7_);fill:#2C2526;}
	.st76{clip-path:url(#XMLID_7_);fill:#2D2526;}
	.st77{clip-path:url(#XMLID_7_);fill:#2E2526;}
	.st78{clip-path:url(#XMLID_7_);fill:#2F2526;}
	.st79{clip-path:url(#XMLID_7_);fill:#302526;}
	.st80{clip-path:url(#XMLID_7_);fill:#312526;}
	.st81{clip-path:url(#XMLID_7_);fill:#322526;}
	.st82{clip-path:url(#XMLID_7_);fill:#332527;}
	.st83{clip-path:url(#XMLID_7_);fill:#342527;}
	.st84{clip-path:url(#XMLID_7_);fill:#352527;}
	.st85{clip-path:url(#XMLID_7_);fill:#362427;}
	.st86{clip-path:url(#XMLID_7_);fill:#372427;}
	.st87{clip-path:url(#XMLID_7_);fill:#382427;}
	.st88{clip-path:url(#XMLID_7_);fill:#392427;}
	.st89{clip-path:url(#XMLID_7_);fill:#3A2427;}
	.st90{clip-path:url(#XMLID_7_);fill:#3B2428;}
	.st91{clip-path:url(#XMLID_7_);fill:#3C2428;}
	.st92{clip-path:url(#XMLID_7_);fill:#3D2428;}
	.st93{clip-path:url(#XMLID_7_);fill:#3E2428;}
	.st94{clip-path:url(#XMLID_7_);fill:#3F2428;}
	.st95{clip-path:url(#XMLID_7_);fill:#402428;}
	.st96{clip-path:url(#XMLID_7_);fill:#412428;}
	.st97{clip-path:url(#XMLID_7_);fill:#422428;}
	.st98{clip-path:url(#XMLID_7_);fill:#432429;}
	.st99{clip-path:url(#XMLID_7_);fill:#442429;}
	.st100{clip-path:url(#XMLID_7_);fill:#452429;}
	.st101{clip-path:url(#XMLID_7_);fill:#462429;}
	.st102{clip-path:url(#XMLID_7_);fill:#472429;}
	.st103{clip-path:url(#XMLID_7_);fill:#482429;}
	.st104{clip-path:url(#XMLID_7_);fill:#492429;}
	.st105{clip-path:url(#XMLID_7_);fill:#4A2429;}
	.st106{clip-path:url(#XMLID_7_);fill:#4B242A;}
	.st107{clip-path:url(#XMLID_7_);fill:#4C242A;}
	.st108{clip-path:url(#XMLID_7_);fill:#4D242A;}
	.st109{clip-path:url(#XMLID_7_);fill:#4E242A;}
	.st110{clip-path:url(#XMLID_7_);fill:#4F242A;}
	.st111{clip-path:url(#XMLID_7_);fill:#50242A;}
	.st112{clip-path:url(#XMLID_7_);fill:#51242A;}
	.st113{clip-path:url(#XMLID_7_);fill:#52242A;}
	.st114{clip-path:url(#XMLID_7_);fill:#54232B;}
	.st115{clip-path:url(#XMLID_7_);fill:#55232B;}
	.st116{clip-path:url(#XMLID_7_);fill:#56232B;}
	.st117{clip-path:url(#XMLID_7_);fill:#57232B;}
	.st118{clip-path:url(#XMLID_7_);fill:#58232B;}
	.st119{clip-path:url(#XMLID_7_);fill:#59232B;}
	.st120{clip-path:url(#XMLID_7_);fill:#5A232B;}
	.st121{clip-path:url(#XMLID_7_);fill:#5B232B;}
	.st122{clip-path:url(#XMLID_7_);fill:#5C232C;}
	.st123{clip-path:url(#XMLID_7_);fill:#5D232C;}
	.st124{clip-path:url(#XMLID_7_);fill:#5E232C;}
	.st125{clip-path:url(#XMLID_7_);fill:#5F232C;}
	.st126{clip-path:url(#XMLID_7_);fill:#60232C;}
	.st127{clip-path:url(#XMLID_7_);fill:#61232C;}
	.st128{clip-path:url(#XMLID_7_);fill:#62232C;}
	.st129{clip-path:url(#XMLID_7_);fill:#63232C;}
	.st130{clip-path:url(#XMLID_7_);fill:#64232D;}
	.st131{clip-path:url(#XMLID_7_);fill:#65232D;}
	.st132{clip-path:url(#XMLID_7_);fill:#66232D;}
	.st133{clip-path:url(#XMLID_7_);fill:#67232D;}
	.st134{clip-path:url(#XMLID_7_);fill:#68232D;}
	.st135{clip-path:url(#XMLID_7_);fill:#69232D;}
	.st136{clip-path:url(#XMLID_7_);fill:#6A232D;}
	.st137{clip-path:url(#XMLID_7_);fill:#6B232D;}
	.st138{clip-path:url(#XMLID_7_);fill:#6C232E;}
	.st139{clip-path:url(#XMLID_7_);fill:#6D232E;}
	.st140{clip-path:url(#XMLID_7_);fill:#6E232E;}
	.st141{clip-path:url(#XMLID_7_);fill:#6F232E;}
	.st142{clip-path:url(#XMLID_7_);fill:#70232E;}
	.st143{clip-path:url(#XMLID_7_);fill:#71222E;}
	.st144{clip-path:url(#XMLID_7_);fill:#72222E;}
	.st145{clip-path:url(#XMLID_7_);fill:#73222E;}
	.st146{clip-path:url(#XMLID_7_);fill:#74222F;}
	.st147{clip-path:url(#XMLID_7_);fill:#75222F;}
	.st148{clip-path:url(#XMLID_7_);fill:#76222F;}
	.st149{clip-path:url(#XMLID_7_);fill:#77222F;}
	.st150{clip-path:url(#XMLID_7_);fill:#78222F;}
	.st151{clip-path:url(#XMLID_7_);fill:#79222F;}
	.st152{clip-path:url(#XMLID_7_);fill:#7A222F;}
	.st153{clip-path:url(#XMLID_7_);fill:#7B222F;}
	.st154{clip-path:url(#XMLID_7_);fill:#7C2230;}
	.st155{clip-path:url(#XMLID_7_);fill:#7D2230;}
	.st156{clip-path:url(#XMLID_7_);fill:#7E2230;}
	.st157{clip-path:url(#XMLID_7_);fill:#7F2230;}
	.st158{fill:#FFFFFF;}
	.st159{opacity:0.28;fill:#D6C0BA;}
	.st160{opacity:0.2;fill:#FFFFFF;}
	.st161{fill:#4F372D;}
	.st162{fill:#422E26;}
	.st163{opacity:0.11;fill:#E5912F;}
	.st164{opacity:0.16;}
	.st165{opacity:0.58;fill:#F48469;}
	.st166{fill:url(#XMLID_8_);}
	.st167{opacity:0.9;fill:#FFFFFF;}
	.st168{fill:url(#XMLID_9_);}
</style>
<path id="XMLID_806_" class="st0" d="M281.5,223.1c0,0,25.2,2.2,45.6,13.5c30.3,16.8,102.3,95.9,103.3,95c1-0.9-4,75.4-4,75.4
	s-70.3-20.8-112-75.4C272.8,276.9,281.5,223.1,281.5,223.1z"/>
<path id="XMLID_805_" class="st1" d="M441,334.2c0,0-7.9-9.2-8.6-9.5c-24.1-12.8-73.9,32.6-62.1,56.9c3.3,6.8,14.2,13.7,14.2,13.7
	C386.9,365.2,404.7,344.3,441,334.2z"/>
<path id="XMLID_6_" class="st2" d="M354.4,483.3c-1.5,6.4,11.9,16.4,3.1,36.7c-5.7,13-25.9,24.7-31.2,19c-3.1-3.4-4.9,1.1-10.8-0.3
	c-3.1-0.7-5.5-3.9-7.2-5.7c-0.4-0.4-3.8,1.3-4.7,1.2c-9.9-1.2-13.4-12.9-14.7-21.3c-1.6-10.2,0.9-21.3,9.7-27.6
	c0.5-0.3,0.9-0.6,1.4-0.9c4.1-2.5,8.6-3.8,13-5.7c4.1-1.8,8.6-4.7,10.5-8.7c6.3,0.9,20.7,10.6,26.7,12.7
	C350.7,482.9,354.5,482.6,354.4,483.3z"/>
<path id="XMLID_5_" class="st2" d="M319.8,474.5c8.4,5,20.3,7.3,29.1,11.5c1.2,0.6,1.4-0.1,5.4-1.9c6.3-15.1,52.9-55.9,73.4-80.7
	c11.8-14.3,34.2-45.2,18.6-64.2c-6.9-8.4-20.7-8.9-31-6.4c-10.3,2.6-17.9,10.5-24,18.6c-9.2,12.4-14.6,26.7-22.3,40.1
	c-9.2,16-19.5,34.1-28.3,50.4C339.9,443.3,325,467.9,319.8,474.5z"/>
<path id="XMLID_1_" class="st3" d="M289,500.9c1.8-7.9,21.7-22.7,29.8-16.9c8.1,5.8,13.8,3.4,23.3,5.8c9.4,2.4,17.3,23.7,17.4,24
	c3.8-15.5-5.6-24-5.3-29.7l0,0c6.3-15.1,52.9-55.9,73.4-80.7c11.8-14.3,34.2-45.2,18.6-64.2c-6.9-8.4-20.7-8.9-31-6.4
	c-10.3,2.6-17.9,10.5-24,18.6c-9.2,12.4-14.6,26.7-22.3,40.1c-9.2,16-19.5,34.1-28.3,50.4c-0.7,1.4-15.7,26-20.9,32.6
	c-2.1,1.8-4.5,3.2-6.9,4.2c-4.3,1.9-8.9,3.2-13,5.7c-0.5,0.3-1,0.6-1.4,0.9C293.2,489.2,290.1,494.8,289,500.9z M347.5,458.5
	c14.9-20.9,30.6-58.3,50-85.7c19.3-27.4,43.1-3.6,31.2,20.4c-11.9,24.1-51.5,56-64.4,70.9C354.8,474.9,338.9,470.5,347.5,458.5z"/>
<path id="XMLID_804_" class="st2" d="M63.8,126.2c0,0,3.8-38.6-5-51.8c-8.1-12-15.4-3-14.7-1.1c3.1,9.3,6.4,40.6,5.3,51.6
	C48.3,135.8,63.8,126.2,63.8,126.2z"/>
<path id="XMLID_803_" class="st2" d="M33.8,186.5c-1.8-6.3-18.3-8.6-20.4-30.6c-1.3-14.1,10.7-34.1,18.2-31.7c4.4,1.4,3.8-3.3,9.6-5
	c3-0.9,6.7,0.7,9.1,1.5c0.5,0.2,2.7-3,3.5-3.3c9.2-3.7,18,4.9,23.1,11.5c6.3,8.2,9.5,19.1,4.8,28.8c-0.2,0.5-0.5,1-0.8,1.5
	c-2.4,4.1-5.7,7.5-8.6,11.3c-2.7,3.5-5.3,8.2-5,12.7c-5.9,2.2-23.2,0.7-29.5,1.8C37.2,185.1,34,187.2,33.8,186.5z"/>
<path id="XMLID_802_" class="st0" d="M192,226.9c0,0-28.3-10.9-63.5,6.8S7.8,321,7.8,321v26.1c0,0,21.2,45.3,117-25.7
	C206.7,260.7,192,226.9,192,226.9z"/>
<path id="XMLID_795_" class="st1" d="M18.9,281.6c0,0,11-23.4,50-12.9c5.1,1.4,11.1,57-8.9,82.2c-20,25.3-75.1,11.9-56.2-40.3
	C16.9,274.9,18.9,281.6,18.9,281.6z"/>
<path id="XMLID_794_" class="st2" d="M68.3,177.5c-9.8-0.3-21.4,3.4-31,4c-1.4,0.1-1.2,0.7-3.8,4.3c1.8,16.3-19.3,74.5-25.3,106.2
	c-3.5,18.2-8.1,56.1,14.7,65.2c10.1,4,22.4-2.2,30.2-9.4c7.8-7.2,10.6-17.8,12-27.9c2.1-15.3-0.2-30.4,0.1-45.9
	c0.3-18.5,0.6-39.3,0.5-57.8C65.7,214.6,66.9,185.8,68.3,177.5z"/>
<path id="XMLID_787_" class="st4" d="M26.6,141.6c0.1,0.2,1.5,6.1,7.9,5c6.4-1.1,4.4-6.1,2.6-10.1c-1.8-4-2-5.6-2-5.6l1-0.5
	c0,0,2.9,8.1,5.6,10c2.6,1.9,8,1.9,9.3-1.1c1.4-3-2.2-12.3-2.2-12.3l1.4-1c0,0,9.2,5.9,13.2,6.9l0,0.9c0,0-9.6-2.7-10.5-0.1
	s-2.1,10.7,9,13.7l4.7-1.5l0.8,1.4c0,0-3.6,1.1-3.3,1.4c0.3,0.3-2.4,8.9-2.4,8.9l-1.5-0.4c0,0,2.3-6.1,1.4-6.7
	c-0.9-0.6-12.1-4.8-12.1-4.8S35,158.3,24.9,144L26.6,141.6z"/>
<path id="XMLID_785_" class="st5" d="M358.2,924.9c0,0,4.3,44.2,5,48.1c0.7,4,10.2,27.2,10.8,33.3c0.6,6.1-13.1,28.2-22.1,30.5
	c-9,2.3-37.6-1.7-38.6-2.4c-1-0.7-9.3-10.9-8.4-11.8c0.8-0.9,12.1-46.4,12.3-47.3c0.2-0.8-0.3-64.8-0.3-64.8L358.2,924.9z"/>
<path id="XMLID_779_" class="st6" d="M313.4,1034.4c1,0.7,29.6,4.7,38.6,2.4c9-2.3,22.7-24.4,22.1-30.5
	c-0.6-6.1-10.1-29.3-10.8-33.3c-0.7-4-5-48.1-5-48.1L317,910.6c0,0,0.5,63.9,0.3,64.8c-0.2,0.8-11.5,46.4-12.3,47.3
	C304.1,1023.5,312.4,1033.7,313.4,1034.4z M322.5,974.3c0,0-1.5-18.7-0.2-18.9c1.3-0.1,18.7-2.6,33.9,0.3c0.2,0,2.1,17.3,0.9,17.5
	c-1.2,0.2-13.8-4.6-20.6-4C328.3,969.9,322.5,974.3,322.5,974.3z"/>
<path id="XMLID_778_" class="st7" d="M301.3,1018.2c0.8-3.2,3.5-9.9,6.7-17.4c2.3-5.3,4.5-10.8,5.5-14.2l45.5-4.3
	c0,0.3,0.2,0.6,0.4,0.9c0,0,0.1,0.1,0.1,0.2c0.4,0.6,1.2,1,1.9,1.2c0.8,0.2,1.8,0,2.5-0.3c0.7-0.3,1.3-1.1,1.5-1.7
	c0.1-0.3,0.1-0.6,0.1-0.9l2.7-0.3c4.4,6.8,10.5,21,11.2,28.7c1,10.6-2.1,22.3-14.9,31.1c-12.9,8.9-38.8,10.4-56,2.5
	C299.3,1039.4,298.9,1027.8,301.3,1018.2z"/>
<path id="XMLID_773_" class="st8" d="M302.1,1015.6c1.2-3.4,3-6.6,6-14.8c2-5.4,4.5-10.8,5.5-14.2l46.7-4.4c0,0,0,0,0,0c0,0,0,0,0,0
	c0,0.1,0,0.1,0.1,0.2c0,0.2,0,0.4,0,0.5l0-0.2c-0.1,0.6,0,1.2,0.4,1.8c0.4,0.7,1.1,1.1,1.9,1.3c0.8,0.2,1.8,0,2.5-0.3
	c0.6-0.3,1.4-1.1,1.5-1.7c0.2-0.8,0.2-1.5,0.1-2.2l1.5-0.1c4.4,6.8,9.1,20,9.9,27.8c0.8,7.4-3,18.4-15.3,25.8
	c-14.5,8.9-42.2,9.4-52.2,2.5C303,1032.2,299.1,1024.3,302.1,1015.6z"/>
<path id="XMLID_770_" class="st9" d="M364.3,971.7l-1.4-0.8l1.4,11.7c0,0-9.8-10.8-27.8-10.3c-17.9,0.5-20.1,13-20.1,13l0.2-7.7
	c-0.7-0.2-3.7,12-7.2,23.1c-2.3,7.3-5.6,13.8-5.9,16.9c-0.9,10,4,15,8.1,18.3c6.8,5.5,37.5,6.7,49.6-1.7
	c12.1-8.3,14.7-16.9,14.7-26.3C375.8,998.2,364.3,971.7,364.3,971.7z"/>
<path id="XMLID_769_" class="st10" d="M335.8,1003.7c33.5-3.2,37.6,10.7,38,16.4c-2,4.8-5.8,9.5-12.5,14.1
	c-12.1,8.3-42.8,7.2-49.6,1.7c-4.1-3.3-9.1-8.3-8.1-18.3c0.1-0.9,0.4-2.1,0.9-3.5C308,1009.9,316.5,1005.5,335.8,1003.7z"/>
<path id="XMLID_768_" class="st11" d="M363,1010.8c3.5,2.3,0.7,10-6.1,14.7c-6.8,4.7-26.1,4.4-31,0.4c-1.8-1.5-2.9-16.8,0.2-17.7
	C329.1,1007.3,355.7,1005.8,363,1010.8z"/>
<g id="XMLID_762_">
	<path id="XMLID_763_" class="st12" d="M231.5,1020.7c-7.2,0.2-28.7,1.1-55.1,4.5l0.2,9.9c4.6-0.8,9.3-1.7,12.2-2.3
		c1.6-0.3,3,0.9,3,2.5l0,0c0,1.4,1.2,2.5,2.6,2.5h37.5c1.4,0,2.5-1.1,2.5-2.5l-0.2-12.1C234.2,1021.8,233,1020.7,231.5,1020.7z"/>
</g>
<path id="XMLID_761_" class="st5" d="M174.7,928.1c1.4,0,6.6,65.7,6.6,65.7h41.8l-4.9-63.3L174.7,928.1z"/>
<path id="XMLID_760_" class="st6" d="M203.3,957.5c6.6,1.9,12.5,5.3,17.7,9.8l-2.8-36.5l-43.5-2.5c0.6,0,2.1,14.8,3.6,30.4
	C185.3,954.3,196.3,955.5,203.3,957.5z"/>
<path id="XMLID_759_" class="st9" d="M223.9,985.1c-0.9,0.7-1.8,1.4-2.8,2.1c-5.9,4-11.6,5.5-18.5,3.4c-7.5-2.2-13.2-7-17.4-13.6
	c-0.3-0.5-0.6-0.9-0.8-1.4c-1.5-2.8-4.6-4.5-7.7-4.5h-1.8c-2.7,0-5.2,1.6-6.1,4.2c-2.2,5.9-18.6,21-42.3,26.5
	c-13.6,3.2-25.1-0.2-31.1,8.2c-5.4,7.6-1.9,16.8-1.9,16.8l65.2,4.8l80.8-4.8c1.7-12.5-7.9-38.8-7.9-38.8
	C230.9,984.5,226.6,982.8,223.9,985.1z"/>
<g id="XMLID_757_">
	<path id="XMLID_758_" class="st9" d="M233.2,941.8c-34.4-134.8-24.5-328.2-22.1-348.6c-0.3,0-7.3,1.4-7.6,1.4
		c-26.7-2.9-53.4-33-80.1-36.3c-2.4,51.1,12.1,259.8,42.6,384.5c0.6,2.4,2.8,4.2,5.3,4.2h58C231.9,947,233.8,944.5,233.2,941.8z"/>
</g>
<g id="XMLID_755_">
	<path id="XMLID_756_" class="st9" d="M370.9,943c0-28-8.2-125.6-28.5-181.8c-22.5-62.2-22-199.4-22-201.2L234,573.7
		c-17.4,1.9,7.8,134.4,36.5,210.4c16.9,44.7,30.1,129.7,34.9,158.9C307.5,955.7,370.9,950.4,370.9,943z"/>
</g>
<g id="XMLID_753_" class="st13">
	<path id="XMLID_754_" d="M342.4,761.2c-3.5-9.6-6.4-20.9-8.8-33.2c-1.1,6.5-3.7,12.7-7,18.4c-11.9,20-43.5,29.2-61.9,12.1
		c-1.9-1.8-3.5-3.7-4.9-5.7c3.5,11.1,7.1,21.7,10.7,31.4c16.9,44.7,30.1,129.7,34.9,158.9c2.1,12.8,65.6,7.4,65.6,0
		C370.9,915,362.7,817.4,342.4,761.2z"/>
</g>
<g id="XMLID_750_" class="st13">
	<path id="XMLID_752_" d="M233.2,941.8c-17.2-67.4-23.3-149.3-24.9-217c-2.2,8.3-6.2,16.3-11.1,23.5c-8.2,12.1-21.8,18.8-36.3,17.9
		c-9.4-0.6-18.4-4.3-25.2-10.6c7.1,65.2,17.2,133.9,30.3,187.3c0.6,2.4,2.8,4.2,5.3,4.2h58C231.9,947,233.8,944.5,233.2,941.8z"/>
</g>
<g id="XMLID_748_">
	<path id="XMLID_749_" class="st8" d="M201.3,1035.3L201.3,1035.3c0,1.4,1.2,2.6,2.6,2.6h37.5c1.4,0,2.5-1.1,2.5-2.5l-0.2-12.1
		c0-1.4-1.2-2.6-2.6-2.5c-8.3,0.3-35.3,1.4-67,6.2c-25.2,3.8-71-3-81.4-4.9c-1.3-0.2-2.6,0.6-2.9,1.9l-0.8,3.6
		c-0.3,1.4,0.6,2.7,1.9,3c7.9,1.9,38.7,7.3,82,6.5c3.6-0.1,18.9-2.9,25.4-4.2C199.8,1032.5,201.3,1033.7,201.3,1035.3z"/>
</g>
<path id="XMLID_747_" class="st11" d="M126.4,1001.9c-5.7,1.3-11,1.5-15.7,1.9c0.1,0,36.5,10,61.1-0.5c22.2-9.4-3.7-17.7-9.8-19.6
	C154.7,990.3,142.2,998.2,126.4,1001.9z"/>
<path id="XMLID_746_" class="st9" d="M124.3,531.8c-0.3,35.7-0.7,65.3-0.7,65.3s56.3,6.1,116.8,5.5c39.3-0.4,73,2.8,74.7-14.7
	c1.6-16.3,2.4-35.8,2.8-56.1H124.3z"/>
<path id="XMLID_745_" class="st14" d="M213.6,591.2c-58.4,2.2-11.7,11.3-6.2,11.4c9.9,0.2,10,0.3,20.5,0.3c0,0,0.2,2,0.2,3
	C228.3,605.9,271.8,589.1,213.6,591.2z"/>
<path id="XMLID_744_" class="st15" d="M226.3,159.7L226.3,159.7c-15.2-0.3-27.1,4.9-27.3,15.8l-4.6,51.8
	c-0.2,10.9,15.2,12.5,30.4,12.8c15.2,0.3,27.6-1.5,27.8-12.4l-0.8-48.7C252,168,241.5,159.9,226.3,159.7z"/>
<path id="XMLID_743_" class="st16" d="M245.9,164.1C245.9,164.1,245.9,164.1,245.9,164.1C245.9,164.1,245.9,164.1,245.9,164.1z"/>
<polygon id="XMLID_742_" class="st17" points="266,526.8 242.8,566 259.8,567.9 282.2,526.8 "/>
<path id="XMLID_741_" class="st15" d="M278.9,263.5l-0.7-40.8c-33.2-9.8-78.4-9.7-110.1,3.7l0.7,37.1H278.9z"/>
<path id="XMLID_740_" class="st18" d="M290.9,225.8c-2.9-1.1-6-2.1-9.4-2.8c-2.9-0.8-5.9-1.6-8.9-2.4c-2.9,19-26.7,23.3-52.9,23.7
	c-23.6,0.4-34.5-4.7-38.9-22.9c-7.8,1.4-27.7,7.7-38.6,14.8l5.7,319.3c17.6,3.9,43.4,7.9,74.8,7.5c33.7-0.4,58.7-5.1,74.1-9.2
	L290.9,225.8z"/>
<path id="XMLID_739_" class="st0" d="M207.8,253c-1.1-4.9-16.3-19.3-19.7-33c-14.2,0-42.3,11.5-50.8,20
	c-18.2,18.1-17.6,62.5-18.2,127c-0.7,69.2-0.8,62.5-7.4,196.1c0,0,39,9.2,87,11.8C190.5,479.1,206.6,268.6,207.8,253z"/>
<path id="XMLID_738_" class="st0" d="M281.5,223.1c-2.9-0.8-16.1-4.3-19.2-5.1c-2.4,16.3-9.1,13-28.2,34.6
	c-1.6,19-13.9,174.5-7.8,325.8c58.1-1.3,105.7-21.1,105.7-21.1c-7.7-74.5-8-211.3-9-276.5C322.9,274.6,323.2,231.7,281.5,223.1z"/>
<path id="XMLID_737_" class="st19" d="M180.6,220.8L180.6,220.8c0,0-6.6,32.3,0.8,46.4c0,0,1.5-20.2,10.4-16.7
	c6,2.3,11.9,10.7,15.3,16c0.3-7,0.6-11.8,0.7-13.5c-1.1-4.8-15.3-18.4-19.3-31.7C183.9,220.6,180.6,220.8,180.6,220.8z"/>
<path id="XMLID_736_" class="st20" d="M180.5,439.4c2.5-87,14.1-189.1,15.7-203c-0.4-0.6-0.8-1.2-1.2-1.8l-5.6-0.8
	c-0.1,1.1-13.2,111.7-15.9,205.2c-1.8,62.1,0,109.2,1.4,134c2.3,0.2,4.7,0.5,7.1,0.7C180.5,549.3,178.7,502,180.5,439.4z"/>
<path id="XMLID_735_" class="st20" d="M246.7,439.9c-1.5-97.6,8.2-201.9,8.3-202.9l-4.3-0.5c-0.9,0.8-1.9,1.6-3,2.6
	c-1.5,17.5-9.4,111.9-8,200.8c1,64.4,4.5,112.1,6.7,137.4c2.4-0.2,4.7-0.5,7-0.7C251.1,551.4,247.7,504,246.7,439.9z"/>
<path id="XMLID_734_" class="st19" d="M257.1,250.5c8.8-3.5,11,16.7,11,16.7c6.9-14.1-0.9-46.4-0.9-46.4l0,0c0,0-2.3-0.1-5.6,0.2
	c-2.9,13-9.9,11.5-27.7,31.6c-0.2,2.2-1,9.1-1.3,17.4C238.6,263.7,252.2,252.5,257.1,250.5z"/>
<g id="XMLID_732_">
	<polygon id="XMLID_733_" class="st20" points="127.6,292.4 131.1,285 187.5,275.1 188.8,282.1 	"/>
</g>
<path id="XMLID_731_" class="st20" d="M207.8,253c0,0-19.4-23.6-23.9-7.7c-3,10.8-4.4,17.3-4.4,17.3s-9.3-27.3,0.2-40.5
	c9.4-13.2,16.7-15.9,16.7-15.9s-0.6,15.7,5.5,28.9C205.9,243.7,207.8,253,207.8,253z"/>
<path id="XMLID_727_" class="st21" d="M196.9,375c0,2.3-2,4.2-4.6,4.2c-2.6,0-4.7-1.9-4.8-4.2c0-2.3,2-4.2,4.6-4.2
	C194.7,370.9,196.8,372.7,196.9,375z"/>
<path id="XMLID_726_" class="st21" d="M192.7,438.4c0,2.3-2,4.2-4.6,4.2c-2.6,0-4.7-1.9-4.8-4.2s2-4.2,4.6-4.2
	C190.6,434.2,192.7,436.1,192.7,438.4z"/>
<path id="XMLID_725_" class="st21" d="M191.9,487.6c0,2.3-2,4.2-4.6,4.2c-2.6,0-4.7-1.9-4.8-4.2c0-2.3,2-4.2,4.6-4.2
	C189.7,483.4,191.8,485.3,191.9,487.6z"/>
<path id="XMLID_724_" class="st21" d="M192.8,538.6c0,2.3-2,4.2-4.6,4.2c-2.6,0-4.7-1.9-4.8-4.2c0-2.3,2-4.2,4.6-4.2
	C190.6,534.4,192.7,536.3,192.8,538.6z"/>
<path id="XMLID_723_" class="st21" d="M203.9,273c0,2.3-2,4.2-4.6,4.2c-2.6,0-4.7-1.9-4.8-4.2c0-2.3,2-4.2,4.6-4.2
	C201.7,268.8,203.8,270.7,203.9,273z"/>
<path id="XMLID_722_" class="st21" d="M200,320.2c0,2.3-2,4.2-4.6,4.2c-2.6,0-4.7-1.9-4.8-4.2c0-2.3,2-4.2,4.6-4.2
	C197.8,316.1,199.9,317.9,200,320.2z"/>
<g id="XMLID_720_">
	<polygon id="XMLID_721_" class="st20" points="304.9,292.4 247.8,280.6 249.1,273.7 306.2,285.5 	"/>
</g>
<path id="XMLID_718_" class="st20" d="M234,253.3c0,0,25.8-23.9,30.8-8c3.4,10.8,5,17.3,5,17.3s8.3-27.3-1.6-40.5
	c-9.9-13.2-16-13.7-16-13.7s0.6,5.7-5,18.9C243.5,235.9,235.2,242.2,234,253.3z"/>
<path id="XMLID_716_" class="st22" d="M201.9,235c-6.1-13.2-5.5-28.9-5.5-28.9s-1.8,0.7-4.8,3c-6.9,6.7-5.5,20.2-2.2,30.7
	c7.3-0.3,18.4,13.2,18.4,13.2S205.9,243.7,201.9,235z"/>
<path id="XMLID_715_" class="st22" d="M258.3,239.9c1.5-11,1.4-22.2-5.9-31.5c-0.1,0-0.1,0-0.1,0s0.6,5.7-5,18.9
	c-3.7,8.7-12,15-13.2,26.1C234,253.3,248.9,239.5,258.3,239.9z"/>
<path id="XMLID_711_" class="st20" d="M145.1,227.2c-7.3,11.1-19.1,42.7-24.6,74.5c-1,18.6-1.1,40.5-1.3,65.4
	c0,4.6-0.1,8.8-0.1,12.8c6.5-108.5,30.8-147.1,37.6-155.3C152,224.6,149,225.3,145.1,227.2z"/>
<path id="XMLID_710_" class="st20" d="M325.2,426.2l-0.7-30.4c-8.7-106.4-23-152.3-32.9-169.7c-3.1-1.3-6.4-2.3-10.2-3.1
	c-0.3-0.1-0.6-0.2-1.1-0.3C286.6,228.1,313.9,287.7,325.2,426.2z"/>
<path id="XMLID_709_" class="st20" d="M131,331.5l-2.3,41.5c-0.2,4.1,1.9,8,5.4,10.1l10.2,6.2c2.8,1.7,6.4,1.7,9.1-0.1l13-8.3
	c2.8-1.8,4.6-4.8,4.7-8.1l2.4-41.3H131z"/>
<path id="XMLID_708_" class="st20" d="M256.5,336.2l0.7,41c0.1,3.9,2,7.6,5.3,9.9l8.7,6c4.6,3.2,10.8,3,15.1-0.5l12.4-10.3
	c3.6-3,5.6-7.5,5.3-12.2l-1.7-33.8H256.5z"/>
<path id="XMLID_707_" class="st15" d="M152.3,118.6c-7,2.3-10.1,12.5-7,22.8c3.1,10.3,11.3,16.7,18.3,14.4c7-2.3,10.1-12.5,7-22.8
	C167.5,122.8,159.3,116.3,152.3,118.6z"/>
<path id="XMLID_705_" class="st23" d="M197.2,26.1c0,0,0-0.1,0-0.3C197.2,26,197.2,26.1,197.2,26.1z"/>
<path id="XMLID_701_" class="st2" d="M282.8,132.9c0.1-25-3.6-56.6-8.7-75.2c-3.9-24.2-72.2-35.6-92.3-2.4
	c-6.4,15.4-16.8,44.2-20.3,72.7c0-0.3,0-0.5,0-0.5s-18.6,76,49,80.7C278.1,212.9,285.6,177.3,282.8,132.9L282.8,132.9z"/>
<g id="XMLID_640_" class="st24">
	<path id="XMLID_700_" class="st2" d="M185.5,115.8c-13.4-0.2-24.5,11.5-24.7,26.1c-0.2,14.6,10.5,26.6,23.9,26.8
		c13.4,0.2,24.5-11.5,24.7-26.1C209.6,128,198.9,116,185.5,115.8z"/>
	<path id="XMLID_699_" class="st25" d="M185.5,116.1c-13.3-0.2-24.2,11.4-24.4,25.9c-0.2,14.5,10.4,26.3,23.7,26.5
		c13.3,0.2,24.2-11.4,24.4-25.9C209.3,128.1,198.7,116.3,185.5,116.1z"/>
	
		<ellipse id="XMLID_698_" transform="matrix(1.375756e-02 -0.9999 0.9999 1.375756e-02 40.2947 325.4104)" class="st26" cx="185.1" cy="142.3" rx="25.9" ry="23.8"/>
	
		<ellipse id="XMLID_697_" transform="matrix(1.375058e-02 -0.9999 0.9999 1.375058e-02 40.296 325.4114)" class="st27" cx="185.1" cy="142.3" rx="25.6" ry="23.5"/>
	<path id="XMLID_696_" class="st28" d="M185.5,117c-12.8-0.2-23.4,11-23.6,25c-0.2,14,10.1,25.5,22.9,25.6c12.8,0.2,23.4-11,23.6-25
		C208.5,128.6,198.3,117.1,185.5,117z"/>
	
		<ellipse id="XMLID_692_" transform="matrix(1.374878e-02 -0.9999 0.9999 1.374878e-02 40.2963 325.4117)" class="st29" cx="185.1" cy="142.3" rx="25" ry="23"/>
	<path id="XMLID_691_" class="st30" d="M185.4,117.5c-12.5-0.2-22.9,10.8-23.1,24.4c-0.2,13.7,9.8,24.9,22.4,25.1
		c12.5,0.2,22.9-10.8,23.1-24.4C208,128.9,198,117.7,185.4,117.5z"/>
	<path id="XMLID_690_" class="st31" d="M185.4,117.8c-12.4-0.2-22.6,10.6-22.8,24.1c-0.2,13.5,9.7,24.6,22.1,24.8
		c12.4,0.2,22.6-10.6,22.8-24.1C207.7,129.1,197.8,118,185.4,117.8z"/>
	
		<ellipse id="XMLID_687_" transform="matrix(1.375440e-02 -0.9999 0.9999 1.375440e-02 40.2953 325.4109)" class="st32" cx="185.1" cy="142.3" rx="24.2" ry="22.2"/>
	<path id="XMLID_686_" class="st33" d="M185.4,118.4c-12.1-0.2-22.1,10.4-22.3,23.6c-0.2,13.2,9.5,24,21.6,24.2
		c12.1,0.2,22.1-10.4,22.3-23.6C207.2,129.4,197.5,118.6,185.4,118.4z"/>
	
		<ellipse id="XMLID_684_" transform="matrix(1.375249e-02 -0.9999 0.9999 1.375249e-02 40.2956 325.4112)" class="st34" cx="185.1" cy="142.3" rx="23.6" ry="21.7"/>
	<path id="XMLID_683_" class="st35" d="M185.4,119c-11.8-0.2-21.5,10.1-21.7,23c-0.2,12.9,9.3,23.4,21.1,23.6
		c11.8,0.2,21.5-10.1,21.7-23C206.7,129.7,197.2,119.1,185.4,119z"/>
	
		<ellipse id="XMLID_682_" transform="matrix(1.376668e-02 -0.9999 0.9999 1.376668e-02 40.2931 325.4091)" class="st36" cx="185.1" cy="142.3" rx="23" ry="21.1"/>
	
		<ellipse id="XMLID_680_" transform="matrix(1.373573e-02 -0.9999 0.9999 1.373573e-02 40.2987 325.4136)" class="st37" cx="185.1" cy="142.3" rx="22.7" ry="20.9"/>
	<path id="XMLID_679_" class="st38" d="M185.4,119.8c-11.4-0.2-20.7,9.8-20.9,22.2c-0.2,12.4,8.9,22.6,20.3,22.7
		c11.4,0.2,20.7-9.8,20.9-22.2C205.9,130.2,196.8,120,185.4,119.8z"/>
	
		<ellipse id="XMLID_678_" transform="matrix(1.375712e-02 -0.9999 0.9999 1.375712e-02 40.2948 325.4105)" class="st39" cx="185.1" cy="142.3" rx="22.2" ry="20.3"/>
	
		<ellipse id="XMLID_677_" transform="matrix(1.374186e-02 -0.9999 0.9999 1.374186e-02 40.2976 325.4127)" class="st40" cx="185.1" cy="142.3" rx="21.9" ry="20.1"/>
	<path id="XMLID_676_" class="st41" d="M185.4,120.7c-10.9-0.2-19.9,9.4-20.1,21.3c-0.2,11.9,8.6,21.7,19.5,21.9
		c10.9,0.2,19.9-9.4,20.1-21.3C205.1,130.6,196.3,120.9,185.4,120.7z"/>
	
		<ellipse id="XMLID_675_" transform="matrix(1.376425e-02 -0.9999 0.9999 1.376425e-02 40.2934 325.4095)" class="st42" cx="185.1" cy="142.3" rx="21.3" ry="19.5"/>
	
		<ellipse id="XMLID_674_" transform="matrix(1.374801e-02 -0.9999 0.9999 1.374801e-02 40.2964 325.4118)" class="st43" cx="185.1" cy="142.3" rx="21" ry="19.3"/>
	
		<ellipse id="XMLID_673_" transform="matrix(1.376249e-02 -0.9999 0.9999 1.376249e-02 40.2938 325.4097)" class="st44" cx="185.1" cy="142.3" rx="20.7" ry="19"/>
	
		<ellipse id="XMLID_672_" transform="matrix(1.374541e-02 -0.9999 0.9999 1.374541e-02 40.2969 325.4122)" class="st45" cx="185.1" cy="142.3" rx="20.4" ry="18.8"/>
	<path id="XMLID_671_" class="st46" d="M185.4,122.1c-10.2-0.1-18.6,8.8-18.8,19.9c-0.2,11.1,8,20.3,18.2,20.4
		c10.2,0.1,18.6-8.8,18.8-19.9C203.8,131.4,195.6,122.3,185.4,122.1z"/>
	<path id="XMLID_670_" class="st47" d="M185.4,122.4c-10.1-0.1-18.3,8.6-18.5,19.6c-0.2,11,7.9,20,18,20.1
		c10.1,0.1,18.3-8.6,18.5-19.6C203.5,131.6,195.4,122.6,185.4,122.4z"/>
	<path id="XMLID_669_" class="st47" d="M185.4,122.7c-9.9-0.1-18.1,8.5-18.2,19.3c-0.1,10.8,7.8,19.7,17.7,19.8
		c9.9,0.1,18.1-8.5,18.2-19.3C203.2,131.7,195.3,122.9,185.4,122.7z"/>
	
		<ellipse id="XMLID_668_" transform="matrix(1.376817e-02 -0.9999 0.9999 1.376817e-02 40.2928 325.4089)" class="st48" cx="185.1" cy="142.3" rx="19.3" ry="17.7"/>
	<path id="XMLID_667_" class="st49" d="M185.4,123.3c-9.6-0.1-17.6,8.3-17.7,18.7c-0.1,10.5,7.5,19.1,17.2,19.2
		c9.6,0.1,17.6-8.3,17.7-18.7C202.7,132,195,123.4,185.4,123.3z"/>
	<path id="XMLID_666_" class="st50" d="M185.4,123.6c-9.5-0.1-17.3,8.1-17.4,18.5c-0.1,10.3,7.4,18.8,16.9,18.9
		c9.5,0.1,17.3-8.1,17.4-18.5C202.4,132.2,194.8,123.7,185.4,123.6z"/>
	<path id="XMLID_665_" class="st51" d="M185.4,123.9c-9.3-0.1-17,8-17.2,18.2c-0.1,10.2,7.3,18.5,16.7,18.6c9.3,0.1,17-8,17.2-18.2
		C202.2,132.3,194.7,124,185.4,123.9z"/>
	<path id="XMLID_664_" class="st52" d="M185.4,124.2c-9.2-0.1-16.8,7.9-16.9,17.9c-0.1,10,7.2,18.2,16.4,18.4
		c9.2,0.1,16.8-7.9,16.9-17.9C201.9,132.5,194.5,124.3,185.4,124.2z"/>
	
		<ellipse id="XMLID_663_" transform="matrix(1.374802e-02 -0.9999 0.9999 1.374802e-02 40.2964 325.4118)" class="st53" cx="185.1" cy="142.3" rx="17.8" ry="16.4"/>
	<path id="XMLID_662_" class="st54" d="M185.3,124.7c-8.9-0.1-16.2,7.6-16.4,17.3c-0.1,9.7,7,17.7,15.9,17.8
		c8.9,0.1,16.2-7.6,16.4-17.3C201.4,132.8,194.2,124.9,185.3,124.7z"/>
	<path id="XMLID_661_" class="st55" d="M185.3,125c-8.8-0.1-16,7.5-16.1,17c-0.1,9.5,6.9,17.4,15.6,17.5c8.8,0.1,16-7.5,16.1-17
		C201.1,133,194.1,125.1,185.3,125z"/>
	<path id="XMLID_660_" class="st56" d="M185.3,125.3c-8.6-0.1-15.7,7.4-15.8,16.8c-0.1,9.4,6.7,17.1,15.4,17.2
		c8.6,0.1,15.7-7.4,15.8-16.8C200.8,133.1,193.9,125.4,185.3,125.3z"/>
	<path id="XMLID_659_" class="st57" d="M185.3,125.6c-8.5-0.1-15.4,7.3-15.6,16.5c-0.1,9.2,6.6,16.8,15.1,16.9
		c8.5,0.1,15.4-7.3,15.6-16.5C200.6,133.3,193.8,125.7,185.3,125.6z"/>
	
		<ellipse id="XMLID_658_" transform="matrix(1.376357e-02 -0.9999 0.9999 1.376357e-02 40.2935 325.4095)" class="st58" cx="185.1" cy="142.3" rx="16.4" ry="15.1"/>
	
		<ellipse id="XMLID_657_" transform="matrix(1.376214e-02 -0.9999 0.9999 1.376214e-02 40.2939 325.4098)" class="st59" cx="185.1" cy="142.3" rx="16.1" ry="14.8"/>
	<path id="XMLID_656_" class="st60" d="M185.3,126.5c-8-0.1-14.6,6.9-14.7,15.6c-0.1,8.7,6.3,15.9,14.3,16c8,0.1,14.6-6.9,14.7-15.6
		C199.8,133.7,193.3,126.6,185.3,126.5z"/>
	
		<ellipse id="XMLID_653_" transform="matrix(1.375967e-02 -0.9999 0.9999 1.375967e-02 40.2943 325.4101)" class="st61" cx="185.1" cy="142.3" rx="15.5" ry="14.3"/>
	<path id="XMLID_652_" class="st62" d="M185.3,127c-7.7-0.1-14.1,6.6-14.2,15.1c-0.1,8.4,6.1,15.3,13.8,15.4
		c7.7,0.1,14.1-6.6,14.2-15.1C199.2,134,193,127.1,185.3,127z"/>
	<path id="XMLID_651_" class="st63" d="M185.3,127.3c-7.6-0.1-13.8,6.5-13.9,14.8c-0.1,8.3,5.9,15,13.5,15.2
		c7.6,0.1,13.8-6.5,13.9-14.8C199,134.2,192.9,127.4,185.3,127.3z"/>
	
		<ellipse id="XMLID_650_" transform="matrix(1.374487e-02 -0.9999 0.9999 1.374487e-02 40.297 325.4122)" class="st64" cx="185.1" cy="142.3" rx="14.7" ry="13.5"/>
	
		<ellipse id="XMLID_649_" transform="matrix(1.374658e-02 -0.9999 0.9999 1.374658e-02 40.2967 325.412)" class="st65" cx="185.1" cy="142.3" rx="14.4" ry="13.2"/>
	<path id="XMLID_648_" class="st66" d="M185.3,128.2c-7.1-0.1-13,6.1-13.1,13.9c-0.1,7.8,5.6,14.2,12.7,14.3
		c7.1,0.1,13-6.1,13.1-13.9C198.2,134.7,192.4,128.3,185.3,128.2z"/>
	
		<ellipse id="XMLID_647_" transform="matrix(1.374358e-02 -0.9999 0.9999 1.374358e-02 40.2973 325.4124)" class="st67" cx="185.1" cy="142.3" rx="13.8" ry="12.7"/>
	
		<ellipse id="XMLID_646_" transform="matrix(1.374144e-02 -0.9999 0.9999 1.374144e-02 40.2976 325.4127)" class="st68" cx="185.1" cy="142.3" rx="13.5" ry="12.4"/>
	
		<ellipse id="XMLID_645_" transform="matrix(1.378038e-02 -0.9999 0.9999 1.378038e-02 40.2905 325.4071)" class="st69" cx="185.1" cy="142.3" rx="13.2" ry="12.2"/>
</g>
<g id="XMLID_585_" class="st24">
	
		<ellipse id="XMLID_639_" transform="matrix(0.7975 -0.6033 0.6033 0.7975 -35.5855 180.347)" class="st2" cx="250.9" cy="143.2" rx="26.5" ry="26.5"/>
	
		<ellipse id="XMLID_638_" transform="matrix(0.5796 -0.8149 0.8149 0.5796 -11.2185 264.6217)" class="st25" cx="250.9" cy="143.2" rx="26.2" ry="26.2"/>
	
		<ellipse id="XMLID_637_" transform="matrix(0.7071 -0.7071 0.7071 0.7071 -27.7701 219.325)" class="st26" cx="250.9" cy="143.2" rx="25.9" ry="25.9"/>
	
		<ellipse id="XMLID_636_" transform="matrix(0.7706 -0.6373 0.6373 0.7706 -33.7072 192.7178)" class="st27" cx="250.9" cy="143.2" rx="25.6" ry="25.6"/>
	
		<ellipse id="XMLID_635_" transform="matrix(0.9337 -0.3579 0.3579 0.9337 -34.6304 99.2825)" class="st28" cx="250.9" cy="143.2" rx="25.3" ry="25.3"/>
	
		<ellipse id="XMLID_634_" transform="matrix(0.8443 -0.5359 0.5359 0.8443 -37.668 156.7384)" class="st29" cx="250.9" cy="143.2" rx="25" ry="25"/>
	
		<ellipse id="XMLID_633_" transform="matrix(0.6199 -0.7847 0.7847 0.6199 -17.0023 251.2674)" class="st30" cx="250.9" cy="143.2" rx="24.7" ry="24.7"/>
	
		<ellipse id="XMLID_632_" transform="matrix(0.7071 -0.7071 0.7071 0.7071 -27.7701 219.325)" class="st31" cx="250.9" cy="143.2" rx="24.5" ry="24.5"/>
	
		<ellipse id="XMLID_631_" transform="matrix(0.1592 -0.9872 0.9872 0.1592 69.571 368.0554)" class="st32" cx="250.9" cy="143.2" rx="24.2" ry="24.2"/>
	
		<ellipse id="XMLID_630_" transform="matrix(0.8891 -0.4577 0.4577 0.8891 -37.7158 130.6886)" class="st33" cx="250.9" cy="143.2" rx="23.9" ry="23.9"/>
	
		<ellipse id="XMLID_629_" transform="matrix(0.2909 -0.9567 0.9567 0.2909 40.8932 341.5438)" class="st34" cx="250.9" cy="143.2" rx="23.6" ry="23.6"/>
	
		<ellipse id="XMLID_628_" transform="matrix(0.4111 -0.9116 0.9116 0.4111 17.2092 313.0068)" class="st35" cx="250.9" cy="143.2" rx="23.3" ry="23.3"/>
	
		<ellipse id="XMLID_627_" transform="matrix(0.7191 -0.6949 0.6949 0.7191 -29.0362 214.5304)" class="st36" cx="250.9" cy="143.2" rx="23" ry="23"/>
	
		<ellipse id="XMLID_626_" transform="matrix(0.9557 -0.2942 0.2942 0.9557 -31.0241 80.1482)" class="st37" cx="250.9" cy="143.2" rx="22.7" ry="22.7"/>
	
		<ellipse id="XMLID_625_" transform="matrix(0.858 -0.5137 0.5137 0.858 -37.9236 149.1936)" class="st38" cx="250.9" cy="143.2" rx="22.4" ry="22.4"/>
	
		<ellipse id="XMLID_624_" transform="matrix(0.5698 -0.8218 0.8218 0.5698 -9.7433 267.7562)" class="st39" cx="250.9" cy="143.2" rx="22.2" ry="22.2"/>
	
		<ellipse id="XMLID_623_" transform="matrix(0.9818 -0.1901 0.1901 0.9818 -22.6474 50.3081)" class="st40" cx="250.9" cy="143.2" rx="21.9" ry="21.9"/>
	
		<ellipse id="XMLID_622_" transform="matrix(0.7233 -0.6905 0.6905 0.7233 -29.4613 212.8414)" class="st41" cx="250.9" cy="143.2" rx="21.6" ry="21.6"/>
	
		<ellipse id="XMLID_621_" transform="matrix(0.3747 -0.9271 0.9271 0.3747 24.1113 322.1185)" class="st42" cx="250.9" cy="143.2" rx="21.3" ry="21.3"/>
	
		<ellipse id="XMLID_620_" transform="matrix(0.9975 -7.038599e-02 7.038599e-02 0.9975 -9.456 18.0124)" class="st43" cx="250.9" cy="143.2" rx="21" ry="21"/>
	
		<ellipse id="XMLID_619_" transform="matrix(0.996 -8.954536e-02 8.954536e-02 0.996 -11.8137 23.0389)" class="st44" cx="250.9" cy="143.2" rx="20.7" ry="20.7"/>
	
		<ellipse id="XMLID_618_" transform="matrix(7.133891e-02 -0.9975 0.9975 7.133891e-02 90.1482 383.1939)" class="st45" cx="250.9" cy="143.2" rx="20.4" ry="20.4"/>
	
		<ellipse id="XMLID_617_" transform="matrix(0.7071 -0.7071 0.7071 0.7071 -27.7701 219.325)" class="st46" cx="250.9" cy="143.2" rx="20.1" ry="20.1"/>
	
		<ellipse id="XMLID_616_" transform="matrix(0.9847 -0.174 0.174 0.9847 -21.0921 45.8479)" class="st47" cx="250.9" cy="143.2" rx="19.9" ry="19.9"/>
	
		<ellipse id="XMLID_615_" transform="matrix(0.9205 -0.3908 0.3908 0.9205 -36.0079 109.4362)" class="st47" cx="250.9" cy="143.2" rx="19.6" ry="19.6"/>
	<circle id="XMLID_614_" class="st48" cx="250.9" cy="143.2" r="19.3"/>
	
		<ellipse id="XMLID_613_" transform="matrix(0.2066 -0.9784 0.9784 0.2066 58.9305 359.0447)" class="st49" cx="250.9" cy="143.2" rx="19" ry="19"/>
	
		<ellipse id="XMLID_609_" transform="matrix(0.2823 -0.9593 0.9593 0.2823 42.6747 343.4128)" class="st50" cx="250.9" cy="143.2" rx="18.7" ry="18.7"/>
	
		<ellipse id="XMLID_608_" transform="matrix(0.9532 -0.3023 0.3023 0.9532 -31.5504 82.5497)" class="st51" cx="250.9" cy="143.2" rx="18.4" ry="18.4"/>
	
		<ellipse id="XMLID_607_" transform="matrix(0.8928 -0.4505 0.4505 0.8928 -37.6062 128.3724)" class="st52" cx="250.9" cy="143.2" rx="18.1" ry="18.1"/>
	
		<ellipse id="XMLID_606_" transform="matrix(0.7071 -0.7071 0.7071 0.7071 -27.7701 219.325)" class="st53" cx="250.9" cy="143.2" rx="17.8" ry="17.8"/>
	
		<ellipse id="XMLID_605_" transform="matrix(0.958 -0.2867 0.2867 0.958 -30.5184 77.928)" class="st54" cx="250.9" cy="143.2" rx="17.6" ry="17.6"/>
	
		<ellipse id="XMLID_604_" transform="matrix(0.8559 -0.5172 0.5172 0.8559 -37.8963 150.3892)" class="st55" cx="250.9" cy="143.2" rx="17.3" ry="17.3"/>
	
		<ellipse id="XMLID_603_" transform="matrix(0.2105 -0.9776 0.9776 0.2105 58.084 358.2891)" class="st56" cx="250.9" cy="143.2" rx="17" ry="17"/>
	<path id="XMLID_602_" class="st57" d="M251.1,126.5c-9.2-0.1-16.8,7.2-16.9,16.5c-0.1,9.2,7.2,16.8,16.5,16.9
		c9.2,0.1,16.8-7.2,16.9-16.5C267.7,134.2,260.3,126.6,251.1,126.5z"/>
	<path id="XMLID_601_" class="st58" d="M251.1,126.8c-9.1-0.1-16.5,7.1-16.6,16.2c-0.1,9.1,7.1,16.5,16.2,16.6
		c9.1,0.1,16.5-7.1,16.6-16.2S260.1,126.9,251.1,126.8z"/>
	
		<ellipse id="XMLID_600_" transform="matrix(0.5639 -0.8259 0.8259 0.5639 -8.8424 269.6236)" class="st59" cx="250.9" cy="143.2" rx="16.1" ry="16.1"/>
	<path id="XMLID_599_" class="st60" d="M251.1,127.4c-8.7-0.1-15.9,6.9-16,15.6s6.9,15.9,15.6,16c8.7,0.1,15.9-6.9,16-15.6
		C266.8,134.7,259.8,127.5,251.1,127.4z"/>
	<path id="XMLID_598_" class="st61" d="M251.1,127.6c-8.6-0.1-15.6,6.7-15.8,15.3c-0.1,8.6,6.7,15.6,15.3,15.8
		c8.6,0.1,15.6-6.7,15.8-15.3C266.5,134.8,259.7,127.8,251.1,127.6z"/>
	<path id="XMLID_597_" class="st62" d="M251.1,127.9c-8.4-0.1-15.3,6.6-15.5,15c-0.1,8.4,6.6,15.3,15,15.5c8.4,0.1,15.3-6.6,15.5-15
		C266.2,135,259.5,128.1,251.1,127.9z"/>
	
		<ellipse id="XMLID_596_" transform="matrix(3.257496e-02 -0.9995 0.9995 3.257496e-02 99.5839 389.2503)" class="st63" cx="250.9" cy="143.2" rx="15" ry="15"/>
	
		<ellipse id="XMLID_595_" transform="matrix(0.7071 -0.7071 0.7071 0.7071 -27.7701 219.325)" class="st64" cx="250.9" cy="143.2" rx="14.7" ry="14.7"/>
	
		<ellipse id="XMLID_594_" transform="matrix(0.7071 -0.7071 0.7071 0.7071 -27.7701 219.325)" class="st65" cx="250.9" cy="143.2" rx="14.4" ry="14.4"/>
	<path id="XMLID_593_" class="st66" d="M251.1,129.1c-7.8-0.1-14.2,6.1-14.3,13.9c-0.1,7.8,6.1,14.2,13.9,14.3
		c7.8,0.1,14.2-6.1,14.3-13.9C265.1,135.6,258.8,129.2,251.1,129.1z"/>
	
		<ellipse id="XMLID_592_" transform="matrix(0.8686 -0.4956 0.4956 0.8686 -37.9862 143.147)" class="st67" cx="250.9" cy="143.2" rx="13.8" ry="13.8"/>
	
		<ellipse id="XMLID_591_" transform="matrix(0.9049 -0.4255 0.4255 0.9049 -37.0829 120.3592)" class="st68" cx="250.9" cy="143.2" rx="13.5" ry="13.5"/>
	<path id="XMLID_590_" class="st69" d="M251,129.9c-7.3-0.1-13.3,5.7-13.4,13.1c-0.1,7.3,5.7,13.3,13.1,13.4
		c7.3,0.1,13.3-5.7,13.4-13.1C264.2,136.1,258.4,130,251,129.9z"/>
</g>
<ellipse id="XMLID_584_" transform="matrix(0.2957 -0.9553 0.9553 0.2957 72.2145 376.0854)" class="st2" cx="291.2" cy="139.1" rx="19.4" ry="13.3"/>
<path id="XMLID_581_" class="st15" d="M298,144.7c-6.7,4.3-13.8,2.9-19-1.3c0.1,8.6-1.7,24.8-14,41.4c-9.9,13.3-31.2,17.7-47.1,17.1
	c-37.8-1.4-47.7-13-55.5-28.6c5.3,17.1,18.4,33,48.1,35c55.1,3.8,70.3-19.1,72.5-51.8c0.6,0.4,1.3,0.8,2,1.1
	c6.9,2.5,15.3-3.8,18.6-13.9c0.9-2.6,1.3-5.3,1.4-7.8C303.8,139.3,301.6,142.4,298,144.7z"/>
<path id="XMLID_580_" class="st15" d="M285.8,139.1l6.3,0.9c0-10,7.4-13.3,7.4-13.3C287.5,122.4,285.8,139.1,285.8,139.1z"/>
<g id="XMLID_388_">
	<g id="XMLID_389_">
		<defs>
			<path id="XMLID_390_" d="M219.9,162.8c-26.5,0.4-29.6-5.4-29.6-5.4s-5.9,23.9,26.4,24.1c30.8,0.2,28-22.6,27.8-23.7
				C244.5,158.4,244.2,162.5,219.9,162.8z"/>
		</defs>
		<clipPath id="XMLID_7_">
			<use xlink:href="#XMLID_390_"  style="overflow:visible;"/>
		</clipPath>
		<rect id="XMLID_564_" x="184.4" y="157.4" class="st70" width="63" height="24.4"/>
		<path id="XMLID_563_" class="st70" d="M248.4,182.8h-33.1h-31.9v-19.1h-5.1c1.6-2,3.5-4,5.6-5.7c4.1-3.5,9-6.3,14.5-8.2v6.6h35.2
			v-6.2c5.4,2,10.2,4.9,14.3,8.4c2,1.8,3.9,3.7,5.5,5.8h-5V182.8z"/>
		<path id="XMLID_561_" class="st71" d="M248.4,182.8h-33.1h-31.9V164h-4.7c1.6-2,3.5-3.9,5.5-5.6c4.1-3.4,8.9-6.2,14.3-8.1v6.2
			h34.8v-5.8c5.3,2,10.1,4.8,14.1,8.3c2,1.8,3.8,3.7,5.4,5.7h-4.5V182.8z"/>
		<path id="XMLID_560_" class="st72" d="M248.4,182.8h-33.1h-31.9v-18.6h-4.2c1.6-2,3.4-3.9,5.5-5.6c4-3.4,8.8-6.1,14.1-8v5.7h34.4
			V151c5.3,2,10,4.8,14,8.2c2,1.7,3.8,3.6,5.4,5.7h-4.1V182.8z"/>
		<path id="XMLID_559_" class="st73" d="M248.4,182.8h-33.1h-31.9v-18.3h-3.8c1.6-2,3.4-3.8,5.4-5.5c4-3.4,8.7-6.1,14-7.9v5.3h34v-5
			c5.2,1.9,9.9,4.7,13.8,8.1c2,1.7,3.7,3.6,5.3,5.6h-3.7V182.8z"/>
		<path id="XMLID_558_" class="st74" d="M248.4,182.8h-33.1h-31.9v-18.1H180c1.6-2,3.4-3.8,5.3-5.4c3.9-3.3,8.6-6,13.8-7.8v4.9h33.6
			v-4.6c5.2,1.9,9.8,4.7,13.7,8.1c1.9,1.7,3.7,3.5,5.2,5.5h-3.3V182.8z"/>
		<path id="XMLID_557_" class="st75" d="M248.4,182.8h-33.1h-31.9v-11.6h-7c2.2-4.4,5.4-8.3,9.3-11.5c3.9-3.3,8.5-5.9,13.6-7.7v4.5
			h33.2v-4.2c5.1,1.9,9.7,4.6,13.5,8c3.8,3.3,6.9,7.3,9,11.7h-6.7V182.8z"/>
		<path id="XMLID_556_" class="st76" d="M248.4,182.8h-33.1h-31.9v-11.5h-6.5c2.2-4.3,5.3-8.2,9.1-11.4c7.7-6.5,18.3-10.4,29.9-10.3
			c11.6,0.1,22.2,4.2,29.7,10.8c3.8,3.3,6.8,7.2,8.9,11.6h-6.2V182.8z"/>
		<path id="XMLID_555_" class="st77" d="M248.4,182.8h-33.1h-31.9v-11.3h-6c2.1-4.2,5.2-8.1,9-11.3c7.6-6.4,18-10.3,29.6-10.2
			c11.5,0.1,21.9,4.2,29.4,10.7c3.7,3.3,6.8,7.1,8.8,11.4h-5.8V182.8z"/>
		<path id="XMLID_554_" class="st78" d="M248.4,182.8h-33.1h-31.9v-11.1h-5.5c2.1-4.2,5.2-8,8.9-11.1c7.5-6.3,17.8-10.2,29.2-10.1
			c11.4,0.1,21.6,4.1,29,10.6c3.7,3.2,6.7,7,8.7,11.3h-5.3V182.8z"/>
		<path id="XMLID_553_" class="st79" d="M248.4,182.8h-33.1h-31.9v-10.9h-5.1c2.1-4.1,5.1-7.9,8.8-11c7.4-6.2,17.6-10,28.8-9.9
			c11.2,0.1,21.3,4.1,28.6,10.4c3.6,3.2,6.6,7,8.6,11.1h-4.8V182.8z"/>
		<path id="XMLID_552_" class="st80" d="M248.4,182.8h-33.1h-31.9V172h-4.6c2.1-4.1,5-7.8,8.7-10.8c7.3-6.2,17.4-9.9,28.5-9.8
			c11.1,0.1,21.1,4,28.3,10.3c3.6,3.1,6.5,6.9,8.5,11h-4.3V182.8z"/>
		<path id="XMLID_551_" class="st81" d="M248.4,182.8h-33.1h-31.9v-10.6h-4.1c2-4,5-7.7,8.6-10.7c7.2-6.1,17.2-9.8,28.1-9.7
			c10.9,0.1,20.8,4,27.9,10.2c7.1,6.2,11.5,14.7,11.4,24.1L248.4,182.8z"/>
		<path id="XMLID_550_" class="st82" d="M248.4,182.8h-33.1h-32l-6.8,2.6c0.2-18.5,17.8-33.3,39.4-33.1c21.6,0.2,39,15.3,38.8,33.8
			L248.4,182.8z"/>
		<path id="XMLID_549_" class="st83" d="M248.4,182.8h-33.1h-32l-6.3,2.6c0.2-18.2,17.6-32.9,38.9-32.7
			c21.3,0.2,38.4,15.1,38.3,33.4L248.4,182.8z"/>
		<path id="XMLID_511_" class="st84" d="M248.4,182.8h-33h-32l-5.8,2.6c0.2-18,17.3-32.4,38.3-32.3c21,0.2,37.9,14.9,37.8,32.9
			L248.4,182.8z"/>
		<path id="XMLID_510_" class="st85" d="M248.4,182.8h-33h-32l-5.3,2.6c0.2-17.8,17.1-32,37.8-31.8c20.7,0.2,37.4,14.7,37.3,32.5
			L248.4,182.8z"/>
		<path id="XMLID_509_" class="st86" d="M248.4,182.8h-33h-32l-4.8,2.6c0.2-17.5,16.9-31.6,37.3-31.4c20.5,0.2,36.9,14.5,36.7,32
			L248.4,182.8z"/>
		<path id="XMLID_508_" class="st87" d="M248.4,182.8h-33h-32l-4.3,2.6c0.2-17.3,16.6-31.1,36.8-30.9c20.2,0.2,36.4,14.3,36.2,31.6
			L248.4,182.8z"/>
		<path id="XMLID_506_" class="st88" d="M248.4,182.8h-33h-32l-3.8,2.6c0.2-17,16.4-30.7,36.3-30.5c19.9,0.2,35.9,14.1,35.7,31.1
			L248.4,182.8z"/>
		<path id="XMLID_504_" class="st89" d="M248.4,182.8h-33h-32l-3.2,2.6c0.1-16.8,16.2-30.2,35.8-30.1c19.6,0.2,35.4,13.9,35.2,30.7
			L248.4,182.8z"/>
		<path id="XMLID_503_" class="st90" d="M248.4,182.8h-33h-32l-2.7,2.6c0.1-16.5,15.9-29.8,35.2-29.6c19.3,0.2,34.9,13.7,34.7,30.3
			L248.4,182.8z"/>
		<path id="XMLID_502_" class="st91" d="M248.4,182.8h-33h-32l-2.2,2.6c0.1-16.3,15.7-29.4,34.7-29.2c19,0.2,34.3,13.5,34.2,29.8
			L248.4,182.8z"/>
		<path id="XMLID_501_" class="st92" d="M248.4,182.8h-33h-32l-1.7,2.7c0.1-16.1,15.5-28.9,34.2-28.8c18.7,0.2,33.8,13.3,33.7,29.4
			L248.4,182.8z"/>
		<path id="XMLID_499_" class="st93" d="M248.4,182.8h-33h-32l-1.2,2.7c0.1-15.8,15.2-28.5,33.7-28.3c18.5,0.2,33.3,13.1,33.2,28.9
			L248.4,182.8z"/>
		<path id="XMLID_498_" class="st94" d="M248.4,182.8h-33h-32l-0.7,2.7c0.1-15.6,15-28.1,33.2-27.9c18.2,0.2,32.8,12.9,32.7,28.5
			L248.4,182.8z"/>
		<path id="XMLID_497_" class="st95" d="M248.1,182.8h-32.6h-32l-0.2,2.7c0.1-15.3,14.8-27.6,32.6-27.5c17.9,0.2,32.3,12.7,32.2,28
			V182.8z"/>
		<path id="XMLID_496_" class="st96" d="M247.6,182.8h-32.1h-31.6v2.7c0.1-15.1,14.5-27.2,32.1-27c17.6,0.2,31.8,12.5,31.6,27.6
			V182.8z"/>
		<path id="XMLID_495_" class="st97" d="M247.1,182.8h-31.6h-31.1v2.7c0.1-14.8,14.3-26.7,31.6-26.6c17.3,0.2,31.3,12.3,31.1,27.1
			V182.8z"/>
		<path id="XMLID_494_" class="st98" d="M246.5,182.8h-31.1h-30.6v2.7c0.1-14.6,14.1-26.3,31.1-26.2c17,0.2,30.8,12.1,30.6,26.7
			V182.8z"/>
		<path id="XMLID_493_" class="st99" d="M246,182.8h-30.6h-30.1v2.7c0.1-14.4,13.8-25.9,30.6-25.7s30.2,11.9,30.1,26.3V182.8z"/>
		<path id="XMLID_492_" class="st100" d="M245.5,182.8h-30.1h-29.6v2.7c0.1-14.1,13.6-25.4,30.1-25.3c16.5,0.1,29.7,11.7,29.6,25.8
			V182.8z"/>
		<path id="XMLID_485_" class="st101" d="M245,182.8h-29.5h-29.1v2.7c0.1-13.9,13.3-25,29.5-24.8c16.2,0.1,29.2,11.5,29.1,25.4
			V182.8z"/>
		<path id="XMLID_484_" class="st102" d="M244.5,182.8h-29h-28.6v2.7c0.1-13.6,13.1-24.5,29-24.4c15.9,0.1,28.7,11.3,28.6,24.9
			V182.8z"/>
		<path id="XMLID_483_" class="st103" d="M244,182.8h-28.5h-28.1v2.7c0.1-13.4,12.9-24.1,28.5-24c15.6,0.1,28.2,11.1,28.1,24.5
			V182.8z"/>
		<path id="XMLID_481_" class="st104" d="M243.5,182.8h-28h-27.6v2.7c0.1-13.1,12.6-23.7,28-23.5c15.3,0.1,27.7,10.9,27.6,24V182.8z
			"/>
		<path id="XMLID_480_" class="st105" d="M242.9,182.8h-27.5h-27.1v2.7c0.1-12.9,12.4-23.2,27.5-23.1s27.2,10.7,27.1,23.6V182.8z"/>
		<path id="XMLID_479_" class="st106" d="M242.4,182.8h-26.9h-26.5v2.7c0.1-12.6,12.2-22.8,26.9-22.7c14.8,0.1,26.7,10.5,26.5,23.1
			V182.8z"/>
		<path id="XMLID_478_" class="st107" d="M241.9,182.8h-26.4h-26v2.7c0.1-12.4,11.9-22.4,26.4-22.2c14.5,0.1,26.1,10.3,26,22.7
			V182.8z"/>
		<path id="XMLID_477_" class="st108" d="M241.4,182.8h-25.9H190v2.7c0.1-12.2,11.7-21.9,25.9-21.8c14.2,0.1,25.6,10.1,25.5,22.2
			V182.8z"/>
		<path id="XMLID_476_" class="st109" d="M240.9,182.8h-25.4h-25v2.7c0.1-11.9,11.5-21.5,25.4-21.4c13.9,0.1,25.1,9.9,25,21.8V182.8
			z"/>
		<path id="XMLID_463_" class="st110" d="M240.4,182.8h-24.9H191v2.7c0.1-11.7,11.2-21,24.9-20.9c13.6,0.1,24.6,9.7,24.5,21.4V182.8
			z"/>
		<path id="XMLID_452_" class="st111" d="M239.9,182.8h-24.4h-24v2.7c0.1-11.4,11-20.6,24.4-20.5c13.4,0.1,24.1,9.5,24,20.9V182.8z"
			/>
		<path id="XMLID_447_" class="st112" d="M239.3,182.8h-23.8H192v2.7c0.1-11.2,10.8-20.2,23.8-20c13.1,0.1,23.6,9.3,23.5,20.5V182.8
			z"/>
		<path id="XMLID_446_" class="st113" d="M238.8,182.8h-23.3h-23v2.7c0.1-10.9,10.5-19.7,23.3-19.6c12.8,0.1,23.1,9.1,23,20V182.8z"
			/>
		<path id="XMLID_440_" class="st114" d="M238.3,182.8h-22.8h-22.5v2.8c0.1-10.7,10.3-19.3,22.8-19.2c12.5,0.1,22.6,8.9,22.5,19.6
			V182.8z"/>
		<path id="XMLID_434_" class="st115" d="M237.8,182.8h-22.3h-21.9v2.8c0.1-10.5,10.1-18.9,22.3-18.7c12.2,0.1,22,8.7,21.9,19.1
			V182.8z"/>
		<path id="XMLID_433_" class="st116" d="M237.3,182.8h-21.8h-21.4v2.8c0.1-10.2,9.8-18.4,21.8-18.3c11.9,0.1,21.5,8.5,21.4,18.7
			V182.8z"/>
		<path id="XMLID_432_" class="st117" d="M236.8,182.8h-21.2h-20.9v2.8c0.1-10,9.6-18,21.2-17.9c11.6,0.1,21,8.3,20.9,18.2V182.8z"
			/>
		<path id="XMLID_431_" class="st118" d="M236.3,182.8h-20.7h-20.4v2.8c0.1-9.7,9.4-17.5,20.7-17.4c11.4,0.1,20.5,8.1,20.4,17.8
			V182.8z"/>
		<path id="XMLID_429_" class="st119" d="M235.7,182.8h-20.2h-19.9v2.8c0.1-9.5,9.1-17.1,20.2-17c11.1,0.1,20,7.9,19.9,17.4V182.8z"
			/>
		<path id="XMLID_428_" class="st120" d="M235.2,182.8h-19.7h-19.4v2.8c0.1-9.2,8.9-16.7,19.7-16.6c10.8,0.1,19.5,7.7,19.4,16.9
			V182.8z"/>
		<path id="XMLID_427_" class="st121" d="M234.7,182.8h-19.2h-18.9v2.8c0.1-9,8.7-16.2,19.2-16.1c10.5,0.1,19,7.5,18.9,16.5V182.8z"
			/>
		<path id="XMLID_426_" class="st122" d="M234.2,182.8h-18.7h-18.4v2.8c0.1-8.8,8.4-15.8,18.7-15.7c10.2,0.1,18.5,7.3,18.4,16V182.8
			z"/>
		<path id="XMLID_425_" class="st123" d="M233.7,182.8h-18.1h-17.9v2.8c0.1-8.5,8.2-15.3,18.1-15.3c9.9,0.1,17.9,7.1,17.9,15.6
			V182.8z"/>
		<path id="XMLID_424_" class="st124" d="M233.2,182.8h-17.6h-17.4v2.8c0.1-8.3,8-14.9,17.6-14.8c9.7,0.1,17.4,6.9,17.4,15.1V182.8z
			"/>
		<path id="XMLID_423_" class="st125" d="M232.7,182.8h-17.1h-16.8v2.8c0.1-8,7.7-14.5,17.1-14.4c9.4,0.1,16.9,6.7,16.8,14.7V182.8z
			"/>
		<path id="XMLID_422_" class="st126" d="M232.1,182.8h-16.6h-16.3v2.8c0.1-7.8,7.5-14,16.6-13.9c9.1,0.1,16.4,6.5,16.3,14.2V182.8z
			"/>
		<path id="XMLID_421_" class="st127" d="M231.6,182.8h-16.1h-15.8v2.8c0.1-7.5,7.3-13.6,16.1-13.5c8.8,0.1,15.9,6.3,15.8,13.8
			V182.8z"/>
		<path id="XMLID_420_" class="st128" d="M231.1,182.8h-15.5h-15.3v2.8c0.1-7.3,7-13.2,15.5-13.1c8.5,0.1,15.4,6.1,15.3,13.3V182.8z
			"/>
		<path id="XMLID_419_" class="st129" d="M230.6,182.8h-15h-14.8v2.8c0.1-7.1,6.8-12.7,15-12.6c8.2,0.1,14.9,5.9,14.8,12.9V182.8z"
			/>
		<path id="XMLID_418_" class="st130" d="M230.1,182.8h-14.5h-14.3v2.8c0.1-6.8,6.6-12.3,14.5-12.2c8,0.1,14.4,5.6,14.3,12.5V182.8z
			"/>
		<path id="XMLID_417_" class="st131" d="M229.6,182.8h-14h-13.8v2.8c0.1-6.6,6.3-11.8,14-11.8c7.7,0.1,13.8,5.4,13.8,12V182.8z"/>
		<path id="XMLID_416_" class="st132" d="M229.1,182.8h-13.5h-13.3v2.8c0.1-6.3,6.1-11.4,13.5-11.3c7.4,0.1,13.3,5.2,13.3,11.6
			V182.8z"/>
		<path id="XMLID_415_" class="st133" d="M228.5,182.8h-13h-12.8v2.8c0.1-6.1,5.9-11,13-10.9c7.1,0.1,12.8,5,12.8,11.1V182.8z"/>
		<path id="XMLID_414_" class="st134" d="M228,182.8h-12.4h-12.2v2.8c0.1-5.8,5.6-10.5,12.4-10.5c6.8,0.1,12.3,4.8,12.2,10.7V182.8z
			"/>
		<path id="XMLID_413_" class="st135" d="M227.5,182.8h-11.9h-11.7v2.8c0-5.6,5.4-10.1,11.9-10c6.5,0.1,11.8,4.6,11.7,10.2V182.8z"
			/>
		<path id="XMLID_412_" class="st136" d="M227,182.8h-11.4h-11.2v2.9c0-5.4,5.2-9.6,11.4-9.6c6.2,0.1,11.3,4.4,11.2,9.8V182.8z"/>
		<path id="XMLID_411_" class="st137" d="M226.5,182.8h-10.9h-10.7v2.9c0-5.1,4.9-9.2,10.9-9.2s10.8,4.2,10.7,9.3V182.8z"/>
		<path id="XMLID_410_" class="st138" d="M226,182.8h-10.4h-10.2v2.9c0-4.9,4.7-8.8,10.4-8.7c5.7,0.1,10.3,4,10.2,8.9V182.8z"/>
		<path id="XMLID_409_" class="st139" d="M225.5,182.8h-9.8h-9.7v2.9c0-4.6,4.4-8.3,9.8-8.3c5.4,0,9.7,3.8,9.7,8.5V182.8z"/>
		<path id="XMLID_408_" class="st140" d="M224.9,182.8h-9.3h-9.2v2.9c0-4.4,4.2-7.9,9.3-7.8c5.1,0,9.2,3.6,9.2,8V182.8z"/>
		<path id="XMLID_407_" class="st141" d="M224.4,182.8h-8.8h-8.7v2.9c0-4.1,4-7.5,8.8-7.4c4.8,0,8.7,3.4,8.7,7.6V182.8z"/>
		<path id="XMLID_406_" class="st142" d="M223.9,182.8h-8.3h-8.2v2.9c0-3.9,3.7-7,8.3-7c4.5,0,8.2,3.2,8.2,7.1V182.8z"/>
		<path id="XMLID_405_" class="st143" d="M223.4,182.8h-7.8H208v2.9c0-3.6,3.5-6.6,7.8-6.5c4.3,0,7.7,3,7.7,6.7V182.8z"/>
		<path id="XMLID_404_" class="st144" d="M222.9,182.8h-7.3h-7.1v2.9c0-3.4,3.3-6.1,7.3-6.1c4,0,7.2,2.8,7.1,6.2V182.8z"/>
		<path id="XMLID_403_" class="st145" d="M222.4,182.8h-6.7H209v2.9c0-3.2,3-5.7,6.7-5.7c3.7,0,6.7,2.6,6.6,5.8V182.8z"/>
		<path id="XMLID_402_" class="st146" d="M221.9,182.8h-6.2h-6.1v2.9c0-2.9,2.8-5.3,6.2-5.2c3.4,0,6.2,2.4,6.1,5.3V182.8z"/>
		<path id="XMLID_401_" class="st147" d="M221.3,182.8h-5.7H210v2.9c0-2.7,2.6-4.8,5.7-4.8c3.1,0,5.6,2.2,5.6,4.9V182.8z"/>
		<path id="XMLID_400_" class="st148" d="M220.8,182.8h-5.2h-5.1v2.9c0-2.4,2.3-4.4,5.2-4.4c2.8,0,5.1,2,5.1,4.4V182.8z"/>
		<path id="XMLID_399_" class="st149" d="M220.3,182.8h-4.7h-4.6v2.9c0-2.2,2.1-3.9,4.7-3.9c2.6,0,4.6,1.8,4.6,4V182.8z"/>
		<path id="XMLID_398_" class="st150" d="M219.8,182.8h-4.1h-4.1v2.9c0-1.9,1.9-3.5,4.1-3.5c2.3,0,4.1,1.6,4.1,3.6V182.8z"/>
		<path id="XMLID_397_" class="st151" d="M219.3,182.8h-3.6h-3.6v2.9c0-1.7,1.6-3.1,3.6-3.1c2,0,3.6,1.4,3.6,3.1V182.8z"/>
		<path id="XMLID_396_" class="st152" d="M218.8,182.8h-3.1H218.8z"/>
		<path id="XMLID_395_" class="st153" d="M218.3,182.8h-2.6H218.3z"/>
		<path id="XMLID_394_" class="st154" d="M217.7,182.8h-2.1H217.7z"/>
		<path id="XMLID_393_" class="st155" d="M217.2,182.8h-1.6H217.2z"/>
		<path id="XMLID_392_" class="st156" d="M216.7,182.8h-1H216.7z"/>
		<path id="XMLID_391_" class="st157" d="M216.2,182.8h-0.5H216.2z"/>
	</g>
</g>
<path id="XMLID_387_" class="st16" d="M244.5,157.8C244.5,157.8,244.5,157.8,244.5,157.8C244.5,157.8,244.5,157.8,244.5,157.8z"/>
<path id="XMLID_386_" class="st158" d="M219.9,162.8c-12.4,0.2-19.6-1-23.9-2.3c-2.4,6.5,7.7,10.2,20.3,10.3
	c13.4,0.1,24.1-3.3,22.1-9.7C234.9,162,229.1,162.7,219.9,162.8z"/>
<path id="XMLID_381_" class="st159" d="M219.9,162.8c-12.4,0.2-19.6-1-23.9-2.3c-0.9,2.5,0.1,4.6,2.3,6.3
	c11.4-4.1,24.5-3.8,35.2,1.4c0,0,0,0,0,0c3.8-1.6,5.8-4,4.9-7.1C234.9,162,229.1,162.7,219.9,162.8z"/>
<path id="XMLID_380_" class="st160" d="M210.2,134.4c0,0-9.6-6.8-13.2,4.5c5.1,1.2,10.5,2.1,15.8,2.4c3.2-7.6,4.2-15.8,4.5-24.8
	c-0.7-0.2-1.4-0.4-2.2-0.6C215.3,121.4,214.6,128.5,210.2,134.4z"/>
<path id="XMLID_379_" class="st161" d="M226.5,23.7c-70,4.6-59.9,82.3-59.9,82.3c4.2-23.1,18.6-51.7,29.6-52.3c0,0,9.6,7.8,23.9,8.1
	c12.8,0.3,30.6-9.1,30.6-9.1c12.8-0.3,27.4,39.3,29.1,71.2c0.4,7.3,6.7-1.1,6.7-1.1S295.1,19.1,226.5,23.7z"/>
<path id="XMLID_378_" class="st161" d="M263.1,29.7C242.4-1.9,174.9,7.3,174.9,7.3c-6.5,35.9,18.5,43.9,18.5,43.9
	s58.4-10.4,67.3-4.2s26.1,56.4,26.1,56.4s14.9-52.3,3.9-71.6C282.6,17.7,263.1,29.7,263.1,29.7z"/>
<path id="XMLID_371_" class="st161" d="M201,0c0.2,4.7,4.3,9.6,4.3,9.6s70.8,48.1,57.7,20.1S201,0,201,0z"/>
<path id="XMLID_368_" class="st161" d="M274.6,20.1c-4,0.6-4.9,2.5-4.9,2.5c2.9-5.2,0.9-12.4,0.9-12.4c-7.8,4.5-7,10.7-7,10.7
	c-3.8-8-15.5-10.5-15.5-10.5c0.4,6.6,7.4,13.3,7.8,13.5l6.1,9.3l12.6-2l-1.2-5.6C275.3,22.7,274.6,20.1,274.6,20.1z"/>
<path id="XMLID_367_" class="st162" d="M176.8,34.6c-20.6,6.3-14.6,88.2-14.6,88.2c4.2-23.1,23.1-68.6,34.1-69.2
	C196.3,53.7,186,47.6,176.8,34.6z"/>
<path id="XMLID_365_" class="st22" d="M256.9,29.1L256.9,29.1C256.9,29.1,257,29.1,256.9,29.1z"/>
<path id="XMLID_364_" class="st22" d="M256.9,28.9L256.9,28.9C256.9,28.9,256.9,28.9,256.9,28.9z"/>
<path id="XMLID_363_" class="st163" d="M282.8,25.5c-2.5,0.4-5.2,1-7.9,1.7c-6.5,1.5-13.4,2.5-20.2,1.6c-7.8-1-14.6-4.5-21.6-8
	c-3.5-1.8-7-3.6-10.6-5.1c-7.7-3.3-16.8-6.6-25.3-6.3c-4.2,0.1-8.3,1.4-12.2,3c-3.6,1.5-6.5,3.6-8.7,5.8c-0.9,0.9-1.7,1.9-2.4,2.8
	c0.1,2.8,0.5,5.4,1,7.7c0.3-0.2,0.5-0.4,0.8-0.7c1.4-1,3.2-2.1,5.2-3c2.1-0.8,4.4-1.6,7-1.8c10.1-0.8,19.5,3.3,28.7,7.1
	c3.7,1.5,7.5,3.3,11.6,5c4,1.7,8.2,3.3,12.6,4.7c7.4,2.2,16.4,2.9,23.9,0.8c1-0.3,2-0.5,3-0.8c3.9-1.2,7.3-2.8,10.2-4.3
	c2.9-1.5,5.4-2.9,7.6-3.9c1.5-0.7,2.9-1.3,4.1-1.7C287.7,27.6,285.3,26.2,282.8,25.5z"/>
<path id="XMLID_362_" class="st22" d="M256.7,29.1C256.7,29.1,256.8,29.1,256.7,29.1L256.7,29.1L256.7,29.1z"/>
<path id="XMLID_361_" class="st161" d="M279.9,122.8c-3.3,35.2-30,35.2-30,35.2s6,28.3-32.4,27.9c-39.7-0.4-34.4-28.2-34.4-28.2
	c-21.5-2.5-20.9-35-20.9-35c-8.5,34.4-13.3,89.4,59,88.2c72.4-1.2,62.6-55.5,62.6-55.5c-3.5-12.2,2.9-32.7,2.9-32.7L279.9,122.8z"/>
<path id="XMLID_359_" class="st161" d="M212.6,146.8c0,0-9.3-1.3-23.3,2.9c-13.3,4-18.5,1.6-18.5,1.6s3.3,10.5,44.6,11.5
	c35.1,0.8,46.5-6.4,46.5-6.4S245.5,146.2,212.6,146.8z"/>
<path id="XMLID_358_" class="st161" d="M212.6,146.8c0,0-9.3-1.3-23.3,2.9c-13.3,4-18.5,1.6-18.5,1.6s3.3,10.5,44.6,11.5
	c35.1,0.8,46.5-6.4,46.5-6.4S245.5,146.2,212.6,146.8z"/>
<path id="XMLID_357_" class="st164" d="M220.8,190.9c-3.6,0.2-6.6,0-8.8-0.4c-5-0.8-7.5,6-3,8.3c1.6,0.8,4,1.4,7.4,1.4
	c2.4,0,4.3-0.2,5.8-0.6C227.4,198.4,226.1,190.5,220.8,190.9z"/>
<path id="XMLID_356_" class="st165" d="M174.9,99.6c0,0-3.7,18.4-3.3,21.8c0.3,3.4,29.3,5.2,29.3,5.2s10.9-27.2,8.2-43.5
	C209.1,83.1,181.5,87.6,174.9,99.6z"/>
<path id="XMLID_355_" class="st165" d="M237.5,78c0,0-10.6,26.5-3.3,47.3l32.3,1.5c0,0,5.7-18.2,3.8-26.7
	C268.5,91.7,237.5,78,237.5,78z"/>
<path id="XMLID_351_" class="st158" d="M253,112.9c-13.8-1.2-18.8,12.5-18.8,12.5s1.9,8.5,16.4,8.5c15.1,0,15.9-7.6,15.9-7.6
	S266.9,114.1,253,112.9z"/>
<path id="XMLID_350_" class="st158" d="M171.6,121.4c0,0-2.2,8.5,12.9,9.3c15.1,0.8,16.5-4,16.5-4s-1-6-4.4-9.7
	C191,110.7,180.9,107.1,171.6,121.4z"/>
<linearGradient id="XMLID_8_" gradientUnits="userSpaceOnUse" x1="186.0428" y1="132.9176" x2="193.0287" y2="114.2886">
	<stop  offset="0" style="stop-color:#5C3333"/>
	<stop  offset="1" style="stop-color:#000000"/>
</linearGradient>
<path id="XMLID_349_" class="st166" d="M191.7,116.6c-3.1-1.1-7,2.2-8.7,7.3c-0.8,2.3-0.9,4.6-0.5,6.6c0.6,0.1,1.3,0.1,2,0.2
	c3.7,0.2,6.5,0.1,8.8-0.3c0.5-0.8,0.9-1.7,1.2-2.6C196.1,122.7,194.8,117.7,191.7,116.6z"/>
<path id="XMLID_347_" class="st167" d="M181.1,125.3l0.5,2.2c0,0,9-0.7,8.1-4.8C188.8,118.5,181.1,125.3,181.1,125.3z"/>
<linearGradient id="XMLID_9_" gradientUnits="userSpaceOnUse" x1="245.8214" y1="136.9626" x2="252.4937" y2="116.7372">
	<stop  offset="0" style="stop-color:#5C3333"/>
	<stop  offset="1" style="stop-color:#000000"/>
</linearGradient>
<path id="XMLID_346_" class="st168" d="M252.1,117.5c-3.1-1.1-6.9,2.2-8.5,7.3c-1,3.1-0.9,6.1,0,8.3c1.9,0.5,4.2,0.8,7,0.8
	c0.4,0,0.8,0,1.2,0c1.2-1.3,2.3-3.1,3-5.2C256.4,123.6,255.2,118.6,252.1,117.5z"/>
<path id="XMLID_345_" class="st167" d="M241.9,127.5l-0.2,2.3c0,0,9.4-0.4,8.5-4.5C249.3,121.2,241.9,127.5,241.9,127.5z"/>
<path id="XMLID_344_" class="st23" d="M187.5,108.7c-13.9-1.4-15.9,12.7-15.9,12.7s3.5-7.9,13.8-8.1c10.3-0.3,15.5,13.4,15.5,13.4
	S203.1,110.2,187.5,108.7z"/>
<path id="XMLID_343_" class="st162" d="M174.9,99.6c10.5-6.3,27.1-2.1,33-8.3c2.3-2.4,0.8-11.9,0.8-11.9
	C178,84.2,174.9,99.6,174.9,99.6z"/>
<path id="XMLID_342_" class="st162" d="M237.5,78c0,0-3.7,7.5-2.1,10.1c4.9,7.9,26.5,5.5,35,12.1C270.3,100.2,272.6,87,237.5,78z"/>
<path id="XMLID_341_" class="st23" d="M251.2,109.5c-15.5-0.4-17,15.9-17,15.9s4.3-10.6,18-9.6c13.7,1,14.3,10.5,14.3,10.5
	S266.7,109.9,251.2,109.5z"/>
<path id="XMLID_340_" class="st2" d="M209.6,133.9c0,0-10-7.5-13.6,5.5c-3.6,13,21.9,20.8,28.9,7.2c7-13.6-11.1-38.9-11.1-38.9
	S217.3,123.3,209.6,133.9z"/>
<path id="XMLID_339_" class="st160" d="M209.6,133.9c0,0-9.7-7-13.3,4.7c5.2,1.3,10.6,2.2,15.9,2.5c3.2-7.8,4.2-16.2,4.6-25.4
	c-0.7-0.2-1.4-0.4-2.2-0.6C214.8,120.6,214.1,127.8,209.6,133.9z"/>
<path id="XMLID_338_" class="st15" d="M195.8,143.1c1.5,10.7,22.8,15.8,29.2,3.6c0.4-0.7,0.7-1.5,0.9-2.3
	C215.8,146.5,205.4,145.8,195.8,143.1z"/>
<path id="XMLID_231_" class="st3" d="M82.6,139.5c2.2,7.8-8.1,30.3-17.9,29.2c-9.9-1.1-13.7,3.7-23.2,6.2
	c-9.4,2.5-26.6-12.4-26.9-12.6c4.1,15.4,16.5,18.3,19,23.5v0c1.8,16.3-19.3,74.5-25.3,106.2c-3.5,18.2-8.1,56.1,14.7,65.2
	c10.1,4,22.4-2.2,30.2-9.4c7.8-7.2,10.6-17.8,12-27.9c2.1-15.3-0.2-30.4,0.1-45.9c0.3-18.5,0.6-39.3,0.5-57.8
	c0-1.6,1.2-30.4,2.5-38.6c0.9-2.5,2.4-5,4-7c2.9-3.7,6.2-7.1,8.6-11.3c0.3-0.5,0.5-1,0.8-1.5C84.5,151.8,84.5,145.4,82.6,139.5z
	 M51.8,204.9c-2.9,25.5,1.3,65.8-2.3,99.2c-3.7,33.3-36,24-37.2-2.8c-1.2-26.8,18-74,22.2-93.2C37.5,194.1,53.5,190.2,51.8,204.9z"
	/>
</svg>
