<?xml version="1.0" encoding="utf-8"?>
<!-- Generator: Adobe Illustrator 23.0.1, SVG Export Plug-In . SVG Version: 6.00 Build 0)  -->
<svg version="1.1" id="Layer_55" xmlns="http://www.w3.org/2000/svg" xmlns:xlink="http://www.w3.org/1999/xlink" x="0px" y="0px"
	 viewBox="0 0 999.4 794.6" style="enable-background:new 0 0 999.4 794.6;" xml:space="preserve">
<style type="text/css">
	.st0{fill:#18A2F7;}
	.st1{fill:#D0CCC8;}
	.st2{fill:#F6BD96;}
	.st3{fill:#667CD7;}
	.st4{fill:#576FD2;}
	.st5{fill:none;stroke:#6D6E71;stroke-width:11.9417;stroke-linejoin:round;stroke-miterlimit:10;}
	.st6{fill:#FFFFFF;}
	.st7{fill:#4C4C4C;}
	.st8{fill:#1D5DC4;}
	.st9{fill:#2C2C4C;}
	.st10{fill:#4C4C75;}
	.st11{fill:#39395C;}
	.st12{fill:#7E8EE8;}
	.st13{fill:#A6A8AB;}
	.st14{fill:#E7A579;}
	.st15{fill:#091A4C;}
	.st16{fill:none;stroke:#808184;stroke-width:1.4694;stroke-miterlimit:10;}
	.st17{fill:none;stroke:#808184;stroke-width:1.5744;stroke-miterlimit:10;}
	.st18{fill:none;stroke:#E7A579;stroke-width:1.706;stroke-linecap:round;stroke-miterlimit:10;}
	.st19{fill:none;stroke:#D79468;stroke-width:1.706;stroke-linecap:round;stroke-miterlimit:10;}
	.st20{fill:#A5B4F6;}
	.st21{fill:#6D6E71;}
	.st22{fill:none;stroke:#D0CCC8;stroke-width:12.2755;stroke-linejoin:round;stroke-miterlimit:10;}
	.st23{fill:none;stroke:#000000;stroke-width:29.8541;stroke-miterlimit:10;}
	.st24{fill:#808184;}
	.st25{fill:#FFA82F;}
	.st26{fill:#20A7F7;}
	.st27{fill:#FA9E9E;}
	.st28{fill:#00B580;}
	.st29{fill:none;stroke:#FF7E19;stroke-width:5.9708;stroke-miterlimit:10;}
	.st30{fill:#1A1A3A;}
	.st31{fill:#D0D2D3;}
	.st32{fill:#BBBDBF;}
</style>
<g>
	<g>
		<path class="st0" d="M100.6,315v8.1c0,14.9,12.1,26.9,26.9,26.9c14.9,0,26.9-12.1,26.9-26.9V315H100.6z"/>
		<path class="st0" d="M86.2,344.1c9.3,5.1,24.3,8.4,41.3,8.4s32-3.3,41.3-8.4H86.2z"/>
		<g>
			<path class="st0" d="M139.6,343.7l-0.2-2.9c0.1,0,14.6-1,19-7.2c1.9-2.6,2.1-5.6,0.6-8.1c-3.1-5.3-13.3-3.4-15.3-3l-0.6-2.9
				c3.3-0.7,14.4-2.5,18.4,4.3c2,3.4,1.7,7.7-0.8,11.3C155.5,342.6,140.2,343.7,139.6,343.7z"/>
		</g>
	</g>
	<g>
		<path class="st1" d="M131.2,254.5c1.3,0.7,2.5,1.6,3.5,2.7c1,1.1,1.9,2.4,2.5,3.9c0.6,1.5,0.8,3.2,0.6,4.9
			c-0.2,1.7-0.9,3.5-2.2,4.7c-1.2,1.2-2.7,1.9-4,2.5c-1.4,0.6-2.7,1-3.9,1.7c-1.2,0.6-2.2,1.5-2.9,2.5c-0.6,1.1-0.7,2.3-0.5,3.5
			c0.2,1.2,0.8,2.2,1.5,3.1c0.7,0.9,1.6,1.9,2.5,2.8c1,0.9,2,1.9,3,2.9c1,1,2,2.2,2.8,3.7c0.8,1.5,1.3,3.2,1.4,4.9
			c0,1.7-0.3,3.3-0.9,4.8c-1.2,2.9-3,5.2-5,7.2l-0.4-0.2c0.8-2.8,1.7-5.4,2-7.9c0.2-1.2,0.2-2.4,0-3.5c-0.2-1.1-0.6-2-1.2-3
			c-1.2-1.9-3-3.9-4.9-6.2c-0.9-1.1-1.8-2.4-2.5-3.9c-0.7-1.5-1-3.2-0.8-4.8c0.2-1.6,0.7-3.2,1.7-4.4c1-1.2,2.2-2.1,3.4-2.9
			c2.3-1.6,4.7-3.4,5.8-5.3c0.6-0.9,0.9-1.8,1.1-2.9c0.2-1.1,0.2-2.2,0-3.4c-0.2-1.2-0.6-2.3-1.2-3.6c-0.5-1.2-1.2-2.4-1.9-3.7
			L131.2,254.5z"/>
	</g>
</g>
<path class="st2" d="M553.2,269c-25.9,32.4-53.3,60.4-92.2,74.8c49.5,9,103.2-11.3,134.4-50.8L553.2,269z"/>
<path class="st3" d="M598,176.8c2.5,3-14.7,41.7-17.2,47.3c-3.3,7.4-7.2,14.3-11.8,20.9c-3.7,5.4-14.2,13.1-15.7,18.8
	c-0.6,2.4,0.6,5,2.3,6.9c1.7,1.8,4,3.1,6,4.6c5,3.7,8.7,9.1,10.6,15c1,3.2,1.7,6.9,4.6,8.5c2.7,1.5,6.2,0.3,8.4-1.9
	c20.7-21.3,39.7-47.4,50.7-75.5C636,221.3,598.1,176.8,598,176.8z"/>
<path class="st4" d="M544.4,277.1c16.8,3.9,31.3,16.5,37.5,32.6c7.1,0.3,14-4.3,17.3-10.7c3.3-6.4,3.2-14.1,0.9-20.9
	c-2.4-6.7-6.9-12.6-12.1-17.4c-7.2-6.7-17.7-12.7-27.9-11.4C550.3,250.5,547.6,268.8,544.4,277.1z"/>
<line class="st5" x1="647" y1="462.3" x2="647" y2="719.4"/>
<path class="st6" d="M498.7,404.1l-81.1,23.4l222,65c0,0,199.1-6.3,208-277.6l-180.3-40.1c0,0-6.6,142.1-42.8,178.8
	C588.4,390.1,498.7,404.1,498.7,404.1z"/>
<path class="st7" d="M483.4,401.6L402.3,425l222,65c0,0,199.1-6.3,208-277.6L652,172.3c0,0-6.6,142.1-42.8,178.8
	C573.1,387.7,483.4,401.6,483.4,401.6z"/>
<path class="st8" d="M668.7,573.9c1.4,4.6,5.2,8.7,9.9,8.6c3.4-0.1,5.8-10.1,6.8-12.4c1.9-4.6,2.9-9.3,4.5-14
	c2.1-6.2,2.7-13.4,3.9-19.9c1.5-8.5,3.2-17,4.2-25.5c0.8-6.2,1.1-13.2-2.7-18.2c-4.2-5.5-11.9-6.8-18.8-7.6
	c-6.9-0.8-14.6-2.1-18.7-7.7c-3.3,7.4-6.6,14.8-9.9,22.2c-0.4,1-0.9,2-0.9,3.1c0.2,5.3,23.2,15.3,21.8,54.9
	c-0.2,5.1-1.4,10.3-0.4,15.3C668.5,573.1,668.6,573.5,668.7,573.9z"/>
<path class="st8" d="M381.1,747.3c-4,2.6-6.9,7.4-5.4,11.9c1,3.2,89.9,2.8,92.6,1.2c4.9-2.9,3-7.3,2.4-11.7
	c-0.8-6.2-2.1-12.4-2.6-18.6c-0.1-2.1-1.2-21.1,2.8-20.6c-8-1.1-16.1-2.1-24.1-3.2c-1.1-0.1-2.2-0.3-3.3,0.1
	c-5,1.7-8.1,26.5-46.6,36.4c-5,1.3-10.2,1.6-14.8,4C381.8,746.8,381.5,747.1,381.1,747.3z"/>
<path class="st9" d="M674.4,400.2C647,421,612,430.7,577.6,431c-34.5,0.3-68.6-8.2-100.6-20.9c-29.5-11.7-48.2-13.2-77.1-26.4
	c-5.7-2.6-9.5-18.6-1.5-29c4.9-6.4,2-12.7,9.6-13.4c58.8-5.5,117.3,2.9,173.8,19.7C614,370.5,645.2,383.7,674.4,400.2z"/>
<path class="st10" d="M580.8,506.7c15.8-6.6,31.6-13,47.4-19.7c14-6,29.3-9.4,43.3-16c12.9-6.1,25-14.8,33.2-26.5
	c5.3-7.7,8.9-17.2,6.7-26.3c-7.4-31.6-63.3-29.2-87-25.6C559,402.6,477.9,456,452.7,519c-12.6,31.5-24.6,142.5-24.6,201.5
	c14.5,1.7,29.1,3.4,43.6,5.1c14.1-53.4,28.2-106.8,42.3-160.2c2.6-9.9,5.4-20.1,11.6-28.2c8.3-10.9,21.5-16.6,34.1-21.8
	C566.8,512.5,573.8,509.6,580.8,506.7z"/>
<path class="st11" d="M664.1,470.4c-19.1,5.8-38.8,8.8-58.3,12.5c-26.7,5-55.8,10.6-77,28.9c-11.3,9.7-18.5,22.9-24.4,36.3
	c-6.4,14.6-11.1,29.9-15,45.3c-3.8,15-6.9,30.2-9.9,45.5c-3.5,17.6-7.8,35.1-12,52.6c-2.6,10.9-5.2,21.9-7.7,32.8
	c4,0.5,7.9,0.9,11.9,1.4c14.1-53.4,28.2-106.8,42.3-160.2c2.6-9.9,5.4-20.1,11.6-28.2c8.3-10.9,21.5-16.6,34.1-21.8
	c7-2.9,14.1-5.8,21.1-8.8c15.8-6.6,31.6-13,47.4-19.7c14-6,29.3-9.4,43.3-16c6.1-2.9,12-6.3,17.4-10.4
	C680.9,464.7,672.6,467.9,664.1,470.4z"/>
<path class="st12" d="M751.2,161.4c-11.3-9.8-24.2-17.3-37.5-23.9c-12.3-6.1-25.6-12.6-39.7-12.3c-8.9,0.2-17.8,1.8-26.2,4.8
	c-22.1,7.8-40.6,25.2-49.8,46.8c-5.7,13.3-9.6,30.6-9.1,45c0.6,16.5,4.2,32.3,3.6,49c-0.7,16.7-3.2,33.3-7.6,49.4
	c-2.1,7.6-4.1,18.2-8.1,25.1c-3.8,6.5-5.6,10.1-0.9,17.3c3.6,5.6,9.5,9.3,15.1,12.9c13.6,8.6,27.4,17.2,42.4,23.2
	c7.6,3.1,15.3,4.8,23.3,6.5c8,1.7,15.9,5.3,23.6,8.1c9.7,3.5,20.5,7,30,3.1c9.2-3.7,14.5-13.1,18.8-22
	c19.3-39.7,30.7-82.4,43.4-124.6C783.8,232.3,782.9,188.9,751.2,161.4z"/>
<path class="st13" d="M663,147.7l5.5,3.4c0.3-1.1,0.5-2.2,0.8-3.4H663z"/>
<g>
	<g>
		<path class="st2" d="M685.4,156.8L685.4,156.8c13.7-0.2,24.6-11.4,24.4-25.1l-1.3-93.1L659,39.3l1.3,93.1
			C660.5,146,671.7,157,685.4,156.8z"/>
		<path class="st14" d="M704.3,85.8l4.2-47.2L659,39.3l1.3,93.1c0.1,4.3,1.3,8.2,3.2,11.6C690.3,135.3,698.9,111.3,704.3,85.8z"/>
		<g>
			<path class="st2" d="M663,136.9c-55.1,20-68.2-107.7-12.2-129.5C736.9-26.1,734,111.2,663,136.9z"/>
			<path class="st15" d="M706.3,89.8c0.2,4,1.3,8,3.1,11.5c-0.8-1.3,5.3-11.7,6-13.3c5.4-12.7,10.8-25.8,11.3-39.7
				c0.2-4.7-0.3-9.5-1.6-14c-13.4-46.8-79.5-38.9-110.7-16.9c-2.8,2-5.6,4.2-7.2,7.2c-2.8,5.1-1.7,11.7,1.8,16.3
				c7.3,9.8,25,14.2,36.7,14.2c13.5,0,27-5.1,36.5-14.8c-2.4,14.6,6.1,30.2,19.7,36c1.4-2.6,3.8-2.4,6.1-0.5
				C705.6,80.5,706,84.7,706.3,89.8z"/>
		</g>
	</g>
	<g>
		<path class="st16" d="M628.8,88.1c-0.7,5.4-6.4,9.2-12.6,8.3c-6.2-0.8-10.7-5.9-10-11.4c0.7-5.4,6.4-9.2,12.6-8.3
			C625,77.6,629.5,82.7,628.8,88.1z"/>
		
			<ellipse transform="matrix(0.1323 -0.9912 0.9912 0.1323 472.6745 721.3808)" class="st16" cx="648.4" cy="90.7" rx="9.9" ry="11.4"/>
		<line class="st17" x1="659.9" y1="90.7" x2="700.7" y2="76.4"/>
		<path class="st17" d="M629,86.5c0,0,4.3-1.6,8.3,1.1"/>
	</g>
	<path class="st2" d="M700.7,76.4c0.9-1.3,2.1-2.5,3.7-2.9c1.5-0.4,3.4,0,4.3,1.4c1,1.5,0.5,3.5-0.2,5.2c-1.8,4.1-4.8,7.5-7.7,10.8
		L700.7,76.4z"/>
	<path class="st18" d="M631,88.5c0.5,6.2,0.9,12.9-2.4,18.2c-0.6,0.9-1.3,2-1,3c0.2,0.9,1.2,1.5,2,1.8c1.3,0.6,2.8,1,4.2,1.3"/>
	<path class="st19" d="M629.9,118.8c3.5,1.3,7.2,1.8,10.9,1.6"/>
</g>
<path class="st10" d="M493.9,363.9c-34.7-14.5-82.4-36-118.6-12.2c-11.6,7.6-20.8,20.5-21.3,34.7c-0.6,15.3,9,29.5,21.2,38.2
	c12.2,8.7,26.8,12.9,41.2,17c37.3,10.6,74.7,21.2,112,31.8c21.9,6.2,43.8,13.7,65.9,19.2c17,4.2,61.2,20.9,61.2,20.9
	s12.7-19.3,17.3-36.3C622.2,425.6,559.8,391.5,493.9,363.9z"/>
<path class="st11" d="M544.3,388.6c15.2,9.3,30,19.3,44.1,30.1c6.6,5.1,12.8,10.5,19.4,15.6c6,4.7,12.2,9.1,18.4,13.3
	c15.3,10.5,31.5,20.8,45.3,33.5c0.5-1.4,0.9-2.8,1.3-4.1c-41.9-42.6-91.9-73.4-145.3-98.3C533.1,382,538.8,385.2,544.3,388.6z"/>
<path class="st11" d="M638.4,506.5c-18.2-6.8-36.9-12.2-55.2-18.7c-32.2-11.4-62.7-26.6-93.8-40.5c-18.4-8.3-37.8-14.3-56.5-22
	c-18.3-7.6-37.2-16.5-51.4-30.7c-6.3-6.3-11.5-13.7-14.6-22.1c-1.3-3.6-2-7.3-2.5-11.1c-6,7-10.1,15.7-10.4,25
	c-0.6,15.3,9,29.5,21.2,38.2c12.2,8.7,26.8,12.9,41.2,17c37.3,10.6,74.7,21.2,112,31.8c21.9,6.2,43.8,13.7,65.9,19.2
	c17,4.2,61.2,20.9,61.2,20.9s0.1-0.1,0.1-0.2C649.9,510.9,644.2,508.6,638.4,506.5z"/>
<g>
	<path class="st2" d="M703.2,292c-2.2,1.1-4.2,3.1-6,6.5c-8.8,16.6-26,28-42.1,37.8c-9,5.5-18.4,10.3-28.1,14.4
		c-5.5,2.3-20.9,11-26.7,9.3c31,8.7,55.9,1.2,85.4-7.3c23.7-6.9,44.5-18.1,58.8-39.4c3.7-5.4-18-15.5-21.1-16.9
		C715.8,292.7,708.9,289.2,703.2,292z"/>
	<path class="st12" d="M766.7,206.6c-1.1-6-3.2-11.6-6.8-16.6c-9.4-13-24.3-10.9-32.7,1.6c-3.1,4.6-4.9,9.9-6.5,15.2
		c-6.1,20.2-7.9,40.7-11.9,61.2c-1.5,7.6-3.2,15.6-6.6,22.5c16.1,0.4,32.9,9.6,42.3,22.9c3.6-5.4,6.7-11,9.2-16.7
		c7.6-17.6,11-36.6,12.8-55.6C767.5,230.3,768.8,217.9,766.7,206.6z"/>
	<path class="st20" d="M722.1,227.7c1.7-9.8,2.9-19.7,5.8-29.3c1.5-4.8,3.4-9.7,6.2-13.9c-2.6,1.7-4.9,4.1-6.9,7.1
		c-3.1,4.6-4.9,9.9-6.5,15.2c-6.1,20.2-7.9,40.7-11.9,61.2c-1.5,7.6-3.2,15.6-6.6,22.5c4.2,0.1,8.4,0.8,12.5,2
		C718.7,271,718.3,249.1,722.1,227.7z"/>
	<path class="st4" d="M751.9,300.2c0.6-1.2,1.2-2.4,1.8-3.6c7.1-16.5,10.6-34.2,12.4-52c-1.3,3.6-2.8,7.2-4.4,10.6
		c-3.6,8-13.2,33.2-15.4,36.3C750.1,295.1,749.4,295.7,751.9,300.2z"/>
	<path class="st4" d="M692.3,301c16.8,3.9,31.3,16.5,37.5,32.6c7.1,0.3,14-4.3,17.3-10.7c3.3-6.4,3.2-14.1,0.9-20.9
		c-2.4-6.7-6.9-12.6-12.1-17.4c-7.2-6.7-17.7-12.7-27.9-11.4C698.2,274.5,695.5,292.7,692.3,301z"/>
</g>
<polygon class="st21" points="647,713.7 534,734.8 760,734.8 "/>
<path class="st2" d="M598.3,343c-11,0.8-21.7,5.2-29.9,12.6c19.4,3.3,39.5,6.6,58.6,1.7c11.4-2.9,1.1-7.5-3.7-9.5
	C615.3,344.3,607.1,342.4,598.3,343z"/>
<g>
	<line class="st22" x1="772" y1="793.1" x2="881" y2="368.4"/>
	<line class="st22" x1="993.4" y1="793.1" x2="884.5" y2="368.4"/>
	<line class="st22" x1="5.9" y1="793.1" x2="114.9" y2="368.4"/>
	<line class="st22" x1="227.3" y1="793.1" x2="118.4" y2="368.4"/>
	<line class="st23" x1="50.6" y1="367.9" x2="953.1" y2="367.9"/>
</g>
<g>
	<g>
		<polygon class="st24" points="220.6,221.3 219.7,223.9 221.4,223.8 		"/>
		<polygon class="st25" points="223.5,230.1 221.4,223.8 219.7,223.9 217.6,230.3 217.6,230.3 223.5,230.2 		"/>
		<polygon class="st24" points="217.6,230.3 219.5,310.3 225.5,310.1 223.5,230.2 		"/>
	</g>
	<g>
		<path class="st26" d="M246,248.4l-10.2,60.2c-0.4,2.4,1.2,4.8,3.7,5.2c0.3,0,0.5,0.1,0.8,0.1c2.1,0,4-1.5,4.4-3.7l10.2-60
			L246,248.4z"/>
		<path class="st27" d="M256.5,239.9c0.4-2.4-1.2-4.8-3.7-5.2c-2.4-0.4-4.7,1.2-5.2,3.7l-0.7,4.1l8.8,1.6L256.5,239.9z"/>
		<polygon class="st1" points="247,242.5 246,248.4 254.8,250 255.8,244.1 		"/>
	</g>
	<g>
		<path class="st28" d="M199,250.4l6.9,56.3c0.3,2.3,2.4,3.9,4.6,3.6c0.2,0,0.5-0.1,0.7-0.1c1.9-0.6,3.2-2.4,2.9-4.5l-6.9-56.2
			L199,250.4z"/>
		<path class="st27" d="M206.1,240c-0.3-2.3-2.4-3.9-4.6-3.6c-2.3,0.3-3.9,2.3-3.6,4.6l0.5,3.8l8.3-0.9L206.1,240z"/>
		<polygon class="st1" points="198.3,244.9 199,250.4 207.3,249.5 206.6,244 		"/>
	</g>
	<line class="st29" x1="208.9" y1="252.9" x2="218.2" y2="293.2"/>
	<g>
		<polygon class="st28" points="228,236.6 227.3,239.2 229,239.1 		"/>
		<polygon class="st25" points="231.4,245.3 229,239.1 227.3,239.2 225.5,245.7 225.5,245.8 231.4,245.3 		"/>
		<polygon class="st30" points="225.5,245.8 231.5,325.5 237.4,325.1 231.4,245.3 		"/>
	</g>
	<g>
		<polygon class="st0" points="185.9,237.4 185.6,240.2 187.4,239.8 		"/>
		<polygon class="st25" points="191,245.8 187.4,239.8 185.6,240.2 184.8,247.3 184.8,247.4 191,245.9 		"/>
		<polygon class="st0" points="184.8,247.4 204.7,329.8 210.9,328.3 191,245.9 		"/>
	</g>
	<g>
		<polygon class="st25" points="239,228.7 238,231.2 239.7,231.3 		"/>
		<polygon class="st31" points="241.5,237.7 239.7,231.3 238,231.2 235.5,237.5 235.5,237.6 241.5,237.7 		"/>
		<polygon class="st25" points="235.5,237.6 233,317.5 239,317.7 241.5,237.7 		"/>
	</g>
	<polygon points="238.8,353.4 204.5,353.4 192.6,286.9 250.7,286.9 	"/>
</g>
<polygon class="st32" points="550.7,353.6 323.1,353.6 291.6,203.6 519.2,203.6 "/>
</svg>
